<?xml version="1.0" encoding="utf-8"?>
<!-- Generator: Adobe Illustrator 27.5.0, SVG Export Plug-In . SVG Version: 6.00 Build 0)  -->
<svg version="1.1" id="Layer_1" xmlns="http://www.w3.org/2000/svg" xmlns:xlink="http://www.w3.org/1999/xlink" x="0px" y="0px"
	 viewBox="0 0 413.258 124.93" style="enable-background:new 0 0 413.258 124.93;" xml:space="preserve">
<g>
	<path style="fill:#0089D5;" d="M212.582,69.263c-0.001,0-0.001,0.001-0.001,0.002c-0.001,0.004-0.002,0.003-0.003,0.008
		c0,0,0,0,0,0C212.579,69.269,212.581,69.266,212.582,69.263z"/>
	<g>
		<g>
			<polygon style="fill:#3A3D3E;" points="46.257,102.59 46.257,113.009 48.661,113.009 48.661,101.231 			"/>
			<polygon style="fill:#8E9193;" points="39.527,101.952 39.527,107.481 52.748,107.481 52.748,101.231 			"/>
			<g>
				<circle style="fill:#2E2F30;" cx="46.874" cy="116.831" r="6.225"/>
				<path d="M51.062,116.831c0,2.313-1.875,4.188-4.188,4.188c-2.313,0-4.188-1.875-4.188-4.188c0-2.313,1.875-4.188,4.188-4.188
					C49.187,112.643,51.062,114.518,51.062,116.831z"/>
				<path style="fill:#BABCBE;" d="M50.432,116.831c0,1.965-1.593,3.558-3.558,3.558s-3.558-1.593-3.558-3.558
					c0-1.965,1.593-3.558,3.558-3.558S50.432,114.866,50.432,116.831z"/>
				<circle style="fill:#58595B;" cx="46.874" cy="116.831" r="1.475"/>
				<path style="fill:#747477;" d="M47.253,116.542c0,0.368-0.299,0.667-0.667,0.667s-0.667-0.299-0.667-0.667
					c0-0.368,0.299-0.667,0.667-0.667S47.253,116.174,47.253,116.542z"/>
			</g>
		</g>
		<g>
			<g>
				<polygon style="fill:#3A3D3E;" points="191.764,102.59 191.764,113.009 194.168,113.009 194.168,101.231 				"/>
				<g>
					<circle style="fill:#2E2F30;" cx="192.38" cy="116.831" r="6.225"/>
					<circle cx="192.38" cy="116.831" r="4.188"/>
					<path style="fill:#BABCBE;" d="M195.938,116.831c0,1.965-1.593,3.558-3.558,3.558c-1.965,0-3.558-1.593-3.558-3.558
						c0-1.965,1.593-3.558,3.558-3.558C194.345,113.273,195.938,114.866,195.938,116.831z"/>
					<circle style="fill:#58595B;" cx="192.38" cy="116.831" r="1.475"/>
					<path style="fill:#747477;" d="M192.759,116.542c0,0.368-0.299,0.667-0.667,0.667s-0.667-0.299-0.667-0.667
						c0-0.368,0.299-0.667,0.667-0.667S192.759,116.174,192.759,116.542z"/>
				</g>
			</g>
			<g>
				<polygon style="fill:#3A3D3E;" points="177.982,102.59 177.982,113.009 180.386,113.009 180.386,101.231 				"/>
				<polygon style="fill:#8E9193;" points="171.252,101.102 171.252,107.481 198.735,107.481 198.735,100.27 				"/>
				<g>
					<circle style="fill:#2E2F30;" cx="178.599" cy="116.831" r="6.225"/>
					<path d="M182.787,116.831c0,2.313-1.875,4.188-4.188,4.188c-2.313,0-4.188-1.875-4.188-4.188c0-2.313,1.875-4.188,4.188-4.188
						C180.912,112.643,182.787,114.518,182.787,116.831z"/>
					<path style="fill:#BABCBE;" d="M182.157,116.831c0,1.965-1.593,3.558-3.558,3.558c-1.965,0-3.558-1.593-3.558-3.558
						c0-1.965,1.593-3.558,3.558-3.558C180.564,113.273,182.157,114.866,182.157,116.831z"/>
					<path style="fill:#58595B;" d="M180.074,116.831c0,0.814-0.66,1.475-1.475,1.475c-0.815,0-1.475-0.66-1.475-1.475
						c0-0.815,0.66-1.475,1.475-1.475C179.413,115.356,180.074,116.016,180.074,116.831z"/>
					<path style="fill:#747477;" d="M178.978,116.542c0,0.368-0.299,0.667-0.667,0.667c-0.368,0-0.667-0.299-0.667-0.667
						c0-0.368,0.299-0.667,0.667-0.667C178.679,115.875,178.978,116.174,178.978,116.542z"/>
				</g>
			</g>
		</g>
		<g>
			<g>
				<path style="fill:#E4E5E6;" d="M312.191,63.636c0,0,6.979,0,13.57-5.865c6.591-5.865,53.892-52.099,53.892-52.099
					s1.939-2.415,5.428-2.76c3.489-0.345,19.385-1.035,19.385-1.035s3.102-0.172,2.52,2.156
					c-0.582,2.329-30.241,59.775-30.241,59.775s-1.163,1.294,0.291,2.588c0,0,0.872,1.553-2.326,1.811
					C371.511,68.466,316.262,64.499,312.191,63.636z"/>
				<path style="fill:#DE5944;" d="M335.29,56.838c3.758-0.491,7.443-1.511,11.018-2.749c6.884-2.383,13.445-5.633,19.823-9.131
					c7.766-4.259,15.086-9.307,23.08-13.152c1.665-0.801,3.36-1.522,5.076-2.184c3.937-7.725,7.65-15.063,10.033-19.897
					c-2.31,0.754-4.576,1.663-6.781,2.728c-7.232,3.49-13.711,8.328-19.908,13.388c-3.204,2.616-6.348,5.305-9.515,7.966
					c-3.274,2.75-6.546,5.514-10.036,7.988c-7.445,5.278-15.683,9.468-24.323,12.403c-2.009,0.682-4.045,1.293-6.101,1.832
					c-0.289,0.27-0.55,0.512-0.797,0.741C329.632,57.279,332.506,57.201,335.29,56.838z"/>
				<path style="fill:#C4C6C7;" d="M406.986,4.033c0.581-2.329-2.52-2.156-2.52-2.156s-0.732,0.032-1.911,0.085
					c0.188,0.487,0.234,1.029,0.151,1.584c-0.236,1.584-1.154,3.105-1.908,4.489c-0.938,1.723-1.989,3.384-3.101,4.999
					c-2.327,3.378-4.923,6.566-7.587,9.682c-2.564,3-5.169,5.971-7.794,8.917c-5.134,5.764-10.86,11.12-17.431,15.217
					c-5.925,3.694-12.871,6.583-19.948,6.679c-2.767,0.038-5.647-0.397-8.077-1.79c-0.971-0.556-1.809-1.258-2.518-2.066
					c-4.089,3.921-7.214,6.882-8.582,8.099c-6.591,5.865-13.57,5.865-13.57,5.865c4.071,0.863,59.32,4.83,62.518,4.572
					c3.199-0.259,2.326-1.811,2.326-1.811c-1.454-1.294-0.291-2.588-0.291-2.588S406.405,6.362,406.986,4.033z"/>
				<path style="fill:#C4C6C7;" d="M376.745,63.809c0,0,1.1-2.13,2.876-5.579c-0.955-0.059-1.909-0.118-2.864-0.179
					c-4.618-0.295-9.236-0.602-13.861-0.789c-4.599-0.186-9.197-0.202-13.799-0.139c-7.55,0.104-15.113,0.357-22.66,0.035
					c-0.257,0.236-0.486,0.443-0.677,0.613c-6.591,5.865-13.57,5.865-13.57,5.865c4.071,0.863,59.32,4.83,62.518,4.572
					c3.199-0.259,2.326-1.811,2.326-1.811C375.582,65.103,376.745,63.809,376.745,63.809z"/>
			</g>
			<path style="fill:#C4C6C7;" d="M329.819,56.682l49.677-48.876c0,0,3.846-4.006,6.73-4.327l17.467-0.801l-16.345,2.243
				c0,0-3.846,0.32-7.692,4.167c-3.846,3.846-41.985,48.716-41.985,48.716L329.819,56.682z"/>
		</g>
		<path style="fill:#DE5944;" d="M255.142,55.079l-167.3-2.243c0,0-33.412,2.243-54.325,21.714
			c-7.375,6.866-20.672,8.173-26.121,16.746c0,0-3.846,7.371,2.244,9.936c6.089,2.564,188.453,8.653,266.975,0.32
			c78.522-8.333,108.328-24.678,109.931-30.447c1.603-5.769-7.051-9.935-28.524-11.217
			C358.022,59.887,298.089,57.643,255.142,55.079z"/>
		<path style="fill:#FFFFFF;" d="M236.974,93.745c13.889-2.534,28.063-2.754,42.132-3.258c11.432-0.41,22.899-1.034,34.133-3.319
			c10.32-2.099,21.015-5.368,29.529-11.783c3.901-2.939,7.27-6.674,9.247-11.177c0.64-1.458,1.106-2.964,1.424-4.496
			c-4.166-0.162-10.931-0.43-19.304-0.78c-5.569,12.934-19.774,18.307-32.995,20.333c-16.747,2.566-33.935,1.179-50.709-0.398
			c-6.656-0.626-13.313-1.404-19.992-1.736c-11.351-0.564-22.751-0.749-34.114-0.823c-24.91-0.162-50.028,0.909-74.486,5.956
			c-19.867,4.099-39.297,11.031-56.294,22.087c39.547,1.227,93.721,1.995,141.21,0.941
			C215.744,99.208,226.277,95.696,236.974,93.745z"/>
		<path style="opacity:0.45;fill:#686C6C;" d="M358.022,59.887c0,0-59.933-2.243-102.88-4.807l-167.3-2.243
			c0,0-33.412,2.243-54.325,21.714c-7.375,6.866-20.672,8.173-26.121,16.746c0,0-3.846,7.371,2.244,9.935
			c6.089,2.564,188.453,8.653,266.975,0.32c78.522-8.333,108.328-24.678,109.931-30.447
			C388.149,65.335,379.496,61.169,358.022,59.887z M371.483,75.271c-8.654,6.971-38.46,13.221-38.46,13.221
			c-27.643,5.288-91.102,9.134-91.102,9.134H17.172c-7.932-0.24-6.971-3.365-6.971-3.365c-2.163-4.327,8.413-10.817,12.74-11.778
			c4.327-0.962,11.057-6.25,15.144-9.615c4.086-3.365,10.336-6.25,10.336-6.25C67.891,55.8,90.967,54.358,90.967,54.358
			l136.773,2.163c0,0,96.39,6.009,109.611,6.009c13.221,0,37.258,1.442,38.941,5.769C377.974,72.627,371.483,75.271,371.483,75.271z
			"/>
		<g>
			<path style="fill:#DE5944;" d="M312.512,74.95c0,0-1.282,2.884,0.641,6.41c0,0,30.127,0.08,72.753-3.445
				c0,0,12.259-4.567,7.452-4.567C388.55,73.348,312.512,74.95,312.512,74.95z"/>
			<path style="fill:#C4C6C7;" d="M312.592,74.91c0,0-0.95,3.242,0.055,6.45c0,0,15.742,0.073,38.014-3.135
				c0,0,6.405-4.156,3.893-4.156S312.592,74.91,312.592,74.91z"/>
		</g>
		<path style="fill:#292A2C;" d="M75.79,93.378h-4.981c-1.123,0-2.036-0.913-2.036-2.036v-17c0-1.123,0.913-2.036,2.036-2.036h4.981
			c1.123,0,2.036,0.913,2.036,2.036v17C77.826,92.465,76.913,93.378,75.79,93.378z M70.809,72.466c-1.035,0-1.876,0.842-1.876,1.877
			v17c0,1.035,0.842,1.877,1.876,1.877h4.981c1.035,0,1.876-0.842,1.876-1.877v-17c0-1.035-0.842-1.877-1.876-1.877H70.809z"/>
		<g>
			<g>
				<path style="fill:#676A6B;" d="M87.201,78.796L87.201,78.796c-1.234,0-2.243-1.01-2.243-2.243v-2.243
					c0-1.234,1.01-2.243,2.243-2.243l0,0c1.234,0,2.243,1.009,2.243,2.243v2.244C89.445,77.787,88.435,78.796,87.201,78.796z"/>
				<path style="fill:#97999B;" d="M86.64,76.473L86.64,76.473c-0.529,0-0.961-0.433-0.961-0.962v-1.562
					c0-0.529,0.433-0.962,0.961-0.962h0c0.529,0,0.961,0.433,0.961,0.961v1.563C87.602,76.04,87.169,76.473,86.64,76.473z"/>
			</g>
			<g>
				<path style="fill:#676A6B;" d="M94.076,78.796L94.076,78.796c-1.234,0-2.243-1.01-2.243-2.244v-2.243
					c0-1.234,1.01-2.243,2.243-2.243l0,0c1.234,0,2.243,1.009,2.243,2.243v2.244C96.319,77.787,95.31,78.796,94.076,78.796z"/>
				<path style="fill:#97999B;" d="M93.515,76.473L93.515,76.473c-0.529,0-0.962-0.433-0.962-0.962v-1.562
					c0-0.529,0.433-0.962,0.962-0.962l0,0c0.529,0,0.962,0.433,0.962,0.962v1.562C94.477,76.04,94.044,76.473,93.515,76.473z"/>
			</g>
			<g>
				<path style="fill:#676A6B;" d="M100.951,78.796L100.951,78.796c-1.234,0-2.243-1.01-2.243-2.243v-2.244
					c0-1.234,1.009-2.243,2.243-2.243l0,0c1.234,0,2.243,1.009,2.243,2.243v2.244C103.194,77.787,102.185,78.796,100.951,78.796z"/>
				<path style="fill:#97999B;" d="M100.39,76.473L100.39,76.473c-0.529,0-0.962-0.433-0.962-0.962v-1.562
					c0-0.529,0.433-0.962,0.962-0.962l0,0c0.529,0,0.961,0.433,0.961,0.962v1.562C101.351,76.04,100.919,76.473,100.39,76.473z"/>
			</g>
			<g>
				<path style="fill:#676A6B;" d="M107.825,78.796L107.825,78.796c-1.234,0-2.243-1.01-2.243-2.243v-2.244
					c0-1.234,1.009-2.243,2.243-2.243l0,0c1.234,0,2.243,1.009,2.243,2.243v2.244C110.069,77.787,109.059,78.796,107.825,78.796z"/>
				<path style="fill:#97999B;" d="M107.264,76.473L107.264,76.473c-0.529,0-0.961-0.433-0.961-0.962v-1.562
					c0-0.529,0.433-0.962,0.961-0.962l0,0c0.529,0,0.962,0.433,0.962,0.962v1.562C108.226,76.04,107.793,76.473,107.264,76.473z"/>
			</g>
			<g>
				<path style="fill:#676A6B;" d="M114.7,78.796L114.7,78.796c-1.234,0-2.244-1.01-2.244-2.244v-2.243
					c0-1.234,1.01-2.243,2.243-2.243l0,0c1.234,0,2.243,1.009,2.243,2.243v2.243C116.943,77.787,115.934,78.796,114.7,78.796z"/>
				<path style="fill:#97999B;" d="M114.139,76.473L114.139,76.473c-0.529,0-0.962-0.433-0.962-0.961v-1.563
					c0-0.529,0.433-0.962,0.962-0.962l0,0c0.529,0,0.961,0.433,0.961,0.962v1.562C115.101,76.04,114.668,76.473,114.139,76.473z"/>
			</g>
			<g>
				<path style="fill:#676A6B;" d="M121.575,78.796L121.575,78.796c-1.234,0-2.243-1.01-2.243-2.243v-2.243
					c0-1.234,1.009-2.243,2.243-2.243l0,0c1.234,0,2.243,1.009,2.243,2.243v2.244C123.818,77.787,122.809,78.796,121.575,78.796z"/>
				<path style="fill:#97999B;" d="M121.014,76.473L121.014,76.473c-0.529,0-0.962-0.433-0.962-0.962v-1.562
					c0-0.529,0.433-0.962,0.962-0.962l0,0c0.529,0,0.962,0.433,0.962,0.962v1.562C121.975,76.04,121.543,76.473,121.014,76.473z"/>
			</g>
			<g>
				<path style="fill:#676A6B;" d="M128.449,78.796L128.449,78.796c-1.234,0-2.243-1.01-2.243-2.244v-2.243
					c0-1.234,1.009-2.243,2.243-2.243l0,0c1.234,0,2.243,1.009,2.243,2.243v2.244C130.693,77.787,129.683,78.796,128.449,78.796z"/>
				<path style="fill:#97999B;" d="M127.888,76.473L127.888,76.473c-0.529,0-0.961-0.433-0.961-0.962v-1.562
					c0-0.529,0.433-0.962,0.961-0.962l0,0c0.529,0,0.962,0.433,0.962,0.962v1.562C128.85,76.04,128.417,76.473,127.888,76.473z"/>
			</g>
			<g>
				<path style="fill:#676A6B;" d="M135.324,78.796L135.324,78.796c-1.234,0-2.243-1.01-2.243-2.243v-2.244
					c0-1.234,1.01-2.243,2.243-2.243l0,0c1.234,0,2.243,1.009,2.243,2.243v2.244C137.568,77.787,136.558,78.796,135.324,78.796z"/>
				<path style="fill:#97999B;" d="M134.763,76.473L134.763,76.473c-0.529,0-0.962-0.433-0.962-0.962v-1.562
					c0-0.529,0.433-0.962,0.962-0.962l0,0c0.529,0,0.962,0.433,0.962,0.962v1.562C135.725,76.04,135.292,76.473,134.763,76.473z"/>
			</g>
			<g>
				<path style="fill:#676A6B;" d="M142.199,78.796L142.199,78.796c-1.234,0-2.244-1.01-2.244-2.243v-2.244
					c0-1.234,1.01-2.243,2.243-2.243l0,0c1.234,0,2.243,1.009,2.243,2.243v2.244C144.442,77.787,143.433,78.796,142.199,78.796z"/>
				<path style="fill:#97999B;" d="M141.638,76.473L141.638,76.473c-0.529,0-0.962-0.433-0.962-0.962v-1.562
					c0-0.529,0.433-0.962,0.962-0.962l0,0c0.529,0,0.962,0.433,0.962,0.962v1.562C142.599,76.04,142.167,76.473,141.638,76.473z"/>
			</g>
			<g>
				<path style="fill:#676A6B;" d="M149.074,78.796L149.074,78.796c-1.234,0-2.244-1.01-2.244-2.243v-2.244
					c0-1.234,1.01-2.243,2.243-2.243l0,0c1.234,0,2.243,1.009,2.243,2.243v2.244C151.317,77.787,150.307,78.796,149.074,78.796z"/>
				<path style="fill:#97999B;" d="M148.512,76.473L148.512,76.473c-0.529,0-0.961-0.433-0.961-0.961v-1.563
					c0-0.529,0.433-0.962,0.962-0.962l0,0c0.529,0,0.961,0.433,0.961,0.961v1.563C149.474,76.04,149.041,76.473,148.512,76.473z"/>
			</g>
			<g>
				<path style="fill:#676A6B;" d="M155.948,78.796L155.948,78.796c-1.234,0-2.243-1.01-2.243-2.243v-2.243
					c0-1.234,1.01-2.243,2.244-2.243l0,0c1.234,0,2.243,1.009,2.243,2.243v2.244C158.192,77.787,157.182,78.796,155.948,78.796z"/>
				<path style="fill:#97999B;" d="M155.387,76.473L155.387,76.473c-0.529,0-0.962-0.433-0.962-0.962v-1.562
					c0-0.529,0.433-0.962,0.962-0.962l0,0c0.529,0,0.962,0.433,0.962,0.962v1.562C156.349,76.04,155.916,76.473,155.387,76.473z"/>
			</g>
			<g>
				<path style="fill:#676A6B;" d="M162.823,78.796L162.823,78.796c-1.234,0-2.244-1.01-2.244-2.243v-2.244
					c0-1.234,1.01-2.243,2.243-2.243l0,0c1.234,0,2.243,1.009,2.243,2.243v2.244C165.066,77.787,164.057,78.796,162.823,78.796z"/>
				<path style="fill:#97999B;" d="M162.262,76.473L162.262,76.473c-0.529,0-0.962-0.433-0.962-0.962v-1.562
					c0-0.529,0.433-0.962,0.962-0.962l0,0c0.529,0,0.962,0.433,0.962,0.962v1.562C163.223,76.04,162.791,76.473,162.262,76.473z"/>
			</g>
			<g>
				<path style="fill:#676A6B;" d="M169.698,78.796L169.698,78.796c-1.234,0-2.244-1.01-2.244-2.243v-2.244
					c0-1.234,1.01-2.243,2.243-2.243l0,0c1.234,0,2.243,1.009,2.243,2.243v2.244C171.941,77.787,170.932,78.796,169.698,78.796z"/>
				<path style="fill:#97999B;" d="M169.137,76.473L169.137,76.473c-0.529,0-0.962-0.433-0.962-0.962v-1.562
					c0-0.529,0.433-0.962,0.962-0.962l0,0c0.529,0,0.962,0.433,0.962,0.962v1.562C170.098,76.04,169.665,76.473,169.137,76.473z"/>
			</g>
			<g>
				<path style="fill:#676A6B;" d="M176.572,78.796L176.572,78.796c-1.234,0-2.244-1.01-2.244-2.243v-2.244
					c0-1.234,1.01-2.243,2.243-2.243l0,0c1.234,0,2.243,1.009,2.243,2.243v2.244C178.816,77.787,177.806,78.796,176.572,78.796z"/>
				<path style="fill:#97999B;" d="M176.011,76.473L176.011,76.473c-0.529,0-0.962-0.433-0.962-0.962v-1.562
					c0-0.529,0.433-0.962,0.962-0.962l0,0c0.529,0,0.961,0.433,0.961,0.962v1.562C176.973,76.04,176.54,76.473,176.011,76.473z"/>
			</g>
			<g>
				<path style="fill:#676A6B;" d="M183.447,78.796L183.447,78.796c-1.234,0-2.243-1.01-2.243-2.243v-2.243
					c0-1.234,1.01-2.243,2.243-2.243l0,0c1.234,0,2.243,1.009,2.243,2.243v2.244C185.69,77.787,184.681,78.796,183.447,78.796z"/>
				<path style="fill:#97999B;" d="M182.886,76.473L182.886,76.473c-0.529,0-0.961-0.433-0.961-0.962v-1.562
					c0-0.529,0.433-0.962,0.961-0.962h0c0.529,0,0.961,0.433,0.961,0.961v1.563C183.848,76.04,183.415,76.473,182.886,76.473z"/>
			</g>
			<g>
				<path style="fill:#676A6B;" d="M190.322,78.796L190.322,78.796c-1.234,0-2.243-1.01-2.243-2.243v-2.243
					c0-1.234,1.01-2.243,2.243-2.243l0,0c1.234,0,2.243,1.009,2.243,2.243v2.244C192.565,77.787,191.555,78.796,190.322,78.796z"/>
				<path style="fill:#97999B;" d="M189.761,76.473L189.761,76.473c-0.529,0-0.961-0.433-0.961-0.962v-1.562
					c0-0.529,0.433-0.962,0.961-0.962l0,0c0.529,0,0.962,0.433,0.962,0.962v1.562C190.722,76.04,190.29,76.473,189.761,76.473z"/>
			</g>
			<g>
				<path style="fill:#676A6B;" d="M197.196,78.796L197.196,78.796c-1.234,0-2.244-1.01-2.244-2.243v-2.244
					c0-1.234,1.01-2.243,2.243-2.243l0,0c1.234,0,2.243,1.009,2.243,2.243v2.244C199.44,77.787,198.43,78.796,197.196,78.796z"/>
				<path style="fill:#97999B;" d="M196.635,76.473L196.635,76.473c-0.529,0-0.962-0.433-0.962-0.962v-1.562
					c0-0.529,0.433-0.962,0.962-0.962l0,0c0.529,0,0.961,0.433,0.961,0.962v1.562C197.597,76.04,197.164,76.473,196.635,76.473z"/>
			</g>
			<g>
				<path style="fill:#676A6B;" d="M204.071,78.796L204.071,78.796c-1.234,0-2.243-1.01-2.243-2.243v-2.244
					c0-1.234,1.01-2.243,2.243-2.243l0,0c1.234,0,2.243,1.009,2.243,2.243v2.244C206.314,77.787,205.305,78.796,204.071,78.796z"/>
				<path style="fill:#97999B;" d="M203.51,76.473L203.51,76.473c-0.529,0-0.962-0.433-0.962-0.962v-1.562
					c0-0.529,0.433-0.962,0.962-0.962l0,0c0.529,0,0.962,0.433,0.962,0.962v1.562C204.472,76.04,204.039,76.473,203.51,76.473z"/>
			</g>
			<g>
				<path style="fill:#676A6B;" d="M210.946,78.796L210.946,78.796c-1.234,0-2.243-1.01-2.243-2.243v-2.244
					c0-1.234,1.01-2.243,2.243-2.243l0,0c1.234,0,2.243,1.009,2.243,2.243v2.244C213.189,77.787,212.18,78.796,210.946,78.796z"/>
				<path style="fill:#97999B;" d="M210.385,76.473L210.385,76.473c-0.529,0-0.962-0.433-0.962-0.961v-1.563
					c0-0.529,0.433-0.962,0.962-0.962l0,0c0.529,0,0.962,0.433,0.962,0.962v1.562C211.346,76.04,210.914,76.473,210.385,76.473z"/>
			</g>
			<g>
				<path style="fill:#676A6B;" d="M217.82,78.796L217.82,78.796c-1.234,0-2.243-1.01-2.243-2.243v-2.243
					c0-1.234,1.01-2.243,2.243-2.243l0,0c1.234,0,2.243,1.009,2.243,2.243v2.244C220.064,77.787,219.054,78.796,217.82,78.796z"/>
				<path style="fill:#97999B;" d="M217.26,76.473L217.26,76.473c-0.529,0-0.962-0.433-0.962-0.962v-1.562
					c0-0.529,0.433-0.962,0.962-0.962l0,0c0.529,0,0.961,0.433,0.961,0.962v1.562C218.221,76.04,217.788,76.473,217.26,76.473z"/>
			</g>
			<g>
				<path style="fill:#676A6B;" d="M224.695,78.796L224.695,78.796c-1.234,0-2.243-1.01-2.243-2.244v-2.243
					c0-1.234,1.01-2.243,2.243-2.243l0,0c1.234,0,2.243,1.009,2.243,2.243v2.244C226.939,77.787,225.929,78.796,224.695,78.796z"/>
				<path style="fill:#97999B;" d="M224.134,76.473L224.134,76.473c-0.529,0-0.962-0.433-0.962-0.962v-1.562
					c0-0.529,0.433-0.962,0.962-0.962l0,0c0.529,0,0.962,0.433,0.962,0.962v1.562C225.096,76.04,224.663,76.473,224.134,76.473z"/>
			</g>
		</g>
		<g>
			<path style="fill:#4C4F50;" d="M60.743,67.701H42.36c-3.095,2.006-6.078,4.276-8.842,6.849c-2.161,2.012-4.833,3.546-7.665,4.926
				h26.84C55.986,76.014,58.641,71.988,60.743,67.701z"/>
			<path style="fill:#1F2122;" d="M54.726,67.701c-0.602,0.743-1.23,1.465-1.91,2.139c-3.389,3.364-7.59,5.81-12.007,7.563
				c-2.133,0.847-4.327,1.529-6.556,2.073h18.44c3.293-3.462,5.948-7.488,8.05-11.775H54.726z"/>
			<path style="fill:#4C4F50;" d="M34.84,76.777c4.662-3.124,9.566-5.899,14.193-9.076h-1.145c-0.482,0.326-0.966,0.648-1.448,0.974
				c-5.375,3.639-10.74,7.294-16.202,10.801h0.813C32.292,78.546,33.551,77.641,34.84,76.777z"/>
		</g>
		<g>
			<path style="fill:#959799;" d="M135.839,91.809c0,0-16.466-5.184-39.902-2.917c-1.991,0-3.606,7.318-3.606,16.345
				s1.614,16.345,3.606,16.345c0,0,15.504,3.677,39.902-2.917c1.636,0,2.962-6.012,2.962-13.429
				C138.801,97.821,137.475,91.809,135.839,91.809z"/>
			<path style="fill:#E4E5E6;" d="M135.839,91.809c0,0-14.157-4.451-34.895-3.295v33.785c6.422,0.595,18.694,0.746,34.895-3.632
				c1.636,0,2.962-6.012,2.962-13.429C138.801,97.821,137.475,91.809,135.839,91.809z"/>
			<path style="fill:#C2C4C6;" d="M131.644,114.067c-4.237,0.606-8.504,0.977-12.775,1.231c-3.329,0.198-6.661,0.441-9.995,0.542
				c-3.355,0.101-6.731,0.044-10.056-0.452c-2.02-0.302-4.058-0.784-5.952-1.585c0.635,4.667,1.772,7.78,3.071,7.78
				c0,0,15.504,3.677,39.902-2.917c1.008,0,1.897-2.287,2.432-5.775C136.077,113.361,133.865,113.75,131.644,114.067z"/>
			<path style="fill:#C2C4C6;" d="M102.846,103.288c4.49,0.35,8.976,0.645,13.482,0.652c4.5,0.007,8.999-0.126,13.496-0.296
				c2.981-0.113,5.961-0.242,8.942-0.36c-0.045-1.371-0.134-2.678-0.263-3.882c-0.473-0.053-0.945-0.112-1.419-0.164
				c-8.85-0.975-17.725-1.755-26.621-2.129c-5.875-0.246-11.759-0.307-17.636-0.137c-0.22,1.699-0.37,3.601-0.443,5.621
				C95.875,102.745,99.361,103.017,102.846,103.288z"/>
			<path style="fill:#C2C4C6;" d="M102.185,90.81c7.866,0.339,15.723,0.94,23.536,1.922c3.982,0.501,7.95,1.1,11.901,1.801
				c-0.496-1.703-1.113-2.724-1.783-2.724c0,0-16.466-5.184-39.902-2.917c-0.57,0-1.108,0.601-1.587,1.667
				C96.963,90.62,99.575,90.698,102.185,90.81z"/>
		</g>
		<g>
			<polygon style="fill:#9A9D9F;" points="185.915,97.866 144.482,97.866 144.57,101.231 197.132,101.231 221.199,93.78 
				195.049,93.78 			"/>
			<polygon style="fill:#D5D7D8;" points="273.731,74.95 252.928,74.95 144.33,92.097 144.482,97.866 185.915,97.866 195.049,93.78 
				221.199,93.78 273.731,77.514 			"/>
			<polygon style="fill:#AFB2B4;" points="273.731,74.95 252.928,74.95 144.57,94.02 144.482,97.866 185.915,97.866 195.049,93.78 
				221.199,93.78 273.731,77.514 			"/>
			<path style="fill:#D5D7D8;" d="M266.085,78.24c-4.388,1.265-8.747,2.624-13.115,3.957c-4.339,1.324-8.695,2.588-13.029,3.924
				c-7.704,2.377-15.379,4.861-22.941,7.659h4.2l52.533-16.265v-1.35C271.17,76.81,268.622,77.508,266.085,78.24z"/>
			<polygon style="fill:#9A9D9F;" points="239.707,88.049 240.99,87.652 180.756,87.652 178.499,88.049 			"/>
			<polygon style="fill:#9A9D9F;" points="262.997,80.838 265.316,80.12 223.553,80.12 219.474,80.838 			"/>
		</g>
	</g>
</g>
</svg>
