<svg width="153" height="90" viewBox="0 0 153 90" fill="none" xmlns="http://www.w3.org/2000/svg">
<path d="M142.192 23.9776C142.192 21.4089 139.969 19.3065 137.251 19.3065H127.061C124.344 19.3065 122.12 17.2047 122.12 14.6353C122.12 12.0666 124.344 9.96421 127.061 9.96421H127.83C130.548 9.96421 132.771 7.86242 132.771 5.29309C132.771 2.72375 130.548 0.621948 127.83 0.621948H61.3251C58.6075 0.621948 56.384 2.72375 56.384 5.29309C56.384 7.86181 58.6075 9.96421 61.3251 9.96421H68.3932C71.1108 9.96421 73.3342 12.066 73.3342 14.6353C73.3342 17.204 75.5577 19.3065 78.2753 19.3065H89.6366C92.3541 19.3065 94.5776 21.3181 94.5776 23.7763C94.5776 26.2344 92.3541 28.246 89.6366 28.246H67.9855C65.268 28.246 63.0445 30.3478 63.0445 32.9172C63.0445 35.4859 65.268 37.5883 67.9855 37.5883H102.476C105.193 37.5883 107.417 35.5767 107.417 33.1185C107.417 30.6603 109.64 28.6487 112.358 28.6487H137.251C139.969 28.6481 142.192 26.5463 142.192 23.9776Z" fill="#C7F3F9"/>
<path d="M57.012 23.3556C57.012 20.7869 54.7886 18.6845 52.071 18.6845H47.9656C45.2481 18.6845 43.0246 16.5827 43.0246 14.0134C43.0246 11.4447 41.9147 9.34226 40.5578 9.34226C39.2008 9.34226 38.091 7.24046 38.091 4.67112C38.091 2.10178 35.8675 0 33.1499 0H7.45348C4.73592 0 2.51245 2.10178 2.51245 4.67112C2.51245 7.23984 4.73592 9.34226 7.45348 9.34226H15.361C18.0785 9.34226 20.302 11.444 20.302 14.0134C20.302 16.5821 22.5255 18.6845 25.243 18.6845H29.8944C32.612 18.6845 34.8354 20.6961 34.8354 23.1543C34.8354 25.6124 33.875 27.6241 32.7016 27.6241C31.5281 27.6241 30.5677 29.7259 30.5677 32.2952C30.5677 34.8639 32.7911 36.9663 35.5087 36.9663H46.2937C49.0113 36.9663 51.2347 34.9547 51.2347 32.4965C51.2347 30.0384 52.5348 28.0268 54.124 28.0268C55.7119 28.0268 57.012 25.925 57.012 23.3556Z" fill="#C7F3F9"/>
<path d="M95.6121 29.5455C93.5832 29.5461 91.9397 31.1897 91.9397 33.2186C91.9403 35.2475 93.5839 36.891 95.6121 36.8916C97.6411 36.891 99.2845 35.2475 99.2851 33.2186C99.2845 31.1897 97.6411 29.5461 95.6121 29.5455ZM97.1846 34.791C96.78 35.1944 96.2285 35.442 95.6121 35.4427C94.9958 35.442 94.4442 35.195 94.0397 34.791C93.6363 34.3865 93.3886 33.835 93.388 33.2186C93.3886 32.6022 93.6357 32.0506 94.0397 31.6461C94.4442 31.2422 94.9958 30.9951 95.6121 30.9945C96.2285 30.9951 96.78 31.2422 97.1846 31.6461C97.5879 32.0506 97.8356 32.6022 97.8362 33.2186C97.8356 33.8343 97.5879 34.3859 97.1846 34.791Z" fill="#7FB376"/>
<path d="M75.585 21.7961C75.585 20.9945 74.9352 20.3453 74.1342 20.3453C73.3331 20.3453 72.6833 20.9945 72.6833 21.7961C72.6833 22.5972 73.3331 23.247 74.1342 23.247C74.9352 23.247 75.5844 22.5978 75.585 21.7961ZM74.7549 22.4175C74.5949 22.5768 74.3775 22.6744 74.1336 22.675C73.8902 22.675 73.6721 22.5768 73.5122 22.4175C73.3528 22.2575 73.2552 22.0395 73.2546 21.7961C73.2546 21.5528 73.3528 21.3348 73.5122 21.1748C73.6721 21.0155 73.8896 20.9179 74.1336 20.9173C74.3769 20.9173 74.5949 21.0155 74.7549 21.1748C74.9142 21.3348 75.0118 21.5522 75.0124 21.7961C75.0124 22.0401 74.9142 22.2575 74.7549 22.4175Z" fill="#7FB376"/>
<path d="M44.8018 19.9451C42.726 19.9457 41.0442 21.6275 41.0442 23.7028C41.0448 25.7786 42.7266 27.4604 44.8018 27.4611C46.8777 27.4604 48.5595 25.7786 48.5595 23.7028C48.5595 21.6269 46.8777 19.9451 44.8018 19.9451ZM46.4114 25.3117C45.9976 25.7243 45.4331 25.9775 44.8025 25.9781C44.1719 25.9775 43.6073 25.7249 43.1935 25.3117C42.7803 24.8973 42.5277 24.3334 42.5271 23.7028C42.5277 23.0722 42.7803 22.5077 43.1935 22.0939C43.6073 21.6807 44.1719 21.4281 44.8025 21.4274C45.4331 21.4281 45.9976 21.6807 46.4114 22.0939C46.8246 22.5083 47.0772 23.0722 47.0778 23.7028C47.0772 24.3334 46.824 24.8979 46.4114 25.3117Z" fill="#F47653"/>
<path d="M19.5925 32.21C17.7285 32.2106 16.2184 33.7207 16.2178 35.5841C16.2184 37.4481 17.7285 38.9582 19.5925 38.9588C21.4565 38.9582 22.9666 37.4481 22.9672 35.5841C22.966 33.7201 21.4559 32.21 19.5925 32.21ZM21.0371 37.0287C20.6653 37.3993 20.1589 37.6266 19.5925 37.6272C19.0261 37.6272 18.5197 37.3993 18.1479 37.0287C17.7773 36.6569 17.55 36.1504 17.5494 35.5841C17.5494 35.0177 17.7773 34.5112 18.1479 34.1394C18.5197 33.7689 19.0261 33.5416 19.5925 33.541C20.1589 33.5416 20.6653 33.7689 21.0371 34.1394C21.4077 34.5112 21.6356 35.0177 21.6356 35.5841C21.635 36.1504 21.4077 36.6569 21.0371 37.0287Z" fill="#7FB376"/>
<path d="M125.946 26.936C125.05 26.936 124.323 27.6624 124.323 28.5585C124.323 29.4547 125.05 30.1811 125.946 30.1811C126.842 30.1811 127.568 29.4547 127.568 28.5585C127.568 27.6617 126.843 26.936 125.946 26.936ZM126.641 29.2528C126.462 29.4313 126.218 29.5406 125.946 29.5406C125.673 29.5406 125.43 29.4313 125.251 29.2528C125.072 29.0737 124.963 28.8303 124.963 28.5579C124.963 28.2856 125.072 28.0422 125.251 27.8631C125.429 27.6846 125.673 27.5753 125.946 27.5753C126.218 27.5753 126.461 27.6846 126.641 27.8631C126.819 28.0416 126.928 28.2856 126.928 28.5579C126.928 28.8303 126.819 29.0743 126.641 29.2528Z" fill="#39BDD4"/>
<path d="M25.8651 23.5675C26.1257 23.5675 26.3598 23.3248 26.3839 23.0277L26.4296 22.4823C26.4543 22.1853 26.7174 21.9222 27.0145 21.8974L27.5598 21.8517C27.8569 21.827 28.1002 21.5936 28.1002 21.3323C28.1002 21.0717 27.8575 20.8376 27.5598 20.8129L27.0145 20.7672C26.7174 20.7425 26.4543 20.4794 26.4296 20.1823L26.3839 19.6363C26.3592 19.3392 26.1257 19.0965 25.8651 19.0965C25.6045 19.0965 25.3703 19.3392 25.3456 19.6363L25.2999 20.1823C25.2752 20.4794 25.0121 20.7425 24.715 20.7672L24.1697 20.8129C23.8726 20.8376 23.6299 21.0711 23.6299 21.3323C23.6299 21.5929 23.8726 21.827 24.1697 21.8517L24.715 21.8974C25.0121 21.9222 25.2752 22.1853 25.2999 22.4823L25.3456 23.0277C25.3703 23.3242 25.6045 23.5675 25.8651 23.5675Z" fill="#39BDD4"/>
<path d="M10.3362 17.2967L9.96316 17.2658C9.76058 17.2492 9.58025 17.0688 9.56357 16.8662L9.53266 16.4932C9.51599 16.29 9.35604 16.1238 9.17816 16.1238C9.00028 16.1238 8.84035 16.29 8.82305 16.4932L8.79214 16.8662C8.77547 17.0694 8.59514 17.2492 8.39255 17.2658L8.0195 17.2967C7.8163 17.3134 7.65015 17.4734 7.65015 17.6513C7.65015 17.8297 7.8163 17.9891 8.0195 18.0058L8.39255 18.0366C8.59575 18.0533 8.77547 18.2337 8.79214 18.4363L8.82305 18.8093C8.83973 19.0125 8.99967 19.1786 9.17816 19.1786C9.35665 19.1786 9.51599 19.0125 9.53266 18.8093L9.56357 18.4363C9.58025 18.2331 9.76058 18.0533 9.96316 18.0366L10.3362 18.0058C10.5394 17.9891 10.7056 17.8291 10.7056 17.6513C10.7056 17.4734 10.5394 17.3134 10.3362 17.2967Z" fill="#7FB376"/>
<path d="M65.6151 37.0164L65.0716 36.9713C64.7757 36.9466 64.5133 36.6841 64.4892 36.3883L64.4441 35.8448C64.4194 35.5489 64.1865 35.3068 63.9271 35.3068C63.6677 35.3068 63.4348 35.5489 63.4101 35.8448L63.365 36.3883C63.3403 36.6841 63.0785 36.9466 62.7826 36.9713L62.2391 37.0164C61.9433 37.0411 61.7012 37.274 61.7012 37.5334C61.7012 37.7928 61.9433 38.0256 62.2391 38.0503L62.7826 38.0954C63.0785 38.1201 63.341 38.3826 63.365 38.6785L63.4101 39.222C63.4348 39.5178 63.6677 39.7599 63.9271 39.7599C64.1865 39.7599 64.4194 39.5178 64.4441 39.222L64.4892 38.6785C64.5139 38.3826 64.7764 38.1201 65.0716 38.0954L65.6151 38.0503C65.911 38.0256 66.153 37.7928 66.153 37.5334C66.153 37.274 65.911 37.0411 65.6151 37.0164Z" fill="#7FB376"/>
<path d="M77.5293 27.7698L78.1154 27.8186C78.4347 27.8451 78.7176 28.128 78.7442 28.4473L78.7929 29.0335C78.8195 29.3528 79.0709 29.614 79.3506 29.614C79.631 29.614 79.8818 29.3528 79.9084 29.0335L79.9572 28.4473C79.9837 28.128 80.2666 27.8451 80.5859 27.8186L81.1721 27.7698C81.4914 27.7433 81.7526 27.4919 81.7526 27.2121C81.7526 26.9323 81.4914 26.6809 81.1721 26.6544L80.5859 26.6056C80.2666 26.579 79.9837 26.2961 79.9572 25.9768L79.9084 25.3907C79.8818 25.0714 79.631 24.8101 79.3506 24.8101C79.0702 24.8101 78.8195 25.0714 78.7929 25.3907L78.7442 25.9768C78.7176 26.2961 78.4347 26.579 78.1154 26.6056L77.5293 26.6544C77.21 26.6809 76.9487 26.9323 76.9487 27.2121C76.9487 27.4919 77.21 27.7433 77.5293 27.7698Z" fill="#F47653"/>
<path d="M119.402 17.2918L118.706 17.2337C118.327 17.2022 117.991 16.8663 117.96 16.4876L117.902 15.7916C117.87 15.4123 117.572 15.1023 117.24 15.1023C116.907 15.1023 116.609 15.4123 116.577 15.7916L116.519 16.4876C116.488 16.8663 116.152 17.2022 115.773 17.2337L115.077 17.2918C114.698 17.3233 114.388 17.6216 114.388 17.9539C114.388 18.2868 114.698 18.5845 115.077 18.616L115.773 18.674C116.152 18.7055 116.488 19.0415 116.519 19.4201L116.577 20.1162C116.609 20.4954 116.907 20.8055 117.24 20.8055C117.572 20.8055 117.87 20.4954 117.902 20.1162L117.96 19.4201C117.991 19.0415 118.327 18.7055 118.706 18.674L119.402 18.616C119.781 18.5845 120.091 18.2862 120.091 17.9539C120.091 17.6216 119.781 17.3233 119.402 17.2918Z" fill="#7FB376"/>
<path d="M108.144 17.7778L107.742 17.7445C107.524 17.7266 107.33 17.5326 107.312 17.3146L107.279 16.9131C107.261 16.6945 107.09 16.516 106.897 16.516C106.705 16.516 106.534 16.6945 106.516 16.9131L106.482 17.3146C106.464 17.5326 106.271 17.7266 106.052 17.7445L105.651 17.7778C105.432 17.7957 105.254 17.968 105.254 18.1595C105.254 18.351 105.432 18.5233 105.651 18.5412L106.052 18.5746C106.271 18.5925 106.464 18.7864 106.482 19.0044L106.516 19.4053C106.534 19.6239 106.706 19.8024 106.897 19.8024C107.089 19.8024 107.261 19.6239 107.279 19.4053L107.312 19.0044C107.33 18.7858 107.524 18.5925 107.742 18.5746L108.144 18.5412C108.362 18.5233 108.541 18.351 108.541 18.1595C108.541 17.968 108.362 17.7963 108.144 17.7778Z" fill="#7FB376"/>
<path d="M49.6934 69.3956L54.5572 68.4401L54.8536 76.2933L49.9608 76.4779L49.6934 69.3956Z" fill="#D0F0FC"/>
<path d="M50.2284 83.5609L55.1509 84.1477L54.8538 76.2933L49.9609 76.478L50.2284 83.5609Z" fill="#C7F3F9"/>
<path d="M54.5571 68.4401C54.5571 68.4401 60.7643 66.9955 68.0604 67.93L80.7131 69.2757L80.941 75.3075L54.8536 76.2932L54.5571 68.4401Z" fill="#59E1EF"/>
<path d="M55.1506 84.1476C55.1506 84.1476 61.4492 85.1185 68.6538 83.6375L81.1689 81.3393L80.9409 75.3075L54.8535 76.2932L55.1506 84.1476Z" fill="#39BDD4"/>
<path d="M54.8534 76.2932L56.088 76.2463L55.7366 66.9497L48.4189 68.3869L48.7259 76.5248L49.0335 84.6621L56.4388 85.5447L56.088 76.2463L54.8534 76.2932L53.6187 76.3402L53.8615 82.7499L51.4225 82.459L51.1952 76.4315L50.9673 70.4041L53.3766 69.931L53.6187 76.3402L54.8534 76.2932Z" fill="#335687"/>
<path d="M80.9409 75.3075L82.1749 75.2605L81.9068 68.1603L68.1911 66.7014L68.0603 67.9299L68.2171 66.7045C66.3734 66.4686 64.604 66.3796 62.9809 66.3796C57.9626 66.3809 54.3384 67.2233 54.2766 67.2369L53.2834 67.4679L53.6188 76.3395L53.9542 85.2124L54.9622 85.368C55.0085 85.3748 57.0936 85.6948 60.2466 85.6948C62.6517 85.6948 65.6793 85.5088 68.9027 84.8467L68.6538 83.6368L68.8768 84.8517L82.443 82.3601L82.1749 75.2605L80.9409 75.3075L79.7062 75.3544L79.894 80.3177L68.4184 82.425L68.4049 82.4281C65.3927 83.0476 62.5238 83.2261 60.2466 83.2254C58.7538 83.2254 57.5148 83.1495 56.6551 83.0741C56.2252 83.0365 55.8905 82.9988 55.6657 82.971C55.5533 82.9574 55.4686 82.9457 55.4136 82.9383L55.3531 82.9296L55.3383 82.9278L55.1499 84.1488L56.3846 84.1019L56.0875 76.2475L55.7904 68.395L54.5558 68.4419L54.8356 69.645L54.8399 69.6438C54.9912 69.6086 58.3857 68.8508 62.9796 68.852C64.5125 68.852 66.179 68.936 67.9021 69.1565L67.9163 69.1583L79.5178 70.3924L79.7056 75.355L80.9409 75.3075Z" fill="#335687"/>
<path d="M42.7771 63.1396L42.8636 65.4248L69.2246 64.4286L98.5595 46.2456L85.9976 45.2191L42.7771 63.1396Z" fill="#C7F3F9"/>
<path d="M70.9217 51.4362L85.9975 45.2191L88.2351 45.4026L70.9106 55.7015L70.9217 51.4362Z" fill="#D0F0FC"/>
<path d="M42.777 63.1396L41.543 63.1865L41.6758 66.7058L69.5976 65.6509L102.397 45.3204L85.8005 43.9634L41.5103 62.328L41.543 63.1865L42.777 63.1396L43.2501 64.281L86.1945 46.4741L94.7215 47.1714L68.8508 63.2063L44.0512 64.1439L44.0117 63.0933L42.777 63.1396L43.2501 64.281L42.777 63.1396Z" fill="#335687"/>
<path d="M137.991 52.9154C137.991 52.9154 90.4166 49.3621 58.8934 47.5988C48.6593 47.0269 40.1168 46.6434 35.4439 46.6316C16.3746 46.5822 11.6028 55.0684 11.6028 55.0684L8.82964 59.3684C8.82964 59.3684 3.38459 61.5146 1.35815 65.7868C3.24069 70.0601 11.4193 73.9673 25.9756 73.4169C106.804 70.4783 97.1401 70.7562 100.069 70.6123C109.842 70.1324 117.259 67.6922 117.259 67.6922L138.494 61.254C140.425 60.7136 142.116 59.6228 142.844 58.3332C143.802 56.5347 143.13 55.158 142.437 54.5496C140.753 53.0988 137.991 52.9154 137.991 52.9154Z" fill="#D0F0FC"/>
<path d="M137.991 52.9154C137.991 52.9154 90.4165 49.3621 58.8933 47.5988C48.6592 47.0269 40.1174 46.6434 35.4438 46.6316C16.3745 46.5822 11.6027 55.0684 11.6027 55.0684L8.82959 59.3684C8.82959 59.3684 11.6564 61.9451 19.2088 62.3534C19.2088 62.3534 31.5373 64.1908 59.6018 62.6665L141.791 59.5604C142.232 59.1825 142.597 58.7705 142.843 58.3326C143.801 56.5341 143.129 55.1574 142.436 54.549C140.753 53.0988 137.991 52.9154 137.991 52.9154Z" fill="#39BDD4"/>
<path d="M33.6601 59.3233C33.6675 60.7395 32.5267 61.8932 31.1111 61.9013C29.6955 61.9087 28.5418 60.7685 28.5337 59.3517C28.5257 57.9367 29.6671 56.7824 31.0827 56.7749C32.499 56.7669 33.6527 57.9083 33.6601 59.3233Z" fill="#27B3C1"/>
<path d="M42.2414 59.2757C42.2488 60.6919 41.1086 61.8456 39.6924 61.8537C38.2768 61.8617 37.1231 60.7209 37.115 59.3047C37.107 57.8897 38.2484 56.7354 39.664 56.7273C41.0789 56.7193 42.2327 57.8607 42.2414 59.2757Z" fill="#27B3C1"/>
<path d="M50.8223 59.2269C50.8297 60.6431 49.689 61.7969 48.2734 61.8049C46.8578 61.8123 45.7034 60.6722 45.6953 59.2553C45.6879 57.8403 46.8287 56.686 48.2443 56.6786C49.66 56.6705 50.8137 57.8119 50.8223 59.2269Z" fill="#27B3C1"/>
<path d="M14.878 56.0987L12.1845 55.3056C12.1468 55.3624 12.1264 55.397 12.1221 55.4032L9.66333 59.2146C10.2068 59.571 11.3062 60.1793 13.0727 60.7167L14.878 56.0987Z" fill="#27B3C1"/>
<path d="M15.5086 56.2351L13.9287 60.9569C15.3468 61.3213 17.1194 61.6233 19.2996 61.7419L19.3058 61.7431L19.5621 56.8391L15.5086 56.2351Z" fill="#27B3C1"/>
<path d="M137.991 52.9153L138.083 51.6832C138.071 51.6832 90.5024 48.1299 58.9626 46.3654C48.7174 45.7935 40.1755 45.4087 35.4469 45.3957C35.392 45.3957 35.3352 45.3957 35.2778 45.3957C25.6316 45.3932 19.472 47.5518 15.7106 49.787C11.948 52.0198 10.6096 54.3105 10.5262 54.4625L11.6028 55.0678L10.5645 54.3982L7.79138 58.6982L8.82964 59.3677L8.37689 58.2183C8.32378 58.2399 6.894 58.8044 5.17144 59.9452C3.45505 61.0897 1.41435 62.8048 0.242091 65.2568L0 65.767L0.227917 66.2839C0.768342 67.5093 1.69292 68.634 2.94361 69.6383C4.82429 71.1434 7.45229 72.3947 10.835 73.2872C14.2184 74.1778 18.3615 74.7028 23.2766 74.7034C24.1666 74.7034 25.0813 74.6861 26.0219 74.6509H26.0201C66.4347 73.1816 84.2261 72.5164 92.2825 72.2002C96.3112 72.0421 97.9047 71.9716 98.6866 71.9309C99.0763 71.9105 99.2703 71.8969 99.4432 71.8852C99.6156 71.8735 99.7681 71.863 100.129 71.845C110.074 71.3546 117.578 68.8848 117.644 68.8644L117.258 67.6909L117.616 68.873L138.851 62.4348L138.493 61.2527L138.826 62.4423C139.909 62.1384 140.926 61.6838 141.803 61.102C142.678 60.5183 143.424 59.8093 143.919 58.9384L143.927 58.9236L143.933 58.9125C144.36 58.1145 144.555 57.3172 144.554 56.584C144.555 55.9232 144.398 55.3241 144.158 54.8263C143.917 54.3272 143.599 53.9264 143.25 53.6194L143.247 53.617L143.242 53.612C142.163 52.6918 140.894 52.2495 139.889 51.9907C139.385 51.8635 138.946 51.7882 138.624 51.7431C138.463 51.7208 138.332 51.7054 138.237 51.6961L138.123 51.6856L138.088 51.6825L138.073 51.6813L138.062 51.6807L138.051 51.6801L137.991 51.6788L137.991 52.9153V54.1506V52.9203L137.932 54.1494L137.991 54.1506V52.9203L137.932 54.1494L137.983 53.1006L137.913 54.1481L137.932 54.1494L137.983 53.1006L137.913 54.1481L137.918 54.1487C137.994 54.1537 138.638 54.2124 139.405 54.4186C140.175 54.62 141.058 54.985 141.63 55.4853L141.622 55.4779C141.719 55.5619 141.843 55.7113 141.932 55.8991C142.023 56.0881 142.084 56.3117 142.085 56.5859C142.084 56.8898 142.011 57.2678 141.754 57.7526L142.844 58.3332L141.768 57.726C141.536 58.1442 141.073 58.6259 140.437 59.0453C139.804 59.4665 139.009 59.8278 138.161 60.0644L138.149 60.0675L116.887 66.5143L116.873 66.5186L116.858 66.5235C116.48 66.6477 109.309 68.9236 100.008 69.3782C99.6365 69.3961 99.4506 69.4091 99.2752 69.4209C98.114 69.5011 96.6484 69.6117 25.9311 72.1823H25.9293C25.0189 72.2162 24.1351 72.2329 23.2772 72.2335C16.9595 72.2347 12.0604 71.3256 8.59984 69.9773C6.86924 69.3047 5.50001 68.5228 4.48957 67.7119C3.47728 66.9003 2.82938 66.0647 2.48906 65.2889L1.35875 65.7867L2.47481 66.316C3.32961 64.4952 5.02439 63.0012 6.53758 62.005C7.29109 61.5053 7.99089 61.1273 8.49549 60.8778C8.7481 60.753 8.95134 60.6604 9.08907 60.6005C9.15763 60.5702 9.20944 60.5486 9.2428 60.5344L9.27801 60.5202L9.28479 60.5177L9.18535 60.2688L9.28358 60.5177L9.28479 60.5171L9.18535 60.2682L9.28358 60.5171L9.65354 60.3713L12.6626 55.7058L12.6811 55.6737L12.0641 55.3266L12.6762 55.6817L12.6811 55.6737L12.0641 55.3266L12.6762 55.6817L12.6873 55.6638C12.817 55.4563 14.0585 53.5305 17.4542 51.635C20.8512 49.7419 26.4259 47.8681 35.279 47.8662H35.442C40.0594 47.8773 48.6031 48.2602 58.8261 48.8316C90.3264 50.5937 137.896 54.1463 137.901 54.1463L137.946 54.1494H137.993V52.9153H137.991Z" fill="#335687"/>
<path d="M138.315 33.063L112.245 52.9111C112.245 52.9111 114.789 55.0073 120 54.6374C123.595 54.3823 137.425 54.2896 137.425 54.2896L149.993 32.6213L138.315 33.063Z" fill="#59E1EF"/>
<path d="M138.316 33.0629L137.567 32.0803L110.256 52.8734L111.459 53.8653C111.539 53.9308 112.181 54.4434 113.402 54.9412C114.623 55.439 116.424 55.9183 118.786 55.9177C119.203 55.9177 119.637 55.9028 120.088 55.8707C120.941 55.8096 122.478 55.7558 124.27 55.7114C126.963 55.6447 130.256 55.5984 132.874 55.5687C134.183 55.5539 135.323 55.5434 136.137 55.536C136.949 55.5292 137.433 55.5261 137.434 55.5261L138.14 55.5212L152.186 31.3033L137.879 31.8437L137.568 32.0809L138.316 33.0629L138.362 34.2969L147.799 33.9406L136.357 53.6701L137.425 54.2902L137.416 53.055C137.415 53.055 133.955 53.0784 130.043 53.1334C128.087 53.1612 126.017 53.1964 124.208 53.2409C122.396 53.2859 120.856 53.3391 119.912 53.4051C119.519 53.4329 119.143 53.4459 118.786 53.4459C116.755 53.4453 115.286 53.0395 114.334 52.6523C113.858 52.4583 113.512 52.2687 113.296 52.1353C113.187 52.0686 113.111 52.0161 113.066 51.984L113.024 51.9525L113.021 51.95L112.569 52.517L113.03 51.9568L113.021 51.9494L112.568 52.5164L113.029 51.9562L112.244 52.9098L112.992 53.8924L139.063 34.0443L138.316 33.0629Z" fill="#335687"/>
<path d="M49.6934 69.3955C49.6934 69.3955 52.4307 66.0276 58.917 65.7824C65.4033 65.5372 87.1834 64.7139 87.1834 64.7139L125.602 84.7072L109.872 88.5791L49.6934 69.3955Z" fill="#C7F3F9"/>
<path d="M113.179 87.7651L65.5034 65.5336C62.7902 65.6361 60.4327 65.725 58.917 65.7825C52.4307 66.0277 49.6934 69.3956 49.6934 69.3956L109.873 88.5792L113.179 87.7651Z" fill="#D0F0FC"/>
<path d="M70.1714 66.5928C78.2988 66.2858 87.2297 65.948 87.2297 65.948L87.1827 64.7134L86.6127 65.809L122.126 84.2903L109.915 87.2957L50.0675 68.2178L49.3171 70.5716L109.828 89.8613L129.078 85.1229L87.4625 63.4664L87.1358 63.4787C87.1358 63.4787 78.2043 63.8165 70.0775 64.1235L70.1714 66.5928Z" fill="#335687"/>
<path d="M50.6516 70.1743L50.2044 69.8112L50.6454 70.1818L50.6516 70.1743L50.2044 69.8112L50.6454 70.1818C50.6491 70.1768 51.1612 69.5709 52.2531 68.8927L50.9499 66.7941C49.5004 67.6946 48.8018 68.5327 48.7339 68.616L50.6516 70.1743Z" fill="#335687"/>
<path d="M60.8112 66.9466C62.0193 66.9009 63.464 66.8466 65.0469 66.7867L64.9537 64.318C63.3713 64.3779 61.926 64.4323 60.718 64.478L60.8112 66.9466ZM54.4033 67.8613C55.4348 67.4883 56.6966 67.1832 58.2172 67.0609L58.0195 64.5984C56.2791 64.738 54.7961 65.0925 53.564 65.5384L54.4033 67.8613Z" fill="#335687"/>
<path d="M67.7029 66.6866C68.5101 66.6564 69.3371 66.6249 70.1721 66.5934L70.0789 64.1247C69.2438 64.1562 68.4175 64.1877 67.6096 64.218L67.7029 66.6866Z" fill="#335687"/>
</svg>
