<svg width="153" height="95" viewBox="0 0 153 95" fill="none" xmlns="http://www.w3.org/2000/svg">
<path d="M48.109 23.0599C48.109 21.6194 46.8626 20.4414 45.3387 20.4414H39.6257C38.1018 20.4414 36.8554 19.2627 36.8554 17.8222C36.8554 16.3818 38.1018 15.2037 39.6257 15.2037H40.0571C41.581 15.2037 42.8274 14.0251 42.8274 12.5846C42.8274 11.1441 41.581 9.96552 40.0571 9.96552H2.77033C1.24645 9.96552 0 11.1441 0 12.5846C0 14.0251 1.24645 15.2037 2.77033 15.2037H6.73319C8.25706 15.2037 9.50351 16.3823 9.50351 17.8222C9.50351 19.2627 10.7499 20.4414 12.2738 20.4414H18.644C20.1678 20.4414 21.4143 21.5689 21.4143 22.9476C21.4143 24.3258 20.1678 25.4539 18.644 25.4539H6.50524C4.98137 25.4539 3.73492 26.6325 3.73492 28.073C3.73492 29.5135 4.98137 30.6921 6.50524 30.6921H25.8425C27.3658 30.6921 28.6128 29.5641 28.6128 28.1858C28.6128 26.8076 29.8592 25.6796 31.3831 25.6796H45.3393C46.8626 25.6785 48.109 24.4998 48.109 23.0599Z" fill="#C7F3F9"/>
<path d="M132.635 26.3717C132.635 24.0595 130.634 22.167 128.188 22.167H124.492C122.046 22.167 120.044 20.2751 120.044 17.9623C120.044 15.6501 119.045 13.7576 117.824 13.7576C116.603 13.7576 115.604 11.8657 115.604 9.55295C115.604 7.24073 113.602 5.34827 111.156 5.34827H88.0248C85.5786 5.34827 83.5771 7.24018 83.5771 9.55295C83.5771 11.8652 85.5786 13.7576 88.0248 13.7576H95.1427C97.5889 13.7576 99.5903 15.6495 99.5903 17.9623C99.5903 20.2751 101.592 22.167 104.038 22.167H108.225C110.671 22.167 112.673 23.9777 112.673 26.1904C112.673 28.4031 111.808 30.2139 110.752 30.2139C109.695 30.2139 108.831 32.1058 108.831 34.4186C108.831 36.7314 110.832 38.6233 113.279 38.6233H122.987C125.433 38.6233 127.434 36.8125 127.434 34.5998C127.434 32.3871 128.605 30.5764 130.035 30.5764C131.465 30.5764 132.635 28.6845 132.635 26.3717Z" fill="#C7F3F9"/>
<path d="M91.526 10.9084C90.4063 10.9084 89.4996 11.8157 89.499 12.9354C89.499 14.0551 90.4063 14.9619 91.526 14.9624C92.6457 14.9624 93.5525 14.0551 93.553 12.9354C93.5525 11.8157 92.6452 10.9089 91.526 10.9084ZM92.3939 13.8033C92.1704 14.0262 91.8663 14.1624 91.526 14.1629C91.1858 14.1629 90.8817 14.0262 90.6582 13.8033C90.4352 13.5798 90.299 13.2756 90.2985 12.9354C90.2985 12.5952 90.4352 12.2911 90.6582 12.0676C90.8817 11.8446 91.1858 11.7084 91.526 11.7078C91.8663 11.7078 92.1704 11.8446 92.3939 12.0676C92.6168 12.2911 92.753 12.5952 92.7536 12.9354C92.753 13.2756 92.6162 13.5798 92.3939 13.8033Z" fill="#7FB376"/>
<path d="M109.603 13.15C108.373 13.15 107.377 14.1468 107.376 15.3766C107.377 16.6063 108.373 17.6026 109.603 17.6032C110.832 17.6026 111.829 16.6063 111.829 15.3766C111.829 14.1462 110.832 13.15 109.603 13.15ZM110.555 16.3295C110.31 16.5741 109.976 16.7242 109.602 16.7242C109.228 16.7242 108.894 16.5741 108.649 16.3295C108.404 16.0843 108.254 15.7496 108.254 15.376C108.254 15.0024 108.404 14.6683 108.649 14.4225C108.894 14.1779 109.228 14.0278 109.602 14.0278C109.976 14.0278 110.31 14.1779 110.555 14.4225C110.8 14.6677 110.95 15.0019 110.95 15.376C110.95 15.7496 110.801 16.0843 110.555 16.3295Z" fill="#39BDD4"/>
<path d="M117.788 13.2551C116.068 13.2556 114.673 14.6494 114.673 16.3706C114.673 18.0913 116.067 19.4857 117.788 19.4862C119.509 19.4857 120.903 18.0919 120.904 16.3706C120.903 14.65 119.509 13.2556 117.788 13.2551ZM119.122 17.7044C118.779 18.0468 118.311 18.2564 117.788 18.257C117.266 18.257 116.798 18.0468 116.455 17.7044C116.112 17.3613 115.903 16.8932 115.902 16.3706C115.903 15.848 116.112 15.3799 116.455 15.0369C116.798 14.6944 117.266 14.4848 117.788 14.4843C118.311 14.4848 118.779 14.6944 119.122 15.0369C119.465 15.3805 119.674 15.848 119.675 16.3706C119.674 16.8932 119.465 17.3613 119.122 17.7044Z" fill="#7FB376"/>
<path d="M129.821 17.1284C128.401 17.129 127.25 18.2798 127.25 19.7003C127.25 21.1208 128.401 22.2721 129.821 22.2727C131.242 22.2721 132.393 21.1213 132.393 19.7003C132.393 18.2798 131.242 17.1284 129.821 17.1284ZM130.923 20.8016C130.639 21.084 130.253 21.2575 129.821 21.2575C129.39 21.2575 129.004 21.084 128.72 20.8016C128.438 20.5181 128.264 20.1323 128.264 19.7003C128.264 19.2689 128.438 18.8825 128.72 18.5989C129.004 18.3165 129.389 18.143 129.821 18.143C130.253 18.143 130.639 18.3165 130.923 18.5989C131.205 18.8825 131.379 19.2683 131.379 19.7003C131.379 20.1323 131.206 20.5181 130.923 20.8016Z" fill="#7E69CC"/>
<path d="M35.9721 19.136C34.7824 19.136 33.8189 20.1 33.8184 21.2892C33.8189 22.4789 34.7824 23.4424 35.9721 23.443C37.1613 23.443 38.1253 22.4789 38.1253 21.2892C38.1253 20.1 37.1619 19.1365 35.9721 19.136ZM36.8945 22.2115C36.6571 22.4484 36.3341 22.5935 35.9727 22.5935C35.6113 22.5935 35.2878 22.4484 35.0504 22.2115C34.8135 21.9741 34.6684 21.6511 34.6684 21.2892C34.6684 20.9278 34.8135 20.6042 35.0504 20.3674C35.2878 20.1306 35.6108 19.9855 35.9727 19.9855C36.3341 19.9855 36.6576 20.1306 36.8945 20.3674C37.1313 20.6048 37.2764 20.9278 37.2764 21.2892C37.2758 21.6511 37.1307 21.9741 36.8945 22.2115Z" fill="#39BDD4"/>
<path d="M7.80485 24.8323C6.96425 24.8323 6.28376 25.5133 6.2832 26.3534C6.2832 27.194 6.96425 27.8745 7.80485 27.875C8.64546 27.875 9.32594 27.194 9.3265 26.3534C9.32594 25.5133 8.6449 24.8323 7.80485 24.8323ZM8.45643 27.005C8.28853 27.1723 8.06059 27.2746 7.80485 27.2746C7.54967 27.2746 7.32117 27.1717 7.15327 27.005C6.98593 26.8371 6.88364 26.6091 6.88364 26.3534C6.88364 26.0982 6.98649 25.8697 7.15327 25.7018C7.32117 25.5345 7.54911 25.4322 7.80485 25.4322C8.06004 25.4322 8.28853 25.535 8.45643 25.7018C8.62377 25.8697 8.72608 26.0976 8.72608 26.3534C8.72608 26.6091 8.62322 26.8376 8.45643 27.005Z" fill="#39BDD4"/>
<path d="M60.9557 14.1291L60.5659 14.0968C60.3541 14.079 60.1662 13.8911 60.1484 13.6793L60.1162 13.2901C60.0984 13.0783 59.9316 12.9048 59.7459 12.9048C59.5597 12.9048 59.3929 13.0783 59.3751 13.2901L59.3429 13.6793C59.3251 13.8911 59.1371 14.079 58.9253 14.0968L58.5362 14.1291C58.3243 14.1469 58.1509 14.3136 58.1509 14.4999C58.1509 14.6861 58.3243 14.8529 58.5362 14.8701L58.9253 14.9024C59.1371 14.9202 59.3251 15.1081 59.3429 15.3199L59.3751 15.7096C59.3929 15.9214 59.5597 16.0949 59.7459 16.0949C59.9322 16.0949 60.0989 15.9214 60.1162 15.7096L60.1484 15.3199C60.1662 15.1081 60.3541 14.9202 60.5659 14.9024L60.9557 14.8701C61.1675 14.8523 61.341 14.6856 61.341 14.4999C61.341 14.3142 61.1675 14.1469 60.9557 14.1291Z" fill="#7FB376"/>
<path d="M84.3877 2.25938L83.6694 2.19935C83.2785 2.16711 82.9316 1.82019 82.8994 1.42935L82.8393 0.711062C82.8071 0.31967 82.4991 0 82.1561 0C81.813 0 81.505 0.320226 81.4728 0.711062L81.4127 1.42935C81.3799 1.82019 81.0336 2.16711 80.6428 2.19935L79.9244 2.25938C79.5336 2.29163 79.2134 2.59965 79.2134 2.94323C79.2134 3.28625 79.5336 3.59422 79.9244 3.62647L80.6428 3.68653C81.0336 3.71933 81.3805 4.06569 81.4127 4.45653L81.4728 5.17482C81.505 5.56621 81.813 5.88588 82.1561 5.88588C82.4996 5.88588 82.8071 5.56621 82.8393 5.17482L82.8994 4.45653C82.9322 4.06569 83.2785 3.71877 83.6694 3.68653L84.3877 3.62647C84.779 3.59367 85.0987 3.28625 85.0987 2.94323C85.0987 2.59965 84.779 2.29163 84.3877 2.25938Z" fill="#7E69CC"/>
<path d="M107.742 25.2893L107.398 25.2604C107.211 25.2448 107.045 25.0786 107.029 24.8918L107 24.5476C106.985 24.3603 106.838 24.2074 106.673 24.2074C106.508 24.2074 106.361 24.3608 106.345 24.5476L106.317 24.8918C106.301 25.0791 106.135 25.2448 105.948 25.2604L105.604 25.2893C105.417 25.3048 105.264 25.4522 105.264 25.6167C105.264 25.7813 105.418 25.9286 105.604 25.9442L105.949 25.9731C106.136 25.9887 106.302 26.1549 106.317 26.3417L106.346 26.6858C106.362 26.8732 106.509 27.0261 106.673 27.0261C106.838 27.0261 106.985 26.8732 107.001 26.6858L107.03 26.3417C107.045 26.1543 107.212 25.9887 107.398 25.9731L107.743 25.9442C107.93 25.9286 108.083 25.7813 108.083 25.6167C108.082 25.4522 107.929 25.3048 107.742 25.2893Z" fill="#7FB376"/>
<path d="M65.5015 37.0077L71.2556 32.8792H135.872L139.76 37.4741L65.5015 37.0077Z" fill="#F47653"/>
<path d="M65.5012 37.0077L66.1494 37.9111L71.6128 33.9911H135.356L137.349 36.3473L65.5079 35.8958L65.5012 37.0077L66.1494 37.9111L65.5012 37.0077L65.494 38.1196L142.17 38.6011L136.388 31.7673H70.8973L62.0737 38.0979L65.494 38.1196L65.5012 37.0077Z" fill="#335687"/>
<path d="M1.24512 52.352L4.97169 42.3215L14.4579 41.0256L13.758 43.6174L8.49698 44.3429L6.42328 50.0982C6.42328 50.0982 4.95667 53.1815 1.24512 52.352Z" fill="#335687"/>
<path d="M151.207 36.8192L63.9251 36.8198C61.4372 36.8804 27.7747 36.5012 15.0445 38.5182C14.2022 38.65 12.9307 38.8156 12.1774 40.3234C12.0473 40.6464 6.00184 65.2669 5.31246 70.4873C5.18515 71.9294 5.14624 72.7478 5.14624 72.7478L5.13623 83.6851L121.544 83.6829L151.208 78.8683L151.207 36.8192Z" fill="#FC8B67"/>
<path d="M110.007 77.9749H29.2124V83.6851H110.007V77.9749Z" fill="#F47653"/>
<path d="M139.203 36.8192C98.4302 48.8656 73.3539 70.6491 61.2657 83.6834L56.1926 83.6846C65.675 72.5165 90.1359 48.5593 133.24 36.8192H139.203ZM29.7236 83.6846H51.9185C74.3085 55.7434 104.303 42.6456 123.111 36.8192L107.858 36.8198C60.6853 49.2971 35.773 76.3537 29.7236 83.6846Z" fill="#FEE5C7"/>
<path d="M56.7886 77.9749H34.8801C32.5356 80.385 30.8166 82.3608 29.7241 83.6851H51.919C53.5046 81.7054 55.1329 79.8079 56.7886 77.9749Z" fill="#FFB776"/>
<path d="M61.3949 77.9749C59.3301 80.1014 57.5938 82.0356 56.1934 83.6851L61.2664 83.684C62.896 81.9272 64.7701 80.0064 66.8794 77.9755H61.3949V77.9749Z" fill="#FFB776"/>
<path d="M23.1112 65.1191C18.8142 70.1649 13.9929 70.4873 13.9929 70.4873H10.0234C10.6956 63.2082 12.9844 51.4331 16.1378 43.1227C19.5936 42.6974 27.4348 42.1931 33.3041 41.8673V59.5717C29.1961 60.4001 25.7242 62.0524 23.1112 65.1191Z" fill="#3F638E"/>
<path d="M41.9711 58.8423C40.609 58.8423 39.2886 58.884 38.0088 58.9679V41.6199C39.2697 41.5604 40.1476 41.5254 40.4394 41.5226C40.857 41.5226 51.3473 41.5126 65.7204 41.5026V58.8423C54.0542 58.8423 44.5496 58.8423 41.9711 58.8423Z" fill="#3F638E"/>
<path d="M70.4268 58.8423V41.4987C76.773 41.4937 83.6858 41.487 90.7125 41.482C93.1809 41.4792 95.6616 41.4787 98.1378 41.4726V58.8423C89.3542 58.8423 79.4677 58.8423 70.4268 58.8423Z" fill="#3F638E"/>
<path d="M123.781 58.8423C123.781 58.8423 114.837 58.8423 102.843 58.8423V41.4698C112.835 41.4609 122.514 41.4537 130.556 41.447V58.4999C128.583 58.735 126.528 58.8423 123.781 58.8423Z" fill="#3F638E"/>
<path d="M141.233 56.455C138.836 56.9676 136.939 57.3868 135.263 57.7231V41.4431C139.88 41.4387 143.739 41.4342 146.504 41.4342V55.198C144.853 55.6294 143.076 56.0625 141.233 56.455Z" fill="#3F638E"/>
<path d="M115.676 77.3467L121.911 83.6234L121.543 83.6829L118.454 83.6851L115.676 77.3467Z" fill="#F47653"/>
<path d="M151.208 36.8192V35.7073L63.9255 35.7079H63.911L63.8977 35.7085C63.6692 35.714 63.071 35.7162 62.2065 35.7157C61.342 35.7157 60.2006 35.714 58.8419 35.714C53.6214 35.714 45.1876 35.7368 36.7877 35.9603C32.5874 36.072 28.395 36.2338 24.6117 36.4684C20.8273 36.7036 17.4566 37.0099 14.8708 37.4191H14.8725C14.4633 37.4858 13.8045 37.567 13.1001 37.9006C12.7482 38.0679 12.3857 38.3025 12.0538 38.6227C11.7213 38.9424 11.4233 39.3444 11.1832 39.8258L11.1631 39.8659L11.1465 39.907C11.1248 39.9621 11.1203 39.9787 11.1137 39.9988C11.0937 40.0632 11.0825 40.1061 11.062 40.1811C10.9174 40.7226 10.466 42.5339 9.85054 45.059C8.92877 48.8418 7.64728 54.1956 6.53315 59.0797C5.97608 61.522 5.46071 63.847 5.05208 65.8029C4.64346 67.762 4.34269 69.3376 4.20982 70.3417L4.20648 70.3656L4.20426 70.3895C4.07527 71.8483 4.03525 72.6817 4.03469 72.695L4.03357 72.7206L4.02246 84.797L121.633 84.7948L152.319 79.8146V35.7073H151.207V36.8192H150.095V77.9221L121.453 82.571L6.24794 82.5732L6.25739 72.749L5.14548 72.7478L6.25629 72.8006L6.25795 72.7679C6.26685 72.6033 6.30965 71.8316 6.41973 70.5846L5.31228 70.4868L6.41474 70.6324C6.4948 70.0259 6.66158 69.0813 6.89063 67.9205C7.69399 63.8476 9.25899 57.0732 10.635 51.2974C11.3233 48.4087 11.9643 45.7668 12.4402 43.831C12.6781 42.863 12.8749 42.0719 13.015 41.5154C13.0851 41.2374 13.1412 41.0178 13.1801 40.8672C13.1996 40.7921 13.2152 40.7337 13.2252 40.6976L13.2346 40.6648L12.8644 40.5552L13.2319 40.6737L13.2346 40.6648L12.8644 40.5552L13.2319 40.6737L12.3151 40.3779L13.2085 40.7382L13.2319 40.6737L12.3151 40.3779L13.2085 40.7382L12.1772 40.3223L13.1718 40.8193C13.3086 40.5469 13.452 40.3629 13.596 40.2234C13.8128 40.016 14.0424 39.8959 14.3149 39.8041C14.5867 39.7135 14.8914 39.6652 15.2161 39.6157L15.2177 39.6151C17.6806 39.2243 21.0047 38.9196 24.7485 38.6872C35.9882 37.9895 51.024 37.9362 58.8407 37.9367C60.1978 37.9367 61.3381 37.9384 62.2054 37.9384C63.0782 37.9384 63.6642 37.9373 63.9511 37.93L63.9238 36.8187V37.9306H63.9244L151.207 37.93L151.207 36.8192H150.095H151.208Z" fill="#335687"/>
<path d="M36.7054 93.8897C42.0442 92.8117 45.4973 87.6113 44.4198 82.2747C43.3424 76.9353 38.1425 73.4834 32.8043 74.5608C27.4654 75.6383 24.0124 80.837 25.0893 86.1747C26.1667 91.5152 31.3671 94.9677 36.7054 93.8897Z" fill="#335687"/>
<path d="M110.561 93.8897C115.898 92.8117 119.351 87.6113 118.275 82.2747C117.196 76.9353 111.998 73.4834 106.659 74.5608C101.319 75.6383 97.8664 80.837 98.9433 86.1747C100.021 91.5152 105.221 94.9677 110.561 93.8897Z" fill="#335687"/>
<path d="M33.9663 80.3294C36.1223 79.8929 38.2166 81.2851 38.6485 83.4372C39.0811 85.5871 37.6929 87.6852 35.5397 88.1183C33.3898 88.5497 31.296 87.156 30.8585 85.0083C30.4249 82.8567 31.8153 80.7602 33.9663 80.3294Z" fill="#9AABDC"/>
<path d="M107.82 80.3294C109.976 79.8929 112.071 81.2851 112.503 83.4372C112.936 85.5871 111.546 87.6852 109.396 88.1183C107.244 88.5497 105.15 87.156 104.714 85.0083C104.28 82.8567 105.669 80.7602 107.82 80.3294Z" fill="#9AABDC"/>
<path d="M95.5137 83.8953L95.0662 83.9214L95.5143 83.898L95.5137 83.8953L95.0662 83.9214L95.5143 83.898C95.5143 83.8947 95.5104 83.8213 95.5104 83.6874C95.5087 83.0541 95.5999 81.0877 96.5083 78.9445C96.962 77.8709 97.6158 76.7523 98.5615 75.7094C99.5082 74.6664 100.746 73.6951 102.403 72.9151L101.456 70.9026C99.5388 71.8038 98.0494 72.9624 96.9142 74.215C95.209 76.0952 94.304 78.1706 93.8253 79.9102C93.3466 81.652 93.2871 83.0663 93.2871 83.6874C93.2871 83.8869 93.2932 84.0048 93.2943 84.0248L95.5137 83.8953Z" fill="#335687"/>
<path d="M103.734 72.4431L103.602 72.1819L103.731 72.4448L103.734 72.4431L103.602 72.1819L103.731 72.4448C103.758 72.4309 104.444 72.1012 105.579 71.8588L105.114 69.684C103.667 69.9936 102.799 70.4239 102.735 70.4562L103.734 72.4431Z" fill="#335687"/>
<path d="M109.756 71.7171C110.389 71.8055 111.056 71.9484 111.75 72.1635L112.408 70.0392C111.595 69.7874 110.81 69.6189 110.064 69.5144L109.756 71.7171Z" fill="#335687"/>
<path d="M49.5643 84.0249C49.5654 84.0048 49.5715 83.8875 49.5715 83.6879C49.5698 82.8612 49.4686 80.6191 48.3984 78.0795C47.8625 76.8108 47.0803 75.4687 45.9444 74.2161C44.8092 72.9636 43.3198 71.805 41.4028 70.9037L40.4561 72.9163C42.1117 73.6963 43.3504 74.6676 44.2971 75.7105C45.7148 77.2733 46.4793 79.0135 46.8896 80.5017C47.2993 81.9878 47.3488 83.2143 47.3482 83.6885C47.3482 83.7647 47.3471 83.8219 47.346 83.857L47.3449 83.8936V83.8992L47.7891 83.922L47.3449 83.8959V83.8992L47.7891 83.9214L47.3449 83.8953L49.5643 84.0249Z" fill="#335687"/>
<path d="M40.1231 70.4562C40.0581 70.4239 39.1902 69.9936 37.7431 69.684L37.2783 71.8588C37.8832 71.9878 38.3608 72.1418 38.6793 72.2597C38.8383 72.3186 38.9579 72.3687 39.0329 72.4015L39.1124 72.4376L39.1269 72.4443L39.2547 72.1819L39.1235 72.4426L39.1269 72.4443L39.2547 72.1819L39.1235 72.4426L40.1231 70.4562Z" fill="#335687"/>
<path d="M32.7941 69.515C32.048 69.6195 31.263 69.7879 30.4502 70.0398L31.1079 72.1641C31.8023 71.9489 32.4689 71.806 33.1016 71.7176L32.7941 69.515Z" fill="#335687"/>
</svg>
