<svg width="204" height="90" viewBox="0 0 204 90" fill="none" xmlns="http://www.w3.org/2000/svg">
<path d="M177.326 22.4153C177.326 20.0874 175.311 18.1821 172.849 18.1821H163.614C161.152 18.1821 159.137 16.2774 159.137 13.9489C159.137 11.621 161.152 9.71571 163.614 9.71571H164.311C166.774 9.71571 168.789 7.81097 168.789 5.48252C168.789 3.15463 166.774 1.24933 164.311 1.24933H104.041C101.578 1.24933 99.5635 3.15407 99.5635 5.48252C99.5635 7.81097 101.578 9.71571 104.041 9.71571H110.447C112.91 9.71571 114.925 11.6205 114.925 13.9489C114.925 16.2768 116.94 18.1821 119.402 18.1821H129.698C132.161 18.1821 134.176 20.0051 134.176 22.2328C134.176 24.4605 132.161 26.2835 129.698 26.2835H110.077C107.615 26.2835 105.6 28.1883 105.6 30.5167C105.6 32.8446 107.615 34.7499 110.077 34.7499H141.334C143.797 34.7499 145.812 32.9269 145.812 30.6992C145.812 28.4715 147.827 26.6485 150.29 26.6485H172.849C175.311 26.6485 177.326 24.7432 177.326 22.4153Z" fill="#C7F3F9"/>
<path d="M84.4267 21.8522C84.4267 19.5243 82.4117 17.619 79.9489 17.619H76.2284C73.7656 17.619 71.7506 15.7142 71.7506 13.3858C71.7506 11.0573 70.7448 9.1526 69.5151 9.1526C68.2853 9.1526 67.2795 7.24786 67.2795 4.91941C67.2795 2.59096 65.2645 0.686218 62.8017 0.686218H39.5144C37.0516 0.686218 35.0366 2.59096 35.0366 4.91941C35.0366 7.24786 37.0516 9.1526 39.5144 9.1526H46.6806C49.1433 9.1526 51.1584 11.0573 51.1584 13.3858C51.1584 15.7137 53.1734 17.619 55.6361 17.619H59.8509C62.3137 17.619 64.3287 19.442 64.3287 21.6697C64.3287 23.8974 63.4583 25.7204 62.3948 25.7204C61.3313 25.7204 60.4604 27.6252 60.4604 29.9536C60.4604 32.2821 62.4754 34.1868 64.9382 34.1868H74.7121C77.1749 34.1868 79.1899 32.3638 79.1899 30.1361C79.1899 27.9084 80.3681 26.0854 81.8083 26.0854C83.2485 26.0854 84.4267 24.1806 84.4267 21.8522Z" fill="#C7F3F9"/>
<path d="M39.5666 13.7966C38.2025 13.7966 37.0977 14.9021 37.0977 16.2656C37.0982 17.6296 38.2031 18.7345 39.5666 18.7351C40.9306 18.7345 42.0355 17.6296 42.0355 16.2656C42.0355 14.9021 40.9306 13.7972 39.5666 13.7966ZM40.6239 17.3229C40.3519 17.5944 39.9813 17.7606 39.5666 17.7606C39.1524 17.7606 38.7813 17.5938 38.5093 17.3229C38.2378 17.0509 38.0716 16.6803 38.0716 16.2656C38.0721 15.8514 38.2384 15.4808 38.5093 15.2083C38.7813 14.9368 39.1518 14.7706 39.5666 14.7706C39.9808 14.7711 40.3519 14.9374 40.6239 15.2083C40.8954 15.4803 41.0616 15.8508 41.0616 16.2656C41.0616 16.6803 40.8954 17.0509 40.6239 17.3229Z" fill="#F47653"/>
<path d="M21.7524 23.2689C20.2058 23.2694 18.9526 24.5221 18.9526 26.0686C18.9532 27.6151 20.2058 28.8683 21.7524 28.8683C23.2989 28.8678 24.5521 27.6151 24.5521 26.0686C24.5521 24.5221 23.2989 23.2694 21.7524 23.2689ZM22.9513 27.2675C22.6429 27.5754 22.2225 27.764 21.7524 27.764C21.2822 27.764 20.8618 27.5754 20.5534 27.2675C20.2456 26.9591 20.057 26.5388 20.057 26.0686C20.0575 25.5984 20.2456 25.1781 20.5534 24.8697C20.8618 24.5618 21.2822 24.3732 21.7524 24.3732C22.222 24.3738 22.6429 24.5624 22.9513 24.8697C23.2591 25.1781 23.4478 25.5984 23.4478 26.0686C23.4472 26.5388 23.2586 26.9591 22.9513 27.2675Z" fill="#7E69CC"/>
<path d="M140.367 16.9446C140.366 15.5654 139.249 14.4476 137.87 14.4476C136.491 14.4482 135.373 15.5654 135.373 16.9446C135.374 18.3237 136.491 19.4415 137.87 19.4415C139.249 19.4415 140.367 18.3243 140.367 16.9446ZM138.939 18.0136C138.664 18.2879 138.289 18.4564 137.87 18.4564C137.451 18.4558 137.076 18.2879 136.801 18.0136C136.527 17.7383 136.358 17.3638 136.358 16.9446C136.358 16.5253 136.527 16.1503 136.801 15.8755C137.076 15.6012 137.451 15.4327 137.87 15.4327C138.289 15.4327 138.664 15.6012 138.939 15.8755C139.213 16.1509 139.382 16.5253 139.382 16.9446C139.382 17.3638 139.213 17.7388 138.939 18.0136Z" fill="#39BDD4"/>
<path d="M126.528 20.1669C125.67 20.1669 124.975 20.8626 124.975 21.7207C124.975 22.5793 125.67 23.2745 126.528 23.2745C127.386 23.2745 128.082 22.5787 128.082 21.7207C128.082 20.8626 127.386 20.1674 126.528 20.1669ZM127.193 22.3862C127.022 22.5569 126.789 22.6616 126.528 22.6616C126.267 22.6616 126.034 22.5569 125.862 22.3862C125.692 22.2149 125.587 21.9815 125.587 21.7207C125.587 21.4598 125.692 21.2264 125.862 21.0552C126.034 20.8844 126.267 20.7798 126.528 20.7798C126.789 20.7798 127.022 20.8844 127.193 21.0552C127.364 21.2264 127.469 21.4598 127.469 21.7207C127.469 21.9815 127.364 22.2149 127.193 22.3862Z" fill="#7E69CC"/>
<path d="M98.6873 23.0791C100.463 23.0786 101.902 21.6395 101.903 19.8635C101.902 18.0875 100.463 16.6484 98.6873 16.6479C96.9113 16.6484 95.4722 18.0875 95.4717 19.8635C95.4717 21.6401 96.9107 23.0791 98.6873 23.0791ZM97.3104 18.4871C97.6647 18.134 98.1471 17.9173 98.6873 17.9168C99.2268 17.9173 99.7099 18.134 100.064 18.4871C100.417 18.8414 100.634 19.3245 100.635 19.8641C100.634 20.4036 100.417 20.8867 100.064 21.241C99.7099 21.5942 99.2268 21.8108 98.6873 21.8113C98.1477 21.8113 97.6647 21.5942 97.3104 21.241C96.9572 20.8867 96.7406 20.4036 96.74 19.8641C96.74 19.3239 96.9566 18.8414 97.3104 18.4871Z" fill="#7FB376"/>
<path d="M89.2335 10.3622C88.5316 10.3622 87.9629 10.9309 87.9629 11.6328C87.9629 12.3346 88.5316 12.9033 89.2335 12.9033C89.9354 12.9033 90.504 12.3346 90.504 11.6328C90.5035 10.9309 89.9354 10.3622 89.2335 10.3622ZM89.777 12.1768C89.637 12.3167 89.4461 12.4024 89.2329 12.4024C89.0196 12.4024 88.8288 12.3167 88.6889 12.1768C88.5489 12.0369 88.4638 11.846 88.4633 11.6328C88.4633 11.4195 88.5489 11.2286 88.6889 11.0887C88.8288 10.9493 89.0196 10.8637 89.2329 10.8631C89.4461 10.8631 89.637 10.9488 89.777 11.0887C89.9163 11.2286 90.002 11.4195 90.0025 11.6328C90.0025 11.846 89.9169 12.0369 89.777 12.1768Z" fill="#7E69CC"/>
<path d="M178.292 23.7301C177.463 23.7301 176.792 24.4012 176.792 25.2296C176.792 26.058 177.463 26.7291 178.292 26.7291C179.12 26.7291 179.791 26.058 179.791 25.2296C179.791 24.4018 179.12 23.7307 178.292 23.7301ZM178.934 25.8716C178.768 26.0362 178.543 26.1375 178.292 26.1375C178.04 26.1375 177.815 26.0362 177.65 25.8716C177.485 25.7065 177.384 25.4815 177.384 25.2296C177.384 24.9777 177.485 24.7527 177.65 24.5876C177.815 24.423 178.04 24.3217 178.292 24.3217C178.543 24.3217 178.768 24.423 178.934 24.5876C179.098 24.7527 179.199 24.9777 179.199 25.2296C179.199 25.4815 179.099 25.7065 178.934 25.8716Z" fill="#39BDD4"/>
<path d="M187.611 25.7708C185.955 25.7714 184.613 27.1125 184.613 28.7681C184.614 30.4238 185.955 31.7655 187.611 31.7655C189.266 31.7649 190.608 30.4238 190.608 28.7681C190.608 27.1125 189.266 25.7714 187.611 25.7708ZM188.894 30.0516C188.564 30.3807 188.114 30.5828 187.611 30.5833C187.107 30.5828 186.657 30.3813 186.327 30.0516C185.997 29.7213 185.796 29.2713 185.795 28.7681C185.795 28.2649 185.997 27.8149 186.327 27.4847C186.657 27.155 187.107 26.9535 187.611 26.9529C188.114 26.9535 188.564 27.155 188.894 27.4847C189.224 27.8149 189.425 28.2649 189.426 28.7681C189.426 29.2713 189.224 29.7213 188.894 30.0516Z" fill="#7FB376"/>
<path d="M170.78 16.6703L170.212 16.6227C169.903 16.597 169.629 16.3233 169.603 16.0138L169.555 15.4456C169.53 15.1367 169.286 14.8837 169.015 14.8837C168.744 14.8837 168.501 15.1367 168.475 15.4456L168.428 16.0138C168.402 16.3227 168.128 16.597 167.819 16.6227L167.25 16.6703C166.941 16.6961 166.688 16.9395 166.688 17.2104C166.688 17.4813 166.941 17.7254 167.25 17.7506L167.819 17.7982C168.128 17.8239 168.402 18.0982 168.428 18.4071L168.475 18.9753C168.501 19.2842 168.744 19.5372 169.015 19.5372C169.287 19.5372 169.53 19.2842 169.555 18.9753L169.603 18.4071C169.629 18.0982 169.903 17.8239 170.212 17.7982L170.78 17.7506C171.089 17.7248 171.342 17.4819 171.342 17.2104C171.342 16.939 171.09 16.6961 170.78 16.6703Z" fill="#39BDD4"/>
<path d="M76.7503 11.8214C77.0285 11.7984 77.2557 11.5796 77.2557 11.3355C77.2557 11.0915 77.0285 10.8726 76.7503 10.8497L76.2398 10.8072C75.9616 10.7842 75.7154 10.5374 75.6924 10.2597L75.6499 9.74872C75.6269 9.47053 75.4081 9.24329 75.164 9.24329C74.92 9.24329 74.7011 9.47053 74.6782 9.74872L74.6356 10.2597C74.6127 10.5379 74.3659 10.7842 74.0882 10.8072L73.5772 10.8497C73.299 10.8726 73.0718 11.0915 73.0718 11.3355C73.0718 11.5796 73.299 11.7984 73.5772 11.8214L74.0882 11.8639C74.3664 11.8869 74.6127 12.1337 74.6356 12.4113L74.6782 12.9224C74.7011 13.2005 74.92 13.4278 75.164 13.4278C75.4081 13.4278 75.6269 13.2005 75.6499 12.9224L75.6924 12.4113C75.7154 12.1331 75.9622 11.8869 76.2398 11.8639L76.7503 11.8214Z" fill="#F47653"/>
<path d="M105.071 3.84869C105.071 3.61249 104.851 3.40091 104.581 3.37852L104.087 3.3371C103.818 3.31471 103.58 3.07627 103.557 2.80705L103.516 2.31281C103.493 2.04358 103.282 1.82361 103.046 1.82361C102.809 1.82361 102.598 2.04358 102.575 2.31281L102.534 2.80705C102.512 3.07627 102.273 3.31471 102.004 3.3371L101.51 3.37852C101.24 3.40091 101.021 3.61249 101.021 3.84869C101.021 4.0849 101.24 4.29647 101.51 4.31886L102.004 4.36028C102.273 4.38267 102.512 4.62111 102.534 4.89034L102.575 5.38457C102.598 5.6538 102.809 5.87377 103.046 5.87377C103.282 5.87377 103.493 5.6538 103.516 5.38457L103.557 4.89034C103.58 4.62111 103.818 4.38267 104.087 4.36028L104.581 4.31886C104.85 4.29647 105.071 4.0849 105.071 3.84869Z" fill="#7E69CC"/>
<path d="M116.317 6.39597L116.384 5.59389C116.421 5.1573 116.808 4.76998 117.245 4.73359L118.047 4.66698C118.483 4.6306 118.841 4.28693 118.841 3.90352C118.841 3.52011 118.484 3.17644 118.047 3.14006L117.245 3.07345C116.808 3.03707 116.421 2.64974 116.384 2.21315L116.317 1.41107C116.281 0.974484 115.937 0.616821 115.554 0.616821C115.17 0.616821 114.827 0.973924 114.79 1.41107L114.723 2.21315C114.687 2.64974 114.3 3.03707 113.863 3.07345L113.061 3.14006C112.624 3.17644 112.267 3.52011 112.267 3.90352C112.267 4.28693 112.624 4.6306 113.061 4.66698L113.863 4.73359C114.3 4.76998 114.687 5.1573 114.723 5.59389L114.79 6.39597C114.827 6.83255 115.17 7.19022 115.554 7.19022C115.937 7.19022 116.281 6.83311 116.317 6.39597Z" fill="#7FB376"/>
<path d="M57.3247 12.9918L56.7045 12.9403C56.367 12.9123 56.0676 12.6128 56.0396 12.2753L55.9881 11.6552C55.9601 11.3171 55.6943 11.0411 55.3976 11.0411C55.1009 11.0411 54.8356 11.3176 54.8071 11.6552L54.7556 12.2753C54.7276 12.6128 54.4282 12.9123 54.0906 12.9403L53.4705 12.9918C53.1324 13.0198 52.8564 13.2856 52.8564 13.5823C52.8564 13.8789 53.133 14.1448 53.4705 14.1728L54.0906 14.2243C54.4282 14.2523 54.7276 14.5517 54.7556 14.8892L54.8071 15.5094C54.8351 15.8475 55.1009 16.1234 55.3976 16.1234C55.6943 16.1234 55.9601 15.8469 55.9881 15.5094L56.0396 14.8892C56.0676 14.5517 56.367 14.2523 56.7045 14.2243L57.3247 14.1728C57.6628 14.1448 57.9387 13.8789 57.9387 13.5823C57.9387 13.2856 57.6628 13.0198 57.3247 12.9918Z" fill="#39BDD4"/>
<path d="M19.0881 2.91112L19.1217 2.507C19.1402 2.28703 19.3349 2.09169 19.5555 2.07377L19.9596 2.04019C20.1796 2.02172 20.3598 1.84877 20.3598 1.65566C20.3598 1.46256 20.1796 1.28904 19.9596 1.27113L19.5555 1.23755C19.3355 1.21908 19.1402 1.02429 19.1217 0.804321L19.0881 0.400201C19.0696 0.180229 18.8967 0 18.7036 0C18.5105 0 18.337 0.180229 18.319 0.400201L18.2855 0.804321C18.267 1.02429 18.0722 1.21964 17.8517 1.23755L17.4476 1.27113C17.2276 1.2896 17.0474 1.46256 17.0474 1.65566C17.0474 1.84877 17.2276 2.02228 17.4476 2.04019L17.8517 2.07377C18.0716 2.09225 18.267 2.28703 18.2855 2.507L18.319 2.91112C18.3375 3.13109 18.5105 3.31133 18.7036 3.31133C18.8967 3.31133 19.0696 3.13109 19.0881 2.91112Z" fill="#39BDD4"/>
<path d="M104.093 33.1127H99.9893V84.6879H104.093V33.1127Z" fill="#3F638E"/>
<path d="M27.1978 86.3671C27.1978 88.1436 25.7582 89.5832 23.9828 89.5832C22.2062 89.5832 20.7666 88.1436 20.7666 86.3671C20.7666 84.5905 22.2062 83.1509 23.9828 83.1509C25.7582 83.1509 27.1978 84.591 27.1978 86.3671Z" fill="#335687"/>
<path d="M32.1214 89.5832C33.8977 89.5832 35.3376 88.1433 35.3376 86.3671C35.3376 84.5908 33.8977 83.1509 32.1214 83.1509C30.3452 83.1509 28.9053 84.5908 28.9053 86.3671C28.9053 88.1433 30.3452 89.5832 32.1214 89.5832Z" fill="#335687"/>
<path d="M82.9953 86.3671C82.9953 88.1436 81.5551 89.5832 79.7791 89.5832C78.0031 89.5832 76.5635 88.1436 76.5635 86.3671C76.5635 84.5905 78.0031 83.1509 79.7791 83.1509C81.5551 83.1509 82.9953 84.591 82.9953 86.3671Z" fill="#335687"/>
<path d="M91.1344 86.3671C91.1344 88.1436 89.6948 89.5832 87.9182 89.5832C86.1428 89.5832 84.7026 88.1436 84.7026 86.3671C84.7026 84.5905 86.1428 83.1509 87.9182 83.1509C89.6948 83.1509 91.1344 84.591 91.1344 86.3671Z" fill="#335687"/>
<path d="M98.9283 33.1127H28.8626C28.8626 33.1127 19.8718 38.9943 10.3828 47.9835C2.16493 55.7681 -4.71799 68.6115 8.66277 79.6963C10.731 81.4113 11.5235 83.0076 12.5831 84.6879H98.9283V33.1127Z" fill="#41C9E0"/>
<path d="M25.2632 35.6326L29.7074 39.2585H98.929V33.1127H28.8628L25.2632 35.6326Z" fill="#59E1EF"/>
<path d="M8.66273 79.6963C10.7315 81.4113 11.5235 83.0076 12.583 84.6879H98.9283V64.7673H1.14955C0.850656 69.7024 2.8332 74.8664 8.66273 79.6963Z" fill="#39BDD4"/>
<path d="M98.9287 64.7673H1.1499V67.0684H98.9287V64.7673Z" fill="#E8F0FC"/>
<path d="M15.6269 62.7154C15.3773 51.4784 27.6123 40.4916 27.6123 40.4916L23.3075 37.0829C19.8607 39.6794 15.187 43.4324 10.3835 47.9835C6.2471 51.9016 2.44993 57.102 1.40381 62.7154H15.6269Z" fill="#3F638E"/>
<path d="M18.8834 62.7154C18.8834 62.7154 17.0772 52.4696 29.9195 41.133H35.3371V62.7154H18.8834Z" fill="#3F638E"/>
<path d="M95.5013 41.1336H56.1997V62.716H95.5013V41.1336Z" fill="#3F638E"/>
<path d="M53.1945 41.1336H38.0444V76.244H53.1945V41.1336Z" fill="#3F638E"/>
<path d="M17.5569 78.4722H7.28369C7.72028 78.8819 8.17309 79.2922 8.66341 79.6968C10.7321 81.4118 11.5242 83.0082 12.5837 84.6885H19.2735C19.2735 83.4923 19.2735 81.5249 19.2735 80.4099C19.2735 78.7302 17.5569 78.4722 17.5569 78.4722Z" fill="#27B3C1"/>
<path d="M73.3916 78.4722H38.6618C38.6618 78.4722 36.9463 78.7302 36.9463 80.4094C36.9463 81.5243 36.9463 83.4923 36.9463 84.6879H75.1077C75.1077 83.4918 75.1077 81.5243 75.1077 80.4094C75.1071 78.7302 73.3916 78.4722 73.3916 78.4722Z" fill="#27B3C1"/>
<path d="M98.929 78.4722H94.3611C94.3611 78.4722 92.6455 78.7302 92.6455 80.4094C92.6455 81.5243 92.6455 83.4923 92.6455 84.6879H98.9295V78.4722H98.929Z" fill="#27B3C1"/>
<path d="M176.636 86.3671C176.636 88.1436 178.076 89.5832 179.852 89.5832C181.628 89.5832 183.068 88.1436 183.068 86.3671C183.068 84.5905 181.628 83.1509 179.852 83.1509C178.076 83.1509 176.636 84.591 176.636 86.3671Z" fill="#335687"/>
<path d="M168.497 86.3671C168.497 88.1436 169.937 89.5832 171.712 89.5832C173.488 89.5832 174.928 88.1436 174.928 86.3671C174.928 84.5905 173.489 83.1509 171.712 83.1509C169.936 83.1509 168.497 84.591 168.497 86.3671Z" fill="#335687"/>
<path d="M120.839 86.3671C120.839 88.1436 122.278 89.5832 124.055 89.5832C125.83 89.5832 127.271 88.1436 127.271 86.3671C127.271 84.5905 125.83 83.1509 124.055 83.1509C122.278 83.1509 120.839 84.591 120.839 86.3671Z" fill="#335687"/>
<path d="M115.915 89.5832C117.691 89.5832 119.131 88.1433 119.131 86.3671C119.131 84.5908 117.691 83.1509 115.915 83.1509C114.139 83.1509 112.699 84.5908 112.699 86.3671C112.699 88.1433 114.139 89.5832 115.915 89.5832Z" fill="#335687"/>
<path d="M104.905 33.1127H174.97C174.97 33.1127 183.961 38.9943 193.45 47.9835C201.668 55.7681 208.551 68.6115 195.17 79.6963C193.102 81.4113 192.309 83.0076 191.25 84.6879H104.905V33.1127Z" fill="#41C9E0"/>
<path d="M178.57 35.6326L174.126 39.2585H104.904V33.1127H174.971L178.57 35.6326Z" fill="#59E1EF"/>
<path d="M195.17 79.6963C193.102 81.4113 192.309 83.0076 191.25 84.6879H104.905V64.7673H202.684C202.983 69.7024 201 74.8664 195.17 79.6963Z" fill="#39BDD4"/>
<path d="M202.684 64.7673H104.905V67.0684H202.684V64.7673Z" fill="#E8F0FC"/>
<path d="M188.206 62.7154C188.456 51.4784 176.221 40.4916 176.221 40.4916L180.526 37.0829C183.972 39.6794 188.645 43.4324 193.449 47.9835C197.586 51.9016 201.383 57.102 202.429 62.7154H188.206Z" fill="#3F638E"/>
<path d="M184.95 62.7154C184.95 62.7154 186.756 52.4696 173.914 41.133H168.497V62.7154H184.95Z" fill="#3F638E"/>
<path d="M147.633 41.1336H108.332V62.716H147.633V41.1336Z" fill="#3F638E"/>
<path d="M165.789 41.1336H150.639V76.244H165.789V41.1336Z" fill="#3F638E"/>
<path d="M186.276 78.4722H196.55C196.113 78.8819 195.661 79.2922 195.17 79.6968C193.101 81.4118 192.309 83.0082 191.25 84.6885H184.56C184.56 83.4923 184.56 81.5249 184.56 80.4099C184.561 78.7302 186.276 78.4722 186.276 78.4722Z" fill="#27B3C1"/>
<path d="M130.443 78.4722H165.172C165.172 78.4722 166.888 78.7302 166.888 80.4094C166.888 81.5243 166.888 83.4923 166.888 84.6879H128.727C128.727 83.4918 128.727 81.5243 128.727 80.4094C128.727 78.7302 130.443 78.4722 130.443 78.4722Z" fill="#27B3C1"/>
<path d="M104.904 78.4722H109.472C109.472 78.4722 111.188 78.7302 111.188 80.4094C111.188 81.5243 111.188 83.4923 111.188 84.6879H104.904V78.4722Z" fill="#27B3C1"/>
<path d="M98.9284 33.1127V31.9933H28.5291L28.2498 32.1758C28.2157 32.1993 19.1806 38.1083 9.61326 47.1708C7.11577 49.5378 4.73079 52.3611 2.95254 55.4995C1.17654 58.6356 0.00112317 62.1003 3.72556e-06 65.7183C-0.00167545 68.2074 0.564193 70.7609 1.84876 73.264C3.13221 75.7687 5.12483 78.2192 7.9492 80.5589C8.90521 81.3531 9.54441 82.0942 10.0913 82.8571C10.637 83.6189 11.0887 84.4148 11.6367 85.2852L11.9658 85.8074H100.048V31.9933H98.9284V33.1127H97.809V83.5685H12.5832V84.6879L13.5302 84.0907C13.0186 83.2808 12.544 82.439 11.912 81.5535C11.2807 80.6691 10.4892 79.7545 9.37762 78.8344C6.74412 76.6525 4.96532 74.4355 3.84083 72.2419C2.71746 70.0472 2.24002 67.8716 2.23834 65.7172C2.23722 62.5934 3.26094 59.4953 4.90037 56.6021C6.53701 53.7106 8.78431 51.0379 11.1531 48.7951C15.8575 44.3374 20.4473 40.6438 23.856 38.0691C25.5603 36.7817 26.9697 35.7737 27.9504 35.0891C28.4407 34.7466 28.8241 34.4852 29.0838 34.31C29.2137 34.2221 29.3127 34.1566 29.3788 34.1124C29.4448 34.0687 29.4756 34.0486 29.4756 34.0486L28.8627 33.1116V34.2311H98.9284V33.1127Z" fill="#335687"/>
<path d="M104.905 33.1127V34.2322H174.97V33.1127L174.357 34.0497C174.357 34.0497 174.388 34.0699 174.454 34.1135C175.443 34.7695 183.858 40.4379 192.679 48.7962C195.048 51.039 197.295 53.7117 198.933 56.6032C200.572 59.4965 201.596 62.5945 201.595 65.7184C201.593 67.8727 201.115 70.0478 199.993 72.2431C198.868 74.4366 197.089 76.6531 194.456 78.8349L194.456 78.8355C193.344 79.7562 192.553 80.6703 191.921 81.5546C191.289 82.4395 190.814 83.2819 190.303 84.0918L191.25 84.6885V83.5691H106.025V33.1133L104.905 33.1127H103.786V85.8074H191.868L192.197 85.2846C192.744 84.4143 193.196 83.6183 193.742 82.8565C194.289 82.0936 194.928 81.3526 195.884 80.5578L195.884 80.5583C198.708 78.2187 200.701 75.7682 201.984 73.2634C203.269 70.7603 203.834 68.2069 203.833 65.7178C203.832 62.0997 202.656 58.635 200.88 55.4989C199.102 52.3605 196.717 49.5367 194.219 47.1702C184.652 38.1077 175.617 32.1987 175.583 32.1752L175.304 31.9927H103.786V33.1127H104.905Z" fill="#335687"/>
<path d="M106.402 31.9933H98.9287V34.2322H106.402V31.9933Z" fill="#335687"/>
</svg>
