<svg width="84" height="80" viewBox="0 0 84 80" fill="none" xmlns="http://www.w3.org/2000/svg">
<g clip-path="url(#clip0_22_1715)">
<path d="M74.4132 43.5802C75.1116 37.5161 81.6314 30.1037 78.9697 24.1086C76.313 18.1136 66.3551 17.7827 61.3639 14.163C56.2116 10.4296 52.8614 1.23951 46.5077 0.533334C40.3493 -0.153086 35.0407 7.96543 28.9507 10.5827C22.8607 13.2 13.2007 11.5161 9.52812 16.4296C5.73835 21.5012 10.3095 30.163 9.58672 36.4198C8.88835 42.484 2.36858 49.8963 5.03021 55.8914C7.68695 61.8864 17.6449 62.2173 22.636 65.837C27.7884 69.5704 31.1386 78.7605 37.4923 79.4667C43.6507 80.1531 48.9593 72.0346 55.0493 69.4173C61.1393 66.8 70.7993 68.4839 74.4718 63.5704C78.2616 58.4988 73.6904 49.837 74.4132 43.5802Z" fill="#E6E6E6"/>
<path d="M83.5116 80H0.488372C0.219767 80 0 79.7778 0 79.5062C0 79.2346 0.219767 79.0123 0.488372 79.0123H83.5116C83.7802 79.0123 84 79.2346 84 79.5062C84 79.7778 83.7802 80 83.5116 80Z" fill="#A09CAD"/>
<path d="M75.6978 48.8889C77.8564 48.8889 79.6047 50.6568 79.6047 52.8395C79.6047 50.6568 81.3531 48.8889 83.5117 48.8889C81.3531 48.8889 79.6047 47.121 79.6047 44.9383C79.6047 47.121 77.8564 48.8889 75.6978 48.8889Z" fill="white"/>
<path d="M79.6048 53.3333C79.3362 53.3333 79.1164 53.1111 79.1164 52.8395C79.1164 50.9333 77.583 49.3827 75.6978 49.3827C75.4292 49.3827 75.2095 49.1605 75.2095 48.8889C75.2095 48.6173 75.4292 48.3951 75.6978 48.3951C77.583 48.3951 79.1164 46.8445 79.1164 44.9383C79.1164 44.6667 79.3362 44.4445 79.6048 44.4445C79.8734 44.4445 80.0932 44.6667 80.0932 44.9383C80.0932 46.8445 81.6267 48.3951 83.5118 48.3951C83.7804 48.3951 84.0002 48.6173 84.0002 48.8889C84.0002 49.1605 83.7804 49.3827 83.5118 49.3827C81.6267 49.3827 80.0932 50.9333 80.0932 52.8395C80.0932 53.1111 79.8734 53.3333 79.6048 53.3333ZM77.7099 48.8889C78.5206 49.3136 79.1848 49.9852 79.6048 50.805C80.0248 49.9852 80.689 49.3136 81.4997 48.8889C80.689 48.4642 80.0248 47.7926 79.6048 46.9729C79.1848 47.7926 78.5206 48.4642 77.7099 48.8889Z" fill="#A09CAD"/>
<path d="M58.6045 9.38272C60.7631 9.38272 62.5115 11.1506 62.5115 13.3333C62.5115 11.1506 64.2598 9.38272 66.4184 9.38272C64.2598 9.38272 62.5115 7.61481 62.5115 5.4321C62.5115 7.61481 60.7631 9.38272 58.6045 9.38272Z" fill="white"/>
<path d="M62.5116 13.8272C62.243 13.8272 62.0232 13.6049 62.0232 13.3333C62.0232 11.4272 60.4897 9.87653 58.6046 9.87653C58.336 9.87653 58.1162 9.65431 58.1162 9.38271C58.1162 9.1111 58.336 8.88888 58.6046 8.88888C60.4897 8.88888 62.0232 7.33826 62.0232 5.43209C62.0232 5.16049 62.243 4.93826 62.5116 4.93826C62.7802 4.93826 62.9999 5.16049 62.9999 5.43209C62.9999 7.33826 64.5334 8.88888 66.4185 8.88888C66.6871 8.88888 66.9069 9.1111 66.9069 9.38271C66.9069 9.65431 66.6871 9.87653 66.4185 9.87653C64.5334 9.87653 62.9999 11.4272 62.9999 13.3333C62.9999 13.6049 62.7802 13.8272 62.5116 13.8272ZM60.6167 9.38271C61.4274 9.8074 62.0916 10.479 62.5116 11.2988C62.9316 10.479 63.5957 9.8074 64.4064 9.38271C63.5957 8.95802 62.9316 8.28641 62.5116 7.46666C62.0916 8.28641 61.4274 8.95802 60.6167 9.38271Z" fill="#A09CAD"/>
<path d="M21.4883 4.44445C23.6469 4.44445 25.3953 6.21235 25.3953 8.39507C25.3953 6.21235 27.1436 4.44445 29.3022 4.44445C27.1436 4.44445 25.3953 2.67655 25.3953 0.493835C25.3953 2.67655 23.6469 4.44445 21.4883 4.44445Z" fill="white"/>
<path d="M25.3953 8.88889C25.1267 8.88889 24.907 8.66667 24.907 8.39506C24.907 6.48889 23.3735 4.93827 21.4884 4.93827C21.2198 4.93827 21 4.71605 21 4.44444C21 4.17284 21.2198 3.95062 21.4884 3.95062C23.3735 3.95062 24.907 2.4 24.907 0.493827C24.907 0.222222 25.1267 0 25.3953 0C25.664 0 25.8837 0.222222 25.8837 0.493827C25.8837 2.4 27.4172 3.95062 29.3023 3.95062C29.5709 3.95062 29.7907 4.17284 29.7907 4.44444C29.7907 4.71605 29.5709 4.93827 29.3023 4.93827C27.4172 4.93827 25.8837 6.48889 25.8837 8.39506C25.8837 8.66667 25.664 8.88889 25.3953 8.88889ZM23.5005 4.44444C24.3112 4.86914 24.9753 5.54074 25.3953 6.36049C25.8153 5.54074 26.4795 4.86914 27.2902 4.44444C26.4795 4.01975 25.8153 3.34815 25.3953 2.5284C24.9753 3.34815 24.3112 4.01975 23.5005 4.44444Z" fill="#A09CAD"/>
<path d="M0.488281 27.6543C2.64689 27.6543 4.39526 29.4222 4.39526 31.6049C4.39526 29.4222 6.14363 27.6543 8.30223 27.6543C6.14363 27.6543 4.39526 25.8864 4.39526 23.7037C4.39526 25.8864 2.64689 27.6543 0.488281 27.6543Z" fill="white"/>
<path d="M4.39535 32.0988C4.12674 32.0988 3.90698 31.8765 3.90698 31.6049C3.90698 29.6988 2.37349 28.1481 0.488372 28.1481C0.219767 28.1481 0 27.9259 0 27.6543C0 27.3827 0.219767 27.1605 0.488372 27.1605C2.37349 27.1605 3.90698 25.6099 3.90698 23.7037C3.90698 23.4321 4.12674 23.2099 4.39535 23.2099C4.66395 23.2099 4.88372 23.4321 4.88372 23.7037C4.88372 25.6099 6.41721 27.1605 8.30233 27.1605C8.57093 27.1605 8.7907 27.3827 8.7907 27.6543C8.7907 27.9259 8.57093 28.1481 8.30233 28.1481C6.41721 28.1481 4.88372 29.6988 4.88372 31.6049C4.88372 31.8765 4.66395 32.0988 4.39535 32.0988ZM2.50047 27.6543C3.31116 28.079 3.97535 28.7506 4.39535 29.5704C4.81535 28.7506 5.47954 28.079 6.29023 27.6543C5.47954 27.2296 4.81535 26.558 4.39535 25.7383C3.97535 26.558 3.31116 27.2296 2.50047 27.6543Z" fill="#A09CAD"/>
<path d="M0.488281 63.7037C2.64689 63.7037 4.39526 65.4716 4.39526 67.6543C4.39526 65.4716 6.14363 63.7037 8.30223 63.7037C6.14363 63.7037 4.39526 61.9358 4.39526 59.7531C4.39526 61.9358 2.64689 63.7037 0.488281 63.7037Z" fill="white"/>
<path d="M4.39535 68.1481C4.12674 68.1481 3.90698 67.9259 3.90698 67.6543C3.90698 65.7481 2.37349 64.1975 0.488372 64.1975C0.219767 64.1975 0 63.9753 0 63.7037C0 63.4321 0.219767 63.2099 0.488372 63.2099C2.37349 63.2099 3.90698 61.6592 3.90698 59.7531C3.90698 59.4815 4.12674 59.2592 4.39535 59.2592C4.66395 59.2592 4.88372 59.4815 4.88372 59.7531C4.88372 61.6592 6.41721 63.2099 8.30233 63.2099C8.57093 63.2099 8.7907 63.4321 8.7907 63.7037C8.7907 63.9753 8.57093 64.1975 8.30233 64.1975C6.41721 64.1975 4.88372 65.7481 4.88372 67.6543C4.88372 67.9259 4.66395 68.1481 4.39535 68.1481ZM2.50047 63.7037C3.31116 64.1284 3.97535 64.8 4.39535 65.6197C4.81535 64.8 5.47954 64.1284 6.29023 63.7037C5.47954 63.279 4.81535 62.6074 4.39535 61.7876C3.97535 62.6074 3.31116 63.279 2.50047 63.7037Z" fill="#A09CAD"/>
<path d="M71.7908 40H60.0698V79.5062H71.7908V40Z" fill="#A09CAD"/>
<path d="M71.7908 40H60.0698V77.5309H71.7908V40Z" fill="#EDEDED"/>
<path d="M71.7908 38.0247H60.0698V40.9877H71.7908V38.0247Z" fill="#B8B5C6"/>
<path d="M63.9768 48.8889H67.8838V43.9506H63.9768V48.8889Z" fill="#2FC8F2"/>
<path d="M63.9768 57.7778H67.8838V52.8395H63.9768V57.7778Z" fill="#2FC8F2"/>
<path d="M63.9768 66.6667H67.8838V61.7284H63.9768V66.6667Z" fill="#2FC8F2"/>
<path d="M63.9768 75.5555H67.8838V70.6173H63.9768V75.5555Z" fill="#2FC8F2"/>
<path d="M63.9768 48.8889H67.8838V45.9259H63.9768V48.8889Z" fill="#00B5F4"/>
<path d="M63.9768 57.7778H67.8838V54.8148H63.9768V57.7778Z" fill="#00B5F4"/>
<path d="M63.9768 66.6667H67.8838V63.7037H63.9768V66.6667Z" fill="#00B5F4"/>
<path d="M63.9768 75.5555H67.8838V72.5926H63.9768V75.5555Z" fill="#00B5F4"/>
<path d="M71.7908 80H60.0699C59.8013 80 59.5815 79.7778 59.5815 79.5062V40C59.5815 39.7284 59.8013 39.5062 60.0699 39.5062H71.7908C72.0595 39.5062 72.2792 39.7284 72.2792 40V68.642C72.2792 68.9136 72.0595 69.1358 71.7908 69.1358C71.5222 69.1358 71.3025 68.9136 71.3025 68.642V40.4938H60.5583V79.0123H71.3025V71.6049C71.3025 71.3333 71.5222 71.1111 71.7908 71.1111C72.0595 71.1111 72.2792 71.3333 72.2792 71.6049V79.5062C72.2792 79.7778 72.0595 80 71.7908 80Z" fill="#34234D"/>
<path d="M67.8836 49.3827H63.9767C63.708 49.3827 63.4883 49.1605 63.4883 48.8889V43.9506C63.4883 43.679 63.708 43.4568 63.9767 43.4568H67.8836C68.1522 43.4568 68.372 43.679 68.372 43.9506V48.8889C68.372 49.1605 68.1522 49.3827 67.8836 49.3827ZM64.465 48.3951H67.3953V44.4444H64.465V48.3951Z" fill="#34234D"/>
<path d="M67.8836 58.2716H63.9767C63.708 58.2716 63.4883 58.0494 63.4883 57.7778V52.8395C63.4883 52.5679 63.708 52.3457 63.9767 52.3457H67.8836C68.1522 52.3457 68.372 52.5679 68.372 52.8395V57.7778C68.372 58.0494 68.1522 58.2716 67.8836 58.2716ZM64.465 57.2839H67.3953V53.3333H64.465V57.2839Z" fill="#34234D"/>
<path d="M67.8836 67.1605H63.9767C63.708 67.1605 63.4883 66.9383 63.4883 66.6667V61.7284C63.4883 61.4568 63.708 61.2346 63.9767 61.2346H67.8836C68.1522 61.2346 68.372 61.4568 68.372 61.7284V66.6667C68.372 66.9383 68.1522 67.1605 67.8836 67.1605ZM64.465 66.1728H67.3953V62.2222H64.465V66.1728Z" fill="#34234D"/>
<path d="M67.8836 76.0494H63.9767C63.708 76.0494 63.4883 75.8272 63.4883 75.5556V70.6173C63.4883 70.3457 63.708 70.1235 63.9767 70.1235H67.8836C68.1522 70.1235 68.372 70.3457 68.372 70.6173V75.5556C68.372 75.8272 68.1522 76.0494 67.8836 76.0494ZM64.465 75.0617H67.3953V71.1111H64.465V75.0617Z" fill="#34234D"/>
<path d="M68.3721 76.0494H63.4884C63.2198 76.0494 63 75.8272 63 75.5556C63 75.284 63.2198 75.0617 63.4884 75.0617H68.3721C68.6407 75.0617 68.8605 75.284 68.8605 75.5556C68.8605 75.8272 68.6407 76.0494 68.3721 76.0494Z" fill="#34234D"/>
<path d="M72.2791 37.037H60.0698V40H72.2791C73.0898 40 73.7442 39.3383 73.7442 38.5185C73.7442 37.6988 73.0898 37.037 72.2791 37.037Z" fill="#A09CAD"/>
<path d="M72.2792 40.4938H60.0699C59.8013 40.4938 59.5815 40.2716 59.5815 40C59.5815 39.7284 59.8013 39.5062 60.0699 39.5062H72.2792C72.8164 39.5062 73.256 39.0617 73.256 38.5185C73.256 37.9753 72.8164 37.5309 72.2792 37.5309H63.0001C62.7315 37.5309 62.5118 37.3086 62.5118 37.037C62.5118 36.7654 62.7315 36.5432 63.0001 36.5432H72.2792C73.3585 36.5432 74.2327 37.4272 74.2327 38.5185C74.2327 39.6099 73.3585 40.4938 72.2792 40.4938Z" fill="#34234D"/>
<path d="M68.3721 76.5432H63.4884C63.2198 76.5432 63 76.321 63 76.0494C63 75.7778 63.2198 75.5555 63.4884 75.5555H68.3721C68.6407 75.5555 68.8605 75.7778 68.8605 76.0494C68.8605 76.321 68.6407 76.5432 68.3721 76.5432Z" fill="#A09CAD"/>
<path d="M68.3721 67.6543H63.4884C63.2198 67.6543 63 67.4321 63 67.1605C63 66.8889 63.2198 66.6667 63.4884 66.6667H68.3721C68.6407 66.6667 68.8605 66.8889 68.8605 67.1605C68.8605 67.4321 68.6407 67.6543 68.3721 67.6543Z" fill="#A09CAD"/>
<path d="M68.3721 58.7654H63.4884C63.2198 58.7654 63 58.5432 63 58.2716C63 58 63.2198 57.7778 63.4884 57.7778H68.3721C68.6407 57.7778 68.8605 58 68.8605 58.2716C68.8605 58.5432 68.6407 58.7654 68.3721 58.7654Z" fill="#A09CAD"/>
<path d="M68.3721 49.8765H63.4884C63.2198 49.8765 63 49.6543 63 49.3827C63 49.1111 63.2198 48.8889 63.4884 48.8889H68.3721C68.6407 48.8889 68.8605 49.1111 68.8605 49.3827C68.8605 49.6543 68.6407 49.8765 68.3721 49.8765Z" fill="#A09CAD"/>
<path d="M68.3721 76.0494H63.4884C63.2198 76.0494 63 75.8272 63 75.5556C63 75.284 63.2198 75.0617 63.4884 75.0617H68.3721C68.6407 75.0617 68.8605 75.284 68.8605 75.5556C68.8605 75.8272 68.6407 76.0494 68.3721 76.0494Z" fill="#34234D"/>
<path d="M68.3721 67.1605H63.4884C63.2198 67.1605 63 66.9383 63 66.6667C63 66.3951 63.2198 66.1729 63.4884 66.1729H68.3721C68.6407 66.1729 68.8605 66.3951 68.8605 66.6667C68.8605 66.9383 68.6407 67.1605 68.3721 67.1605Z" fill="#34234D"/>
<path d="M68.3721 58.2716H63.4884C63.2198 58.2716 63 58.0494 63 57.7778C63 57.5062 63.2198 57.2839 63.4884 57.2839H68.3721C68.6407 57.2839 68.8605 57.5062 68.8605 57.7778C68.8605 58.0494 68.6407 58.2716 68.3721 58.2716Z" fill="#34234D"/>
<path d="M68.3721 49.3827H63.4884C63.2198 49.3827 63 49.1605 63 48.8889C63 48.6173 63.2198 48.3951 63.4884 48.3951H68.3721C68.6407 48.3951 68.8605 48.6173 68.8605 48.8889C68.8605 49.1605 68.6407 49.3827 68.3721 49.3827Z" fill="#34234D"/>
<path d="M23.9304 40H12.2095V79.5062H23.9304V40Z" fill="#A09CAD"/>
<path d="M23.9304 40H12.2095V77.5309H23.9304V40Z" fill="#EDEDED"/>
<path d="M16.1165 48.8889H20.0234V43.9506H16.1165V48.8889Z" fill="#2FC8F2"/>
<path d="M16.1165 57.7778H20.0234V52.8395H16.1165V57.7778Z" fill="#2FC8F2"/>
<path d="M16.1165 66.6667H20.0234V61.7284H16.1165V66.6667Z" fill="#2FC8F2"/>
<path d="M16.1165 75.5555H20.0234V70.6173H16.1165V75.5555Z" fill="#2FC8F2"/>
<path d="M16.1165 48.8889H20.0234V45.9259H16.1165V48.8889Z" fill="#00B5F4"/>
<path d="M16.1165 57.7778H20.0234V54.8148H16.1165V57.7778Z" fill="#00B5F4"/>
<path d="M16.1165 66.6667H20.0234V63.7037H16.1165V66.6667Z" fill="#00B5F4"/>
<path d="M16.1165 75.5555H20.0234V72.5926H16.1165V75.5555Z" fill="#00B5F4"/>
<path d="M23.9304 38.0247H12.2095V40.9877H23.9304V38.0247Z" fill="#B8B5C6"/>
<path d="M23.9303 37.037H11.721C10.9103 37.037 10.2559 37.6988 10.2559 38.5185C10.2559 39.3383 10.9103 40 11.721 40H23.9303V37.037Z" fill="#A09CAD"/>
<path d="M23.93 80H12.2091C11.9405 80 11.7207 79.7778 11.7207 79.5062V48.8889C11.7207 48.6173 11.9405 48.3951 12.2091 48.3951C12.4777 48.3951 12.6974 48.6173 12.6974 48.8889V79.0123H23.4416V40.4938H12.6974V45.9259C12.6974 46.1975 12.4777 46.4197 12.2091 46.4197C11.9405 46.4197 11.7207 46.1975 11.7207 45.9259V40C11.7207 39.7284 11.9405 39.5062 12.2091 39.5062H23.93C24.1986 39.5062 24.4184 39.7284 24.4184 40V79.5062C24.4184 79.7778 24.1986 80 23.93 80Z" fill="#34234D"/>
<path d="M20.0233 49.3827H16.1163C15.8477 49.3827 15.6279 49.1605 15.6279 48.8889V43.9506C15.6279 43.679 15.8477 43.4568 16.1163 43.4568H20.0233C20.2919 43.4568 20.5117 43.679 20.5117 43.9506V48.8889C20.5117 49.1605 20.2919 49.3827 20.0233 49.3827ZM16.6047 48.3951H19.5349V44.4444H16.6047V48.3951Z" fill="#34234D"/>
<path d="M20.0233 58.2716H16.1163C15.8477 58.2716 15.6279 58.0494 15.6279 57.7778V52.8395C15.6279 52.5679 15.8477 52.3457 16.1163 52.3457H20.0233C20.2919 52.3457 20.5117 52.5679 20.5117 52.8395V57.7778C20.5117 58.0494 20.2919 58.2716 20.0233 58.2716ZM16.6047 57.2839H19.5349V53.3333H16.6047V57.2839Z" fill="#34234D"/>
<path d="M20.0233 67.1605H16.1163C15.8477 67.1605 15.6279 66.9383 15.6279 66.6667V61.7284C15.6279 61.4568 15.8477 61.2346 16.1163 61.2346H20.0233C20.2919 61.2346 20.5117 61.4568 20.5117 61.7284V66.6667C20.5117 66.9383 20.2919 67.1605 20.0233 67.1605ZM16.6047 66.1728H19.5349V62.2222H16.6047V66.1728Z" fill="#34234D"/>
<path d="M20.0233 76.0494H16.1163C15.8477 76.0494 15.6279 75.8272 15.6279 75.5556V70.6173C15.6279 70.3457 15.8477 70.1235 16.1163 70.1235H20.0233C20.2919 70.1235 20.5117 70.3457 20.5117 70.6173V75.5556C20.5117 75.8272 20.2919 76.0494 20.0233 76.0494ZM16.6047 75.0617H19.5349V71.1111H16.6047V75.0617Z" fill="#34234D"/>
<path d="M20.5117 76.0494H15.628C15.3594 76.0494 15.1396 75.8272 15.1396 75.5556C15.1396 75.284 15.3594 75.0617 15.628 75.0617H20.5117C20.7803 75.0617 21.0001 75.284 21.0001 75.5556C21.0001 75.8272 20.7803 76.0494 20.5117 76.0494Z" fill="#34234D"/>
<path d="M23.9304 40.4938H11.7211C10.6418 40.4938 9.76758 39.6099 9.76758 38.5185C9.76758 37.4272 10.6418 36.5432 11.7211 36.5432H23.9304C24.199 36.5432 24.4187 36.7654 24.4187 37.037V40C24.4187 40.2716 24.199 40.4938 23.9304 40.4938ZM11.7211 37.5309C11.1839 37.5309 10.7443 37.9753 10.7443 38.5185C10.7443 39.0617 11.1839 39.5062 11.7211 39.5062H23.442V37.5309H11.7211Z" fill="#34234D"/>
<path d="M20.5117 76.5432H15.628C15.3594 76.5432 15.1396 76.321 15.1396 76.0494C15.1396 75.7778 15.3594 75.5555 15.628 75.5555H20.5117C20.7803 75.5555 21.0001 75.7778 21.0001 76.0494C21.0001 76.321 20.7803 76.5432 20.5117 76.5432Z" fill="#A09CAD"/>
<path d="M20.5117 67.6543H15.628C15.3594 67.6543 15.1396 67.4321 15.1396 67.1605C15.1396 66.8889 15.3594 66.6667 15.628 66.6667H20.5117C20.7803 66.6667 21.0001 66.8889 21.0001 67.1605C21.0001 67.4321 20.7803 67.6543 20.5117 67.6543Z" fill="#A09CAD"/>
<path d="M20.5117 58.7654H15.628C15.3594 58.7654 15.1396 58.5432 15.1396 58.2716C15.1396 58 15.3594 57.7778 15.628 57.7778H20.5117C20.7803 57.7778 21.0001 58 21.0001 58.2716C21.0001 58.5432 20.7803 58.7654 20.5117 58.7654Z" fill="#A09CAD"/>
<path d="M20.5117 49.8765H15.628C15.3594 49.8765 15.1396 49.6543 15.1396 49.3827C15.1396 49.1111 15.3594 48.8889 15.628 48.8889H20.5117C20.7803 48.8889 21.0001 49.1111 21.0001 49.3827C21.0001 49.6543 20.7803 49.8765 20.5117 49.8765Z" fill="#A09CAD"/>
<path d="M20.5117 76.0494H15.628C15.3594 76.0494 15.1396 75.8272 15.1396 75.5556C15.1396 75.284 15.3594 75.0617 15.628 75.0617H20.5117C20.7803 75.0617 21.0001 75.284 21.0001 75.5556C21.0001 75.8272 20.7803 76.0494 20.5117 76.0494Z" fill="#34234D"/>
<path d="M20.5117 67.1605H15.628C15.3594 67.1605 15.1396 66.9383 15.1396 66.6667C15.1396 66.3951 15.3594 66.1729 15.628 66.1729H20.5117C20.7803 66.1729 21.0001 66.3951 21.0001 66.6667C21.0001 66.9383 20.7803 67.1605 20.5117 67.1605Z" fill="#34234D"/>
<path d="M20.5117 58.2716H15.628C15.3594 58.2716 15.1396 58.0494 15.1396 57.7778C15.1396 57.5062 15.3594 57.2839 15.628 57.2839H20.5117C20.7803 57.2839 21.0001 57.5062 21.0001 57.7778C21.0001 58.0494 20.7803 58.2716 20.5117 58.2716Z" fill="#34234D"/>
<path d="M20.5117 49.3827H15.628C15.3594 49.3827 15.1396 49.1605 15.1396 48.8889C15.1396 48.6173 15.3594 48.3951 15.628 48.3951H20.5117C20.7803 48.3951 21.0001 48.6173 21.0001 48.8889C21.0001 49.1605 20.7803 49.3827 20.5117 49.3827Z" fill="#34234D"/>
<path d="M32.7208 24.1975H29.7905V28.1482H32.7208V24.1975Z" fill="#A09CAD"/>
<path d="M54.2095 24.1975H51.2793V28.1482H54.2095V24.1975Z" fill="#A09CAD"/>
<path d="M32.7209 28.642H29.7906C29.522 28.642 29.3022 28.4198 29.3022 28.1481V24.1975C29.3022 23.9259 29.522 23.7037 29.7906 23.7037H32.7209C32.9895 23.7037 33.2092 23.9259 33.2092 24.1975V28.1481C33.2092 28.4198 32.9895 28.642 32.7209 28.642ZM30.279 27.6543H32.2325V24.6914H30.279V27.6543Z" fill="#34234D"/>
<path d="M54.2091 28.642H51.2789C51.0103 28.642 50.7905 28.4198 50.7905 28.1481V24.1975C50.7905 23.9259 51.0103 23.7037 51.2789 23.7037H54.2091C54.4777 23.7037 54.6975 23.9259 54.6975 24.1975V28.1481C54.6975 28.4198 54.4777 28.642 54.2091 28.642ZM51.7673 27.6543H53.7208V24.6914H51.7673V27.6543Z" fill="#34234D"/>
<path d="M59.093 15.3087H24.9069C24.3675 15.3087 23.9302 15.7508 23.9302 16.2963V23.2099C23.9302 23.7554 24.3675 24.1975 24.9069 24.1975H59.093C59.6324 24.1975 60.0697 23.7554 60.0697 23.2099V16.2963C60.0697 15.7508 59.6324 15.3087 59.093 15.3087Z" fill="#EDEDED"/>
<path d="M59.093 15.3087H24.9069C24.3675 15.3087 23.9302 15.7508 23.9302 16.2963V21.2346C23.9302 21.78 24.3675 22.2222 24.9069 22.2222H59.093C59.6324 22.2222 60.0697 21.78 60.0697 21.2346V16.2963C60.0697 15.7508 59.6324 15.3087 59.093 15.3087Z" fill="white"/>
<path d="M59.0931 24.6914H24.907C24.1012 24.6914 23.4419 24.0247 23.4419 23.2099V16.2963C23.4419 15.4815 24.1012 14.8148 24.907 14.8148H33.6977C33.9663 14.8148 34.1861 15.037 34.1861 15.3086C34.1861 15.5803 33.9663 15.8025 33.6977 15.8025H24.907C24.6384 15.8025 24.4186 16.0247 24.4186 16.2963V23.2099C24.4186 23.4815 24.6384 23.7037 24.907 23.7037H59.0931C59.3617 23.7037 59.5814 23.4815 59.5814 23.2099V16.2963C59.5814 16.0247 59.3617 15.8025 59.0931 15.8025H36.6279C36.3593 15.8025 36.1396 15.5803 36.1396 15.3086C36.1396 15.037 36.3593 14.8148 36.6279 14.8148H59.0931C59.8989 14.8148 60.5582 15.4815 60.5582 16.2963V23.2099C60.5582 24.0247 59.8989 24.6914 59.0931 24.6914Z" fill="#34234D"/>
<path d="M42.2831 17.0864L42.8692 18.2864C42.9131 18.3802 43.0059 18.4444 43.1085 18.4592L44.4173 18.6518C44.6762 18.6913 44.7787 19.0123 44.5931 19.1951L43.6457 20.1284C43.5724 20.2025 43.5383 20.3062 43.5529 20.4099L43.7776 21.7284C43.8215 21.9901 43.5529 22.1876 43.3185 22.0642L42.1464 21.442C42.0536 21.3926 41.9462 21.3926 41.8534 21.442L40.6813 22.0642C40.4518 22.1876 40.1783 21.9901 40.2222 21.7284L40.4469 20.4099C40.4664 20.3062 40.4322 20.2025 40.3541 20.1284L39.4066 19.1951C39.2211 19.0123 39.3236 18.6913 39.5824 18.6518L40.8913 18.4592C40.9938 18.4444 41.0818 18.3802 41.1306 18.2864L41.7166 17.0864C41.8338 16.8494 42.1659 16.8494 42.2831 17.0864Z" fill="#FF5067"/>
<path d="M35.4462 17.0864L36.0323 18.2864C36.0762 18.3802 36.169 18.4444 36.2716 18.4592L37.5804 18.6518C37.8393 18.6913 37.9418 19.0123 37.7562 19.1951L36.8088 20.1284C36.7355 20.2025 36.7013 20.3062 36.716 20.4099L36.9406 21.7284C36.9846 21.9901 36.716 22.1876 36.4816 22.0642L35.3095 21.442C35.2167 21.3926 35.1093 21.3926 35.0165 21.442L33.8444 22.0642C33.6148 22.1876 33.3413 21.9901 33.3853 21.7284L33.61 20.4099C33.6295 20.3062 33.5953 20.2025 33.5172 20.1284L32.5697 19.1951C32.3841 19.0123 32.4867 18.6913 32.7455 18.6518L34.0544 18.4592C34.1569 18.4444 34.2448 18.3802 34.2937 18.2864L34.8797 17.0864C34.9969 16.8494 35.329 16.8494 35.4462 17.0864Z" fill="#FF5067"/>
<path d="M28.6088 17.0864L29.1949 18.2864C29.2388 18.3802 29.3316 18.4444 29.4342 18.4592L30.743 18.6518C31.0019 18.6913 31.1044 19.0123 30.9188 19.1951L29.9714 20.1284C29.8981 20.2025 29.8639 20.3062 29.8786 20.4099L30.1032 21.7284C30.1472 21.9901 29.8786 22.1876 29.6442 22.0642L28.4721 21.442C28.3793 21.3926 28.2719 21.3926 28.1791 21.442L27.007 22.0642C26.7774 22.1876 26.5039 21.9901 26.5479 21.7284L26.7726 20.4099C26.7921 20.3062 26.7579 20.2025 26.6798 20.1284L25.7323 19.1951C25.5467 19.0123 25.6493 18.6913 25.9081 18.6518L27.217 18.4592C27.3195 18.4444 27.4074 18.3802 27.4563 18.2864L28.0423 17.0864C28.1595 16.8494 28.4916 16.8494 28.6088 17.0864Z" fill="#FF5067"/>
<path d="M49.1205 17.0864L49.7066 18.2864C49.7505 18.3802 49.8433 18.4444 49.9459 18.4592L51.2547 18.6518C51.5136 18.6913 51.6161 19.0123 51.4305 19.1951L50.4831 20.1284C50.4099 20.2025 50.3757 20.3062 50.3903 20.4099L50.615 21.7284C50.6589 21.9901 50.3903 22.1876 50.1559 22.0642L48.9838 21.442C48.891 21.3926 48.7836 21.3926 48.6908 21.442L47.5187 22.0642C47.2892 22.1876 47.0157 21.9901 47.0596 21.7284L47.2843 20.4099C47.3038 20.3062 47.2696 20.2025 47.1915 20.1284L46.244 19.1951C46.0585 19.0123 46.161 18.6913 46.4199 18.6518L47.7287 18.4592C47.8312 18.4444 47.9192 18.3802 47.968 18.2864L48.554 17.0864C48.6712 16.8494 49.0033 16.8494 49.1205 17.0864Z" fill="#FF5067"/>
<path d="M55.9575 17.0864L56.5435 18.2864C56.5875 18.3802 56.6803 18.4444 56.7828 18.4592L58.0916 18.6518C58.3505 18.6913 58.453 19.0123 58.2675 19.1951L57.32 20.1284C57.2468 20.2025 57.2126 20.3062 57.2272 20.4099L57.4519 21.7284C57.4958 21.9901 57.2272 22.1876 56.9928 22.0642L55.8207 21.442C55.7279 21.3926 55.6205 21.3926 55.5277 21.442L54.3556 22.0642C54.1261 22.1876 53.8526 21.9901 53.8965 21.7284L54.1212 20.4099C54.1407 20.3062 54.1065 20.2025 54.0284 20.1284L53.081 19.1951C52.8954 19.0123 52.9979 18.6913 53.2568 18.6518L54.5656 18.4592C54.6682 18.4444 54.7561 18.3802 54.8049 18.2864L55.3909 17.0864C55.5082 16.8494 55.8403 16.8494 55.9575 17.0864Z" fill="#FF5067"/>
<path d="M60.0697 29.1358H23.9302V32.0988H60.0697V29.1358Z" fill="#B8B5C6"/>
<path d="M60.558 28.1481H23.4417C22.631 28.1481 21.9766 28.8099 21.9766 29.6296C21.9766 30.4494 22.631 31.1111 23.4417 31.1111H60.558C61.3687 31.1111 62.0231 30.4494 62.0231 29.6296C62.0231 28.8099 61.3687 28.1481 60.558 28.1481Z" fill="#B8B5C6"/>
<path d="M60.558 31.6049H23.4418C22.3625 31.6049 21.4883 30.721 21.4883 29.6296C21.4883 28.5383 22.3625 27.6543 23.4418 27.6543H60.558C61.6374 27.6543 62.5115 28.5383 62.5115 29.6296C62.5115 30.721 61.6374 31.6049 60.558 31.6049ZM23.4418 28.642C22.9046 28.642 22.465 29.0864 22.465 29.6296C22.465 30.1728 22.9046 30.6173 23.4418 30.6173H60.558C61.0953 30.6173 61.5348 30.1728 61.5348 29.6296C61.5348 29.0864 61.0953 28.642 60.558 28.642H23.4418Z" fill="#34234D"/>
<path d="M60.0697 31.1111H23.9302V79.5062H60.0697V31.1111Z" fill="#B8B5C6"/>
<path d="M60.0697 31.1111H23.9302V77.5309H60.0697V31.1111Z" fill="white"/>
<path d="M36.1394 40H40.0464V35.0617H36.1394V40Z" fill="#2FC8F2"/>
<path d="M43.9534 40H47.8604V35.0617H43.9534V40Z" fill="#2FC8F2"/>
<path d="M28.3254 40H32.2324V35.0617H28.3254V40Z" fill="#2FC8F2"/>
<path d="M36.1394 48.8889H40.0464V43.9506H36.1394V48.8889Z" fill="#2FC8F2"/>
<path d="M43.9534 48.8889H47.8604V43.9506H43.9534V48.8889Z" fill="#2FC8F2"/>
<path d="M28.3254 48.8889H32.2324V43.9506H28.3254V48.8889Z" fill="#2FC8F2"/>
<path d="M36.1394 57.7778H40.0464V52.8395H36.1394V57.7778Z" fill="#2FC8F2"/>
<path d="M43.9534 57.7778H47.8604V52.8395H43.9534V57.7778Z" fill="#2FC8F2"/>
<path d="M28.3254 57.7778H32.2324V52.8395H28.3254V57.7778Z" fill="#2FC8F2"/>
<path d="M36.1394 66.6667H40.0464V61.7284H36.1394V66.6667Z" fill="#2FC8F2"/>
<path d="M43.9534 66.6667H47.8604V61.7284H43.9534V66.6667Z" fill="#2FC8F2"/>
<path d="M28.3254 66.6667H32.2324V61.7284H28.3254V66.6667Z" fill="#2FC8F2"/>
<path d="M51.7673 40H55.6743V35.0617H51.7673V40Z" fill="#2FC8F2"/>
<path d="M51.7673 48.8889H55.6743V43.9506H51.7673V48.8889Z" fill="#2FC8F2"/>
<path d="M51.7673 57.7778H55.6743V52.8395H51.7673V57.7778Z" fill="#2FC8F2"/>
<path d="M51.7673 66.6667H55.6743V61.7284H51.7673V66.6667Z" fill="#2FC8F2"/>
<path d="M36.1394 40H40.0464V37.037H36.1394V40Z" fill="#00B5F4"/>
<path d="M43.9534 40H47.8604V37.037H43.9534V40Z" fill="#00B5F4"/>
<path d="M28.3254 40H32.2324V37.037H28.3254V40Z" fill="#00B5F4"/>
<path d="M36.1394 48.8889H40.0464V45.9259H36.1394V48.8889Z" fill="#00B5F4"/>
<path d="M43.9534 48.8889H47.8604V45.9259H43.9534V48.8889Z" fill="#00B5F4"/>
<path d="M28.3254 48.8889H32.2324V45.9259H28.3254V48.8889Z" fill="#00B5F4"/>
<path d="M36.1394 57.7778H40.0464V54.8148H36.1394V57.7778Z" fill="#00B5F4"/>
<path d="M43.9534 57.7778H47.8604V54.8148H43.9534V57.7778Z" fill="#00B5F4"/>
<path d="M28.3254 57.7778H32.2324V54.8148H28.3254V57.7778Z" fill="#00B5F4"/>
<path d="M36.1394 66.6667H40.0464V63.7037H36.1394V66.6667Z" fill="#00B5F4"/>
<path d="M43.9534 66.6667H47.8604V63.7037H43.9534V66.6667Z" fill="#00B5F4"/>
<path d="M28.3254 66.6667H32.2324V63.7037H28.3254V66.6667Z" fill="#00B5F4"/>
<path d="M51.7673 40H55.6743V37.037H51.7673V40Z" fill="#00B5F4"/>
<path d="M51.7673 48.8889H55.6743V45.9259H51.7673V48.8889Z" fill="#00B5F4"/>
<path d="M51.7673 57.7778H55.6743V54.8148H51.7673V57.7778Z" fill="#00B5F4"/>
<path d="M51.7673 66.6667H55.6743V63.7037H51.7673V66.6667Z" fill="#00B5F4"/>
<path d="M60.0698 80H23.9303C23.6617 80 23.4419 79.7778 23.4419 79.5062V31.1111C23.4419 30.8395 23.6617 30.6173 23.9303 30.6173H60.0698C60.3384 30.6173 60.5582 30.8395 60.5582 31.1111V79.5062C60.5582 79.7778 60.3384 80 60.0698 80ZM24.4186 79.0123H59.5814V31.6049H24.4186V79.0123Z" fill="#34234D"/>
<path d="M40.0467 40.4938H36.1397C35.8711 40.4938 35.6514 40.2716 35.6514 40V35.0617C35.6514 34.7901 35.8711 34.5679 36.1397 34.5679H40.0467C40.3153 34.5679 40.5351 34.7901 40.5351 35.0617V40C40.5351 40.2716 40.3153 40.4938 40.0467 40.4938ZM36.6281 39.5062H39.5583V35.5556H36.6281V39.5062Z" fill="#34234D"/>
<path d="M47.8607 40.4938H43.9537C43.6851 40.4938 43.4653 40.2716 43.4653 40V35.0617C43.4653 34.7901 43.6851 34.5679 43.9537 34.5679H47.8607C48.1293 34.5679 48.3491 34.7901 48.3491 35.0617V40C48.3491 40.2716 48.1293 40.4938 47.8607 40.4938ZM44.4421 39.5062H47.3723V35.5556H44.4421V39.5062Z" fill="#34234D"/>
<path d="M32.2328 40.4938H28.3258C28.0572 40.4938 27.8374 40.2716 27.8374 40V35.0617C27.8374 34.7901 28.0572 34.5679 28.3258 34.5679H32.2328C32.5014 34.5679 32.7211 34.7901 32.7211 35.0617V40C32.7211 40.2716 32.5014 40.4938 32.2328 40.4938ZM28.8141 39.5062H31.7444V35.5556H28.8141V39.5062Z" fill="#34234D"/>
<path d="M40.0467 49.3827H36.1397C35.8711 49.3827 35.6514 49.1605 35.6514 48.8889V43.9506C35.6514 43.679 35.8711 43.4568 36.1397 43.4568H40.0467C40.3153 43.4568 40.5351 43.679 40.5351 43.9506V48.8889C40.5351 49.1605 40.3153 49.3827 40.0467 49.3827ZM36.6281 48.3951H39.5583V44.4444H36.6281V48.3951Z" fill="#34234D"/>
<path d="M47.8607 49.3827H43.9537C43.6851 49.3827 43.4653 49.1605 43.4653 48.8889V43.9506C43.4653 43.679 43.6851 43.4568 43.9537 43.4568H47.8607C48.1293 43.4568 48.3491 43.679 48.3491 43.9506V48.8889C48.3491 49.1605 48.1293 49.3827 47.8607 49.3827ZM44.4421 48.3951H47.3723V44.4444H44.4421V48.3951Z" fill="#34234D"/>
<path d="M32.2328 49.3827H28.3258C28.0572 49.3827 27.8374 49.1605 27.8374 48.8889V43.9506C27.8374 43.679 28.0572 43.4568 28.3258 43.4568H32.2328C32.5014 43.4568 32.7211 43.679 32.7211 43.9506V48.8889C32.7211 49.1605 32.5014 49.3827 32.2328 49.3827ZM28.8141 48.3951H31.7444V44.4444H28.8141V48.3951Z" fill="#34234D"/>
<path d="M40.0467 58.2716H36.1397C35.8711 58.2716 35.6514 58.0494 35.6514 57.7778V52.8395C35.6514 52.5679 35.8711 52.3457 36.1397 52.3457H40.0467C40.3153 52.3457 40.5351 52.5679 40.5351 52.8395V57.7778C40.5351 58.0494 40.3153 58.2716 40.0467 58.2716ZM36.6281 57.2839H39.5583V53.3333H36.6281V57.2839Z" fill="#34234D"/>
<path d="M47.8607 58.2716H43.9537C43.6851 58.2716 43.4653 58.0494 43.4653 57.7778V52.8395C43.4653 52.5679 43.6851 52.3457 43.9537 52.3457H47.8607C48.1293 52.3457 48.3491 52.5679 48.3491 52.8395V57.7778C48.3491 58.0494 48.1293 58.2716 47.8607 58.2716ZM44.4421 57.2839H47.3723V53.3333H44.4421V57.2839Z" fill="#34234D"/>
<path d="M32.2328 58.2716H28.3258C28.0572 58.2716 27.8374 58.0494 27.8374 57.7778V52.8395C27.8374 52.5679 28.0572 52.3457 28.3258 52.3457H32.2328C32.5014 52.3457 32.7211 52.5679 32.7211 52.8395V57.7778C32.7211 58.0494 32.5014 58.2716 32.2328 58.2716ZM28.8141 57.2839H31.7444V53.3333H28.8141V57.2839Z" fill="#34234D"/>
<path d="M40.0467 67.1605H36.1397C35.8711 67.1605 35.6514 66.9383 35.6514 66.6667V61.7284C35.6514 61.4568 35.8711 61.2346 36.1397 61.2346H40.0467C40.3153 61.2346 40.5351 61.4568 40.5351 61.7284V66.6667C40.5351 66.9383 40.3153 67.1605 40.0467 67.1605ZM36.6281 66.1728H39.5583V62.2222H36.6281V66.1728Z" fill="#34234D"/>
<path d="M47.8607 67.1605H43.9537C43.6851 67.1605 43.4653 66.9383 43.4653 66.6667V61.7284C43.4653 61.4568 43.6851 61.2346 43.9537 61.2346H47.8607C48.1293 61.2346 48.3491 61.4568 48.3491 61.7284V66.6667C48.3491 66.9383 48.1293 67.1605 47.8607 67.1605ZM44.4421 66.1728H47.3723V62.2222H44.4421V66.1728Z" fill="#34234D"/>
<path d="M32.2328 67.1605H28.3258C28.0572 67.1605 27.8374 66.9383 27.8374 66.6667V61.7284C27.8374 61.4568 28.0572 61.2346 28.3258 61.2346H32.2328C32.5014 61.2346 32.7211 61.4568 32.7211 61.7284V66.6667C32.7211 66.9383 32.5014 67.1605 32.2328 67.1605ZM28.8141 66.1728H31.7444V62.2222H28.8141V66.1728Z" fill="#34234D"/>
<path d="M52.7442 70.6173H31.2559V79.5062H52.7442V70.6173Z" fill="#2FC8F2"/>
<path d="M52.7442 73.5803H31.2559V79.5062H52.7442V73.5803Z" fill="#00B5F4"/>
<path d="M52.7443 80H31.256C30.9873 80 30.7676 79.7778 30.7676 79.5062V70.6173C30.7676 70.3457 30.9873 70.1235 31.256 70.1235H52.7443C53.0129 70.1235 53.2327 70.3457 53.2327 70.6173V79.5062C53.2327 79.7778 53.0129 80 52.7443 80ZM31.7443 79.0124H52.256V71.1111H31.7443V79.0124Z" fill="#34234D"/>
<path d="M54.2092 71.1111H29.7906C29.522 71.1111 29.3022 70.8889 29.3022 70.6173C29.3022 70.3457 29.522 70.1235 29.7906 70.1235H54.2092C54.4778 70.1235 54.6976 70.3457 54.6976 70.6173C54.6976 70.8889 54.4778 71.1111 54.2092 71.1111Z" fill="#34234D"/>
<path d="M55.6746 40.4938H51.7677C51.4991 40.4938 51.2793 40.2716 51.2793 40V35.0617C51.2793 34.7901 51.4991 34.5679 51.7677 34.5679H55.6746C55.9433 34.5679 56.163 34.7901 56.163 35.0617V40C56.163 40.2716 55.9433 40.4938 55.6746 40.4938ZM52.256 39.5062H55.1863V35.5556H52.256V39.5062Z" fill="#34234D"/>
<path d="M55.6746 49.3827H51.7677C51.4991 49.3827 51.2793 49.1605 51.2793 48.8889V43.9506C51.2793 43.679 51.4991 43.4568 51.7677 43.4568H55.6746C55.9433 43.4568 56.163 43.679 56.163 43.9506V48.8889C56.163 49.1605 55.9433 49.3827 55.6746 49.3827ZM52.256 48.3951H55.1863V44.4444H52.256V48.3951Z" fill="#34234D"/>
<path d="M55.6746 58.2716H51.7677C51.4991 58.2716 51.2793 58.0494 51.2793 57.7778V52.8395C51.2793 52.5679 51.4991 52.3457 51.7677 52.3457H55.6746C55.9433 52.3457 56.163 52.5679 56.163 52.8395V57.7778C56.163 58.0494 55.9433 58.2716 55.6746 58.2716ZM52.256 57.2839H55.1863V53.3333H52.256V57.2839Z" fill="#34234D"/>
<path d="M55.6746 67.1605H51.7677C51.4991 67.1605 51.2793 66.9383 51.2793 66.6667V61.7284C51.2793 61.4568 51.4991 61.2346 51.7677 61.2346H55.6746C55.9433 61.2346 56.163 61.4568 56.163 61.7284V66.6667C56.163 66.9383 55.9433 67.1605 55.6746 67.1605ZM52.256 66.1728H55.1863V62.2222H52.256V66.1728Z" fill="#34234D"/>
<path d="M32.7207 40.9877H27.837C27.5684 40.9877 27.3486 40.7654 27.3486 40.4938C27.3486 40.2222 27.5684 40 27.837 40H32.7207C32.9893 40 33.2091 40.2222 33.2091 40.4938C33.2091 40.7654 32.9893 40.9877 32.7207 40.9877Z" fill="#A09CAD"/>
<path d="M40.5347 40.9877H35.651C35.3824 40.9877 35.1626 40.7654 35.1626 40.4938C35.1626 40.2222 35.3824 40 35.651 40H40.5347C40.8033 40 41.0231 40.2222 41.0231 40.4938C41.0231 40.7654 40.8033 40.9877 40.5347 40.9877Z" fill="#A09CAD"/>
<path d="M48.3487 40.9877H43.4649C43.1963 40.9877 42.9766 40.7654 42.9766 40.4938C42.9766 40.2222 43.1963 40 43.4649 40H48.3487C48.6173 40 48.837 40.2222 48.837 40.4938C48.837 40.7654 48.6173 40.9877 48.3487 40.9877Z" fill="#A09CAD"/>
<path d="M32.7207 49.8765H27.837C27.5684 49.8765 27.3486 49.6543 27.3486 49.3827C27.3486 49.1111 27.5684 48.8889 27.837 48.8889H32.7207C32.9893 48.8889 33.2091 49.1111 33.2091 49.3827C33.2091 49.6543 32.9893 49.8765 32.7207 49.8765Z" fill="#A09CAD"/>
<path d="M40.5347 49.8765H35.651C35.3824 49.8765 35.1626 49.6543 35.1626 49.3827C35.1626 49.1111 35.3824 48.8889 35.651 48.8889H40.5347C40.8033 48.8889 41.0231 49.1111 41.0231 49.3827C41.0231 49.6543 40.8033 49.8765 40.5347 49.8765Z" fill="#A09CAD"/>
<path d="M48.3487 49.8765H43.4649C43.1963 49.8765 42.9766 49.6543 42.9766 49.3827C42.9766 49.1111 43.1963 48.8889 43.4649 48.8889H48.3487C48.6173 48.8889 48.837 49.1111 48.837 49.3827C48.837 49.6543 48.6173 49.8765 48.3487 49.8765Z" fill="#A09CAD"/>
<path d="M32.7207 58.7654H27.837C27.5684 58.7654 27.3486 58.5432 27.3486 58.2716C27.3486 58 27.5684 57.7778 27.837 57.7778H32.7207C32.9893 57.7778 33.2091 58 33.2091 58.2716C33.2091 58.5432 32.9893 58.7654 32.7207 58.7654Z" fill="#A09CAD"/>
<path d="M40.5347 58.7654H35.651C35.3824 58.7654 35.1626 58.5432 35.1626 58.2716C35.1626 58 35.3824 57.7778 35.651 57.7778H40.5347C40.8033 57.7778 41.0231 58 41.0231 58.2716C41.0231 58.5432 40.8033 58.7654 40.5347 58.7654Z" fill="#A09CAD"/>
<path d="M48.3487 58.7654H43.4649C43.1963 58.7654 42.9766 58.5432 42.9766 58.2716C42.9766 58 43.1963 57.7778 43.4649 57.7778H48.3487C48.6173 57.7778 48.837 58 48.837 58.2716C48.837 58.5432 48.6173 58.7654 48.3487 58.7654Z" fill="#A09CAD"/>
<path d="M32.7207 67.6543H27.837C27.5684 67.6543 27.3486 67.4321 27.3486 67.1605C27.3486 66.8889 27.5684 66.6667 27.837 66.6667H32.7207C32.9893 66.6667 33.2091 66.8889 33.2091 67.1605C33.2091 67.4321 32.9893 67.6543 32.7207 67.6543Z" fill="#A09CAD"/>
<path d="M40.5347 67.6543H35.651C35.3824 67.6543 35.1626 67.4321 35.1626 67.1605C35.1626 66.8889 35.3824 66.6667 35.651 66.6667H40.5347C40.8033 66.6667 41.0231 66.8889 41.0231 67.1605C41.0231 67.4321 40.8033 67.6543 40.5347 67.6543Z" fill="#A09CAD"/>
<path d="M48.3487 67.6543H43.4649C43.1963 67.6543 42.9766 67.4321 42.9766 67.1605C42.9766 66.8889 43.1963 66.6667 43.4649 66.6667H48.3487C48.6173 66.6667 48.837 66.8889 48.837 67.1605C48.837 67.4321 48.6173 67.6543 48.3487 67.6543Z" fill="#A09CAD"/>
<path d="M56.1626 40.9877H51.2789C51.0103 40.9877 50.7905 40.7654 50.7905 40.4938C50.7905 40.2222 51.0103 40 51.2789 40H56.1626C56.4312 40 56.651 40.2222 56.651 40.4938C56.651 40.7654 56.4312 40.9877 56.1626 40.9877Z" fill="#A09CAD"/>
<path d="M56.1626 49.8765H51.2789C51.0103 49.8765 50.7905 49.6543 50.7905 49.3827C50.7905 49.1111 51.0103 48.8889 51.2789 48.8889H56.1626C56.4312 48.8889 56.651 49.1111 56.651 49.3827C56.651 49.6543 56.4312 49.8765 56.1626 49.8765Z" fill="#A09CAD"/>
<path d="M56.1626 58.7654H51.2789C51.0103 58.7654 50.7905 58.5432 50.7905 58.2716C50.7905 58 51.0103 57.7778 51.2789 57.7778H56.1626C56.4312 57.7778 56.651 58 56.651 58.2716C56.651 58.5432 56.4312 58.7654 56.1626 58.7654Z" fill="#A09CAD"/>
<path d="M56.1626 67.6543H51.2789C51.0103 67.6543 50.7905 67.4321 50.7905 67.1605C50.7905 66.8889 51.0103 66.6667 51.2789 66.6667H56.1626C56.4312 66.6667 56.651 66.8889 56.651 67.1605C56.651 67.4321 56.4312 67.6543 56.1626 67.6543Z" fill="#A09CAD"/>
<path d="M32.7207 40.4938H27.837C27.5684 40.4938 27.3486 40.2716 27.3486 40C27.3486 39.7284 27.5684 39.5062 27.837 39.5062H32.7207C32.9893 39.5062 33.2091 39.7284 33.2091 40C33.2091 40.2716 32.9893 40.4938 32.7207 40.4938Z" fill="#34234D"/>
<path d="M40.5347 40.4938H35.651C35.3824 40.4938 35.1626 40.2716 35.1626 40C35.1626 39.7284 35.3824 39.5062 35.651 39.5062H40.5347C40.8033 39.5062 41.0231 39.7284 41.0231 40C41.0231 40.2716 40.8033 40.4938 40.5347 40.4938Z" fill="#34234D"/>
<path d="M48.3487 40.4938H43.4649C43.1963 40.4938 42.9766 40.2716 42.9766 40C42.9766 39.7284 43.1963 39.5062 43.4649 39.5062H48.3487C48.6173 39.5062 48.837 39.7284 48.837 40C48.837 40.2716 48.6173 40.4938 48.3487 40.4938Z" fill="#34234D"/>
<path d="M32.7207 49.3827H27.837C27.5684 49.3827 27.3486 49.1605 27.3486 48.8889C27.3486 48.6173 27.5684 48.3951 27.837 48.3951H32.7207C32.9893 48.3951 33.2091 48.6173 33.2091 48.8889C33.2091 49.1605 32.9893 49.3827 32.7207 49.3827Z" fill="#34234D"/>
<path d="M40.5347 49.3827H35.651C35.3824 49.3827 35.1626 49.1605 35.1626 48.8889C35.1626 48.6173 35.3824 48.3951 35.651 48.3951H40.5347C40.8033 48.3951 41.0231 48.6173 41.0231 48.8889C41.0231 49.1605 40.8033 49.3827 40.5347 49.3827Z" fill="#34234D"/>
<path d="M48.3487 49.3827H43.4649C43.1963 49.3827 42.9766 49.1605 42.9766 48.8889C42.9766 48.6173 43.1963 48.3951 43.4649 48.3951H48.3487C48.6173 48.3951 48.837 48.6173 48.837 48.8889C48.837 49.1605 48.6173 49.3827 48.3487 49.3827Z" fill="#34234D"/>
<path d="M32.7207 58.2716H27.837C27.5684 58.2716 27.3486 58.0494 27.3486 57.7778C27.3486 57.5062 27.5684 57.2839 27.837 57.2839H32.7207C32.9893 57.2839 33.2091 57.5062 33.2091 57.7778C33.2091 58.0494 32.9893 58.2716 32.7207 58.2716Z" fill="#34234D"/>
<path d="M40.5347 58.2716H35.651C35.3824 58.2716 35.1626 58.0494 35.1626 57.7778C35.1626 57.5062 35.3824 57.2839 35.651 57.2839H40.5347C40.8033 57.2839 41.0231 57.5062 41.0231 57.7778C41.0231 58.0494 40.8033 58.2716 40.5347 58.2716Z" fill="#34234D"/>
<path d="M48.3487 58.2716H43.4649C43.1963 58.2716 42.9766 58.0494 42.9766 57.7778C42.9766 57.5062 43.1963 57.2839 43.4649 57.2839H48.3487C48.6173 57.2839 48.837 57.5062 48.837 57.7778C48.837 58.0494 48.6173 58.2716 48.3487 58.2716Z" fill="#34234D"/>
<path d="M32.7207 67.1605H27.837C27.5684 67.1605 27.3486 66.9383 27.3486 66.6667C27.3486 66.3951 27.5684 66.1729 27.837 66.1729H32.7207C32.9893 66.1729 33.2091 66.3951 33.2091 66.6667C33.2091 66.9383 32.9893 67.1605 32.7207 67.1605Z" fill="#34234D"/>
<path d="M40.5347 67.1605H35.651C35.3824 67.1605 35.1626 66.9383 35.1626 66.6667C35.1626 66.3951 35.3824 66.1729 35.651 66.1729H40.5347C40.8033 66.1729 41.0231 66.3951 41.0231 66.6667C41.0231 66.9383 40.8033 67.1605 40.5347 67.1605Z" fill="#34234D"/>
<path d="M48.3487 67.1605H43.4649C43.1963 67.1605 42.9766 66.9383 42.9766 66.6667C42.9766 66.3951 43.1963 66.1729 43.4649 66.1729H48.3487C48.6173 66.1729 48.837 66.3951 48.837 66.6667C48.837 66.9383 48.6173 67.1605 48.3487 67.1605Z" fill="#34234D"/>
<path d="M56.1626 40.4938H51.2789C51.0103 40.4938 50.7905 40.2716 50.7905 40C50.7905 39.7284 51.0103 39.5062 51.2789 39.5062H56.1626C56.4312 39.5062 56.651 39.7284 56.651 40C56.651 40.2716 56.4312 40.4938 56.1626 40.4938Z" fill="#34234D"/>
<path d="M56.1626 49.3827H51.2789C51.0103 49.3827 50.7905 49.1605 50.7905 48.8889C50.7905 48.6173 51.0103 48.3951 51.2789 48.3951H56.1626C56.4312 48.3951 56.651 48.6173 56.651 48.8889C56.651 49.1605 56.4312 49.3827 56.1626 49.3827Z" fill="#34234D"/>
<path d="M56.1626 58.2716H51.2789C51.0103 58.2716 50.7905 58.0494 50.7905 57.7778C50.7905 57.5062 51.0103 57.2839 51.2789 57.2839H56.1626C56.4312 57.2839 56.651 57.5062 56.651 57.7778C56.651 58.0494 56.4312 58.2716 56.1626 58.2716Z" fill="#34234D"/>
<path d="M56.1626 67.1605H51.2789C51.0103 67.1605 50.7905 66.9383 50.7905 66.6667C50.7905 66.3951 51.0103 66.1729 51.2789 66.1729H56.1626C56.4312 66.1729 56.651 66.3951 56.651 66.6667C56.651 66.9383 56.4312 67.1605 56.1626 67.1605Z" fill="#34234D"/>
<path d="M42.0001 80C41.7315 80 41.5117 79.7778 41.5117 79.5062V70.6173C41.5117 70.3457 41.7315 70.1235 42.0001 70.1235C42.2687 70.1235 42.4885 70.3457 42.4885 70.6173V79.5062C42.4885 79.7778 42.2687 80 42.0001 80Z" fill="#34234D"/>
<path d="M36.628 80C36.3594 80 36.1396 79.7778 36.1396 79.5062V70.6173C36.1396 70.3457 36.3594 70.1235 36.628 70.1235C36.8966 70.1235 37.1164 70.3457 37.1164 70.6173V79.5062C37.1164 79.7778 36.8966 80 36.628 80Z" fill="#34234D"/>
<path d="M47.3722 80C47.1036 80 46.8838 79.7778 46.8838 79.5062V70.6173C46.8838 70.3457 47.1036 70.1235 47.3722 70.1235C47.6408 70.1235 47.8605 70.3457 47.8605 70.6173V79.5062C47.8605 79.7778 47.6408 80 47.3722 80Z" fill="#34234D"/>
</g>
<defs>
<clipPath id="clip0_22_1715">
<rect width="84" height="80" fill="white"/>
</clipPath>
</defs>
</svg>
