<svg width="84" height="80" viewBox="0 0 84 80" fill="none" xmlns="http://www.w3.org/2000/svg">
<g clip-path="url(#clip0_22_1649)">
<path d="M81.348 30.321C79.7706 23.7827 69.9787 21.7086 65.6762 17.1753C61.2369 12.4938 59.5324 2.59258 53.3741 0.770356C47.4013 -0.997545 40.7301 6.3111 34.2494 7.90616C27.7687 9.50122 18.5092 6.10863 14.0162 10.4543C9.37662 14.9333 12.3801 24.5185 10.5731 30.7358C8.81988 36.7605 1.0743 43.1457 2.65662 49.6839C4.23407 56.2271 14.0259 58.2963 18.3285 62.8296C22.7678 67.5111 24.4722 77.4123 30.6306 79.2346C36.6034 81.0025 43.2745 73.6938 49.7552 72.0988C56.2359 70.5037 65.4955 73.8963 69.9885 69.5506C74.628 65.0716 71.6245 55.4864 73.4315 49.2691C75.1848 43.2444 82.9303 36.8592 81.348 30.321Z" fill="#E6E6E6"/>
<path d="M2.642 60.1136C2.45642 59.7827 2.34898 59.4025 2.34898 58.9926C2.34898 57.7333 3.35991 56.7111 4.60526 56.7111C5.18642 56.7111 5.71875 56.9383 6.11921 57.3037C6.37805 55.2889 8.07758 53.7284 10.1434 53.7284C12.3899 53.7284 14.2067 55.5704 14.2067 57.837C14.2067 58.0938 14.1822 58.3457 14.1334 58.5926C14.3629 58.5432 14.5974 58.5136 14.8367 58.5136C16.7267 58.5136 18.2601 60.0642 18.2601 61.9753C18.2601 63.8864 16.7267 65.437 14.8367 65.437H3.14991C1.67991 65.437 0.488281 64.2321 0.488281 62.7457C0.488281 61.4321 1.41619 60.3457 2.642 60.1086V60.1136Z" fill="white"/>
<path d="M14.8416 65.9358H3.15C1.4114 65.9358 0 64.5086 0 62.7506C0 61.4321 0.805814 60.2716 1.98279 59.7975C1.90465 59.5358 1.86558 59.2642 1.86558 58.9926C1.86558 57.4617 3.09628 56.2173 4.61023 56.2173C5.02535 56.2173 5.4307 56.3111 5.79698 56.4938C6.37326 54.5926 8.12651 53.2346 10.1484 53.2346C12.6586 53.2346 14.7 55.2988 14.7 57.837C14.7 57.9012 14.7 57.9605 14.7 58.0247C16.927 57.9309 18.7584 59.7481 18.7584 61.9802C18.7584 64.2123 17.0051 65.9358 14.8465 65.9358H14.8416ZM4.60535 57.2049C3.63349 57.2049 2.83744 58.0049 2.83744 58.9926C2.83744 59.2988 2.91558 59.6049 3.06698 59.8716C3.14512 60.0099 3.15 60.1778 3.08651 60.321C3.01814 60.4642 2.89116 60.5679 2.73488 60.5975C1.71419 60.795 0.976744 61.6988 0.976744 62.7506C0.976744 63.9605 1.95349 64.9481 3.15 64.9481H14.8416C16.4581 64.9481 17.7767 63.6148 17.7767 61.9802C17.7767 60.1481 16.1309 58.6716 14.2409 59.0765C14.0798 59.1111 13.9137 59.0617 13.7965 58.9481C13.6793 58.8346 13.6256 58.6667 13.6598 58.5037C13.7037 58.2716 13.7233 58.0543 13.7233 57.837C13.7233 55.842 12.1214 54.2222 10.1484 54.2222C8.36093 54.2222 6.83721 55.5753 6.60767 57.3679C6.58326 57.5506 6.46116 57.7037 6.29023 57.7679C6.1193 57.8321 5.92884 57.7926 5.79209 57.6691C5.46488 57.3679 5.04488 57.2049 4.60535 57.2049Z" fill="#A09CAD"/>
<path d="M65.5935 18.4593C65.4861 18.2716 65.4274 18.0494 65.4274 17.8173C65.4274 17.0963 66.0037 16.5136 66.7167 16.5136C67.0488 16.5136 67.3565 16.642 67.5812 16.8543C67.7277 15.6988 68.7044 14.8049 69.8863 14.8049C71.1707 14.8049 72.2158 15.8568 72.2158 17.1605C72.2158 17.3086 72.2012 17.4518 72.1767 17.5951C72.3086 17.5654 72.4405 17.5506 72.5821 17.5506C73.6663 17.5506 74.5454 18.4395 74.5454 19.5358C74.5454 20.6321 73.6663 21.521 72.5821 21.521H65.8865C65.0465 21.521 64.3628 20.8296 64.3628 19.9802C64.3628 19.2296 64.8951 18.6074 65.5984 18.4691L65.5935 18.4593Z" fill="white"/>
<path d="M72.5768 22.0049H65.8812C64.7726 22.0049 63.8691 21.0913 63.8691 19.9704C63.8691 19.1901 64.3087 18.4988 64.968 18.158C64.9484 18.0444 64.9338 17.9309 64.9338 17.8173C64.9338 16.8247 65.7298 16.0197 66.7115 16.0197C66.9019 16.0197 67.0875 16.0494 67.2682 16.1086C67.6833 15.0469 68.7138 14.3111 69.8859 14.3111C71.4047 14.3111 72.6452 15.5358 72.6989 17.0568C73.9931 17.121 75.0236 18.2074 75.0236 19.5308C75.0236 20.8543 73.9247 22.0099 72.5719 22.0099L72.5768 22.0049ZM66.7164 17.0074C66.2719 17.0074 65.9154 17.3728 65.9154 17.8173C65.9154 17.9605 65.9496 18.0938 66.018 18.2173C66.0961 18.3555 66.101 18.5234 66.0375 18.6667C65.974 18.8099 65.8422 18.9136 65.6859 18.9432C65.1975 19.037 64.8459 19.4667 64.8459 19.9704C64.8459 20.5481 65.3098 21.0173 65.8812 21.0173H72.5768C73.3875 21.0173 74.0517 20.3506 74.0517 19.5259C74.0517 18.6025 73.2312 17.8667 72.2789 18.0691C72.1177 18.1037 71.9517 18.0543 71.8345 17.9407C71.7173 17.8271 71.6636 17.6592 71.6929 17.4963C71.7173 17.3778 71.727 17.2642 71.727 17.1555C71.727 16.1284 70.9017 15.2938 69.8859 15.2938C68.9677 15.2938 68.1815 15.9901 68.0643 16.9136C68.0398 17.0963 67.9177 17.2494 67.7468 17.3136C67.5759 17.3778 67.3854 17.3383 67.2487 17.2148C67.0973 17.0765 66.9068 17.0025 66.7115 17.0025L66.7164 17.0074Z" fill="#A09CAD"/>
<path d="M81.6997 46.1679C81.856 45.8913 81.9439 45.5704 81.9439 45.2247C81.9439 44.163 81.0941 43.3086 80.049 43.3086C79.5558 43.3086 79.1113 43.4963 78.7744 43.8074C78.5546 42.1086 77.1237 40.8 75.3851 40.8C73.4951 40.8 71.9665 42.3457 71.9665 44.2568C71.9665 44.4741 71.9909 44.6864 72.0251 44.8938C71.8346 44.8543 71.6344 44.8296 71.4341 44.8296C69.842 44.8296 68.5527 46.1333 68.5527 47.7432C68.5527 49.3531 69.842 50.6568 71.4341 50.6568H81.2748C82.5104 50.6568 83.5116 49.6444 83.5116 48.395C83.5116 47.2938 82.7302 46.3753 81.6997 46.1778V46.1679Z" fill="white"/>
<path d="M81.2749 51.1407H71.4342C69.5784 51.1407 68.0645 49.6148 68.0645 47.7333C68.0645 45.8519 69.5735 44.3259 71.4342 44.3259C71.4489 44.3259 71.4635 44.3259 71.4782 44.3259C71.4782 44.3012 71.4782 44.2716 71.4782 44.2469C71.4782 42.0691 73.2314 40.2963 75.3852 40.2963C77.0896 40.2963 78.5742 41.4222 79.0919 43.0074C79.3898 42.8741 79.7121 42.8049 80.0442 42.8049C81.3579 42.8049 82.4275 43.8864 82.4275 45.2148C82.4275 45.4272 82.3982 45.6395 82.3445 45.8469C83.3261 46.2716 83.9952 47.2593 83.9952 48.3802C83.9952 49.9012 82.7742 51.1358 81.27 51.1358L81.2749 51.1407ZM71.4342 45.3185C70.1156 45.3185 69.0412 46.4049 69.0412 47.7383C69.0412 49.0716 70.1156 50.158 71.4342 50.158H81.2749C82.2419 50.158 83.0233 49.363 83.0233 48.3901C83.0233 47.5457 82.4275 46.8148 81.607 46.6568C81.4507 46.6272 81.3238 46.5235 81.2554 46.3802C81.187 46.237 81.1968 46.0691 81.2749 45.9309C81.397 45.7185 81.4605 45.4765 81.4605 45.2296C81.4605 44.4444 80.8305 43.8074 80.054 43.8074C79.7072 43.8074 79.3703 43.9407 79.1065 44.1778C78.9698 44.3012 78.7793 44.3407 78.6084 44.2765C78.4375 44.2123 78.3154 44.0593 78.291 43.8765C78.1005 42.4049 76.8552 41.2988 75.3852 41.2988C73.7686 41.2988 72.4549 42.6272 72.4549 44.2617C72.4549 44.4395 72.4696 44.6173 72.5086 44.8049C72.5379 44.9679 72.4842 45.1358 72.3719 45.2494C72.2547 45.363 72.0886 45.4123 71.9275 45.3778C71.7614 45.3432 71.5954 45.3235 71.4391 45.3235L71.4342 45.3185Z" fill="#A09CAD"/>
<path d="M31.6561 6.01977C31.4949 5.73335 31.4022 5.40248 31.4022 5.05187C31.4022 3.96051 32.2763 3.0815 33.3508 3.0815C33.8538 3.0815 34.3129 3.27903 34.6596 3.59508C34.8842 1.85187 36.3542 0.498779 38.1417 0.498779C40.0854 0.498779 41.658 2.0889 41.658 4.05433C41.658 4.27656 41.6336 4.49384 41.5945 4.70619C41.7898 4.66174 41.9949 4.64199 42.2049 4.64199C43.841 4.64199 45.1694 5.9852 45.1694 7.63952C45.1694 9.29384 43.841 10.6371 42.2049 10.6371H32.0908C30.821 10.6371 29.7905 9.59508 29.7905 8.31112C29.7905 7.17532 30.5915 6.23705 31.6561 6.02964V6.01977Z" fill="white"/>
<path d="M42.2099 11.121H32.0957C30.5574 11.121 29.3071 9.8568 29.3071 8.30124C29.3071 7.15556 29.9957 6.13828 31.0067 5.70865C30.9481 5.4963 30.9188 5.27408 30.9188 5.05186C30.9188 3.69383 32.0127 2.58766 33.3557 2.58766C33.6976 2.58766 34.0346 2.66173 34.3422 2.80001C34.8697 1.16544 36.3934 0.00494385 38.1467 0.00494385C40.3541 0.00494385 42.1513 1.82223 42.1513 4.05433C42.1513 4.08396 42.1513 4.11852 42.1513 4.14815C44.0706 4.11359 45.6627 5.69383 45.6627 7.63457C45.6627 9.57531 44.1146 11.1259 42.2099 11.1259V11.121ZM33.3509 3.57038C32.545 3.57038 31.8906 4.2321 31.8906 5.04692C31.8906 5.29877 31.9541 5.55062 32.0811 5.77284C32.1592 5.91112 32.1641 6.07902 32.1006 6.22223C32.0322 6.36544 31.9053 6.46914 31.749 6.49877C30.8992 6.66173 30.279 7.41729 30.279 8.2963C30.279 9.30865 31.0946 10.1284 32.0909 10.1284H42.205C43.5676 10.1284 44.6811 9.00741 44.6811 7.6247C44.6811 6.07902 43.2843 4.83457 41.702 5.18025C41.5408 5.21482 41.3748 5.16544 41.2576 5.05186C41.1404 4.93828 41.0867 4.77038 41.116 4.60741C41.1502 4.40988 41.1697 4.22717 41.1697 4.04445C41.1697 2.35556 39.812 0.982722 38.1418 0.982722C36.6278 0.982722 35.3385 2.1284 35.1432 3.64939C35.1188 3.8321 34.9967 3.98519 34.8257 4.04939C34.6548 4.11359 34.4643 4.07408 34.3276 3.95062C34.059 3.70371 33.7074 3.56544 33.346 3.56544L33.3509 3.57038Z" fill="#A09CAD"/>
<path d="M18.3873 17.7432C18.5192 17.5111 18.5924 17.2395 18.5924 16.9482C18.5924 16.0593 17.8794 15.3333 17.0003 15.3333C16.5901 15.3333 16.2141 15.4914 15.9308 15.7531C15.7501 14.3259 14.5438 13.2247 13.0836 13.2247C11.4964 13.2247 10.212 14.5235 10.212 16.1284C10.212 16.3111 10.2315 16.4889 10.2608 16.6617C10.0996 16.6272 9.93359 16.6074 9.76266 16.6074C8.42452 16.6074 7.34033 17.7037 7.34033 19.0568C7.34033 20.4099 8.42452 21.5062 9.76266 21.5062H18.0308C19.071 21.5062 19.911 20.6568 19.911 19.6049C19.911 18.6766 19.2566 17.9062 18.3873 17.7383V17.7432Z" fill="white"/>
<path d="M18.0309 22.0049H9.76275C8.156 22.0049 6.85205 20.6864 6.85205 19.0617C6.85205 17.437 8.13647 16.1432 9.71879 16.1185C9.72856 14.2519 11.2327 12.7309 13.0788 12.7309C14.5195 12.7309 15.7746 13.6593 16.2434 14.9827C16.4827 14.8889 16.7367 14.8395 16.9955 14.8395C18.1432 14.8395 19.076 15.7827 19.076 16.9432C19.076 17.1062 19.0565 17.2691 19.0174 17.4272C19.8379 17.8123 20.3897 18.6519 20.3897 19.6C20.3897 20.9235 19.3251 21.9951 18.0211 21.9951L18.0309 22.0049ZM9.76275 17.1111C8.6981 17.1111 7.8288 17.9901 7.8288 19.0667C7.8288 20.1432 8.6981 21.0222 9.76275 21.0222H18.0309C18.7976 21.0222 19.4227 20.3901 19.4227 19.6148C19.4227 18.9432 18.949 18.3605 18.2946 18.2321C18.1383 18.2025 18.0114 18.0988 17.943 17.9556C17.8795 17.8123 17.8844 17.6444 17.9625 17.5062C18.0553 17.3383 18.1041 17.1506 18.1041 16.958C18.1041 16.3407 17.606 15.842 17.0004 15.842C16.7269 15.842 16.4632 15.9457 16.2581 16.1333C16.1214 16.2568 15.9309 16.2963 15.76 16.2321C15.589 16.1679 15.4669 16.0148 15.4425 15.8321C15.2911 14.637 14.2753 13.7333 13.0788 13.7333C11.7651 13.7333 10.6955 14.8148 10.6955 16.1432C10.6955 16.2864 10.7102 16.4296 10.7395 16.5877C10.7688 16.7506 10.7151 16.9185 10.6027 17.0321C10.4855 17.1457 10.3195 17.1951 10.1583 17.1605C10.0216 17.1309 9.88973 17.1161 9.76275 17.1161V17.1111Z" fill="#A09CAD"/>
<path d="M83.5116 80H0.488372C0.219767 80 0 79.7778 0 79.5062C0 79.2346 0.219767 79.0123 0.488372 79.0123H83.5116C83.7802 79.0123 84 79.2346 84 79.5062C84 79.7778 83.7802 80 83.5116 80Z" fill="#A09CAD"/>
<path d="M68.8605 26.1729H15.1396C12.4424 26.1729 10.2559 28.3838 10.2559 31.1111V74.5679C10.2559 77.2952 12.4424 79.5062 15.1396 79.5062H68.8605C71.5577 79.5062 73.7442 77.2952 73.7442 74.5679V31.1111C73.7442 28.3838 71.5577 26.1729 68.8605 26.1729Z" fill="#2FC8F2"/>
<path d="M68.8605 35.0617H15.1396C12.4424 35.0617 10.2559 37.2727 10.2559 40V74.5679C10.2559 77.2952 12.4424 79.5062 15.1396 79.5062H68.8605C71.5577 79.5062 73.7442 77.2952 73.7442 74.5679V40C73.7442 37.2727 71.5577 35.0617 68.8605 35.0617Z" fill="#00B5F4"/>
<path d="M64.9535 26.1729H19.0466C19.0466 31.0815 15.1103 35.0617 10.2559 35.0617V70.6173C15.1103 70.6173 19.0466 74.5975 19.0466 79.5062H64.9535C64.9535 74.5975 68.8898 70.6173 73.7442 70.6173V35.0617C68.8898 35.0617 64.9535 31.0815 64.9535 26.1729Z" fill="#EDEDED"/>
<path d="M64.9535 26.1729H19.0466C19.0466 31.0815 15.1103 35.0617 10.2559 35.0617V64.6914H73.7442V35.0617C68.8898 35.0617 64.9535 31.0815 64.9535 26.1729Z" fill="white"/>
<path d="M68.8606 80H15.1397C12.1753 80 9.76758 77.5654 9.76758 74.5679V62.2222C9.76758 61.9506 9.98735 61.7284 10.256 61.7284C10.5246 61.7284 10.7443 61.9506 10.7443 62.2222V74.5679C10.7443 77.0173 12.7173 79.0123 15.1397 79.0123H68.8606C71.2829 79.0123 73.256 77.0173 73.256 74.5679V47.4074C73.256 47.1358 73.4757 46.9136 73.7443 46.9136C74.0129 46.9136 74.2327 47.1358 74.2327 47.4074V74.5679C74.2327 77.5654 71.825 80 68.8606 80Z" fill="#34234D"/>
<path d="M10.256 59.7531C9.98735 59.7531 9.76758 59.5309 9.76758 59.2593V31.1111C9.76758 28.1136 12.1753 25.679 15.1397 25.679H68.8606C71.825 25.679 74.2327 28.1136 74.2327 31.1111V44.4444C74.2327 44.7161 74.0129 44.9383 73.7443 44.9383C73.4757 44.9383 73.256 44.7161 73.256 44.4444V31.1111C73.256 28.6617 71.2829 26.6667 68.8606 26.6667H15.1397C12.7173 26.6667 10.7443 28.6617 10.7443 31.1111V59.2593C10.7443 59.5309 10.5246 59.7531 10.256 59.7531Z" fill="#34234D"/>
<path d="M54.2094 15.3087H29.7908C28.9816 15.3087 28.3257 15.9719 28.3257 16.7901V17.7778C28.3257 18.596 28.9816 19.2593 29.7908 19.2593H54.2094C55.0186 19.2593 55.6745 18.596 55.6745 17.7778V16.7901C55.6745 15.9719 55.0186 15.3087 54.2094 15.3087Z" fill="#A09CAD"/>
<path d="M54.2094 15.3087H29.7908C28.9801 15.3087 28.3257 15.9704 28.3257 16.7901C28.3257 17.3333 28.7652 17.7778 29.3024 17.7778H54.6978C55.235 17.7778 55.6745 17.3333 55.6745 16.7901C55.6745 15.9704 55.0201 15.3087 54.2094 15.3087Z" fill="#B8B5C6"/>
<path d="M54.2095 19.7531H29.7909C28.7116 19.7531 27.8374 18.8691 27.8374 17.7778V16.7901C27.8374 15.6988 28.7116 14.8148 29.7909 14.8148H43.9537C44.2223 14.8148 44.4421 15.037 44.4421 15.3086C44.4421 15.5803 44.2223 15.8025 43.9537 15.8025H29.7909C29.2537 15.8025 28.8141 16.2469 28.8141 16.7901V17.7778C28.8141 18.321 29.2537 18.7654 29.7909 18.7654H54.2095C54.7467 18.7654 55.1862 18.321 55.1862 17.7778V16.7901C55.1862 16.2469 54.7467 15.8025 54.2095 15.8025H46.8839C46.6153 15.8025 46.3955 15.5803 46.3955 15.3086C46.3955 15.037 46.6153 14.8148 46.8839 14.8148H54.2095C55.2888 14.8148 56.163 15.6988 56.163 16.7901V17.7778C56.163 18.8691 55.2888 19.7531 54.2095 19.7531Z" fill="#34234D"/>
<path d="M70.3258 69.1358C70.0572 69.1358 69.8374 68.9136 69.8374 68.642V67.6543C69.8374 67.3827 70.0572 67.1605 70.3258 67.1605C70.5944 67.1605 70.8141 67.3827 70.8141 67.6543V68.642C70.8141 68.9136 70.5944 69.1358 70.3258 69.1358Z" fill="#B8B5C6"/>
<path d="M70.3258 64.9728C70.0572 64.9728 69.8374 64.7506 69.8374 64.479V62.3605C69.8374 62.0889 70.0572 61.8667 70.3258 61.8667C70.5944 61.8667 70.8141 62.0889 70.8141 62.3605V64.479C70.8141 64.7506 70.5944 64.9728 70.3258 64.9728ZM70.3258 59.684C70.0572 59.684 69.8374 59.4617 69.8374 59.1901V57.0716C69.8374 56.8 70.0572 56.5778 70.3258 56.5778C70.5944 56.5778 70.8141 56.8 70.8141 57.0716V59.1901C70.8141 59.4617 70.5944 59.684 70.3258 59.684ZM70.3258 54.3901C70.0572 54.3901 69.8374 54.1679 69.8374 53.8963V51.7778C69.8374 51.5062 70.0572 51.2839 70.3258 51.2839C70.5944 51.2839 70.8141 51.5062 70.8141 51.7778V53.8963C70.8141 54.1679 70.5944 54.3901 70.3258 54.3901ZM70.3258 49.1012C70.0572 49.1012 69.8374 48.879 69.8374 48.6074V46.4889C69.8374 46.2173 70.0572 45.9951 70.3258 45.9951C70.5944 45.9951 70.8141 46.2173 70.8141 46.4889V48.6074C70.8141 48.879 70.5944 49.1012 70.3258 49.1012ZM70.3258 43.8074C70.0572 43.8074 69.8374 43.5852 69.8374 43.3136V41.1951C69.8374 40.9235 70.0572 40.7012 70.3258 40.7012C70.5944 40.7012 70.8141 40.9235 70.8141 41.1951V43.3136C70.8141 43.5852 70.5944 43.8074 70.3258 43.8074Z" fill="#B8B5C6"/>
<path d="M70.3258 38.5185C70.0572 38.5185 69.8374 38.2963 69.8374 38.0247V37.037C69.8374 36.7654 70.0572 36.5432 70.3258 36.5432C70.5944 36.5432 70.8141 36.7654 70.8141 37.037V38.0247C70.8141 38.2963 70.5944 38.5185 70.3258 38.5185Z" fill="#B8B5C6"/>
<path d="M21.9768 76.5432H21.0001C20.7315 76.5432 20.5117 76.321 20.5117 76.0494C20.5117 75.7778 20.7315 75.5555 21.0001 75.5555H21.9768C22.2454 75.5555 22.4652 75.7778 22.4652 76.0494C22.4652 76.321 22.2454 76.5432 21.9768 76.5432Z" fill="#B8B5C6"/>
<path d="M59.2296 76.5432H57.3689C57.1003 76.5432 56.8806 76.321 56.8806 76.0494C56.8806 75.7778 57.1003 75.5555 57.3689 75.5555H59.2296C59.4982 75.5555 59.718 75.7778 59.718 76.0494C59.718 76.321 59.4982 76.5432 59.2296 76.5432ZM54.5706 76.5432H52.7099C52.4413 76.5432 52.2215 76.321 52.2215 76.0494C52.2215 75.7778 52.4413 75.5555 52.7099 75.5555H54.5706C54.8392 75.5555 55.0589 75.7778 55.0589 76.0494C55.0589 76.321 54.8392 76.5432 54.5706 76.5432ZM49.9164 76.5432H48.0557C47.7871 76.5432 47.5673 76.321 47.5673 76.0494C47.5673 75.7778 47.7871 75.5555 48.0557 75.5555H49.9164C50.185 75.5555 50.4048 75.7778 50.4048 76.0494C50.4048 76.321 50.185 76.5432 49.9164 76.5432ZM45.2573 76.5432H43.3966C43.128 76.5432 42.9083 76.321 42.9083 76.0494C42.9083 75.7778 43.128 75.5555 43.3966 75.5555H45.2573C45.5259 75.5555 45.7457 75.7778 45.7457 76.0494C45.7457 76.321 45.5259 76.5432 45.2573 76.5432ZM40.6031 76.5432H38.7424C38.4738 76.5432 38.2541 76.321 38.2541 76.0494C38.2541 75.7778 38.4738 75.5555 38.7424 75.5555H40.6031C40.8717 75.5555 41.0915 75.7778 41.0915 76.0494C41.0915 76.321 40.8717 76.5432 40.6031 76.5432ZM35.9441 76.5432H34.0834C33.8148 76.5432 33.595 76.321 33.595 76.0494C33.595 75.7778 33.8148 75.5555 34.0834 75.5555H35.9441C36.2127 75.5555 36.4324 75.7778 36.4324 76.0494C36.4324 76.321 36.2127 76.5432 35.9441 76.5432ZM31.2899 76.5432H29.4292C29.1606 76.5432 28.9408 76.321 28.9408 76.0494C28.9408 75.7778 29.1606 75.5555 29.4292 75.5555H31.2899C31.5585 75.5555 31.7782 75.7778 31.7782 76.0494C31.7782 76.321 31.5585 76.5432 31.2899 76.5432ZM26.6308 76.5432H24.7701C24.5015 76.5432 24.2817 76.321 24.2817 76.0494C24.2817 75.7778 24.5015 75.5555 24.7701 75.5555H26.6308C26.8994 75.5555 27.1192 75.7778 27.1192 76.0494C27.1192 76.321 26.8994 76.5432 26.6308 76.5432Z" fill="#B8B5C6"/>
<path d="M62.9998 76.5432H62.023C61.7544 76.5432 61.5347 76.321 61.5347 76.0494C61.5347 75.7778 61.7544 75.5555 62.023 75.5555H62.9998C63.2684 75.5555 63.4882 75.7778 63.4882 76.0494C63.4882 76.321 63.2684 76.5432 62.9998 76.5432Z" fill="#B8B5C6"/>
<path d="M13.6744 38.5185C13.4058 38.5185 13.186 38.2963 13.186 38.0247V37.037C13.186 36.7654 13.4058 36.5432 13.6744 36.5432C13.943 36.5432 14.1628 36.7654 14.1628 37.037V38.0247C14.1628 38.2963 13.943 38.5185 13.6744 38.5185Z" fill="#B8B5C6"/>
<path d="M13.6744 64.9728C13.4058 64.9728 13.186 64.7506 13.186 64.479V62.3605C13.186 62.0889 13.4058 61.8667 13.6744 61.8667C13.943 61.8667 14.1628 62.0889 14.1628 62.3605V64.479C14.1628 64.7506 13.943 64.9728 13.6744 64.9728ZM13.6744 59.684C13.4058 59.684 13.186 59.4617 13.186 59.1901V57.0716C13.186 56.8 13.4058 56.5778 13.6744 56.5778C13.943 56.5778 14.1628 56.8 14.1628 57.0716V59.1901C14.1628 59.4617 13.943 59.684 13.6744 59.684ZM13.6744 54.3901C13.4058 54.3901 13.186 54.1679 13.186 53.8963V51.7778C13.186 51.5062 13.4058 51.2839 13.6744 51.2839C13.943 51.2839 14.1628 51.5062 14.1628 51.7778V53.8963C14.1628 54.1679 13.943 54.3901 13.6744 54.3901ZM13.6744 49.1012C13.4058 49.1012 13.186 48.879 13.186 48.6074V46.4889C13.186 46.2173 13.4058 45.9951 13.6744 45.9951C13.943 45.9951 14.1628 46.2173 14.1628 46.4889V48.6074C14.1628 48.879 13.943 49.1012 13.6744 49.1012ZM13.6744 43.8074C13.4058 43.8074 13.186 43.5852 13.186 43.3136V41.1951C13.186 40.9235 13.4058 40.7012 13.6744 40.7012C13.943 40.7012 14.1628 40.9235 14.1628 41.1951V43.3136C14.1628 43.5852 13.943 43.8074 13.6744 43.8074Z" fill="#B8B5C6"/>
<path d="M13.6744 69.1358C13.4058 69.1358 13.186 68.9136 13.186 68.642V67.6543C13.186 67.3827 13.4058 67.1605 13.6744 67.1605C13.943 67.1605 14.1628 67.3827 14.1628 67.6543V68.642C14.1628 68.9136 13.943 69.1358 13.6744 69.1358Z" fill="#B8B5C6"/>
<path d="M62.9998 30.1235H62.023C61.7544 30.1235 61.5347 29.9012 61.5347 29.6296C61.5347 29.358 61.7544 29.1358 62.023 29.1358H62.9998C63.2684 29.1358 63.4882 29.358 63.4882 29.6296C63.4882 29.9012 63.2684 30.1235 62.9998 30.1235Z" fill="#B8B5C6"/>
<path d="M59.2296 30.1235H57.3689C57.1003 30.1235 56.8806 29.9012 56.8806 29.6296C56.8806 29.358 57.1003 29.1358 57.3689 29.1358H59.2296C59.4982 29.1358 59.718 29.358 59.718 29.6296C59.718 29.9012 59.4982 30.1235 59.2296 30.1235ZM54.5706 30.1235H52.7099C52.4413 30.1235 52.2215 29.9012 52.2215 29.6296C52.2215 29.358 52.4413 29.1358 52.7099 29.1358H54.5706C54.8392 29.1358 55.0589 29.358 55.0589 29.6296C55.0589 29.9012 54.8392 30.1235 54.5706 30.1235ZM49.9164 30.1235H48.0557C47.7871 30.1235 47.5673 29.9012 47.5673 29.6296C47.5673 29.358 47.7871 29.1358 48.0557 29.1358H49.9164C50.185 29.1358 50.4048 29.358 50.4048 29.6296C50.4048 29.9012 50.185 30.1235 49.9164 30.1235ZM45.2573 30.1235H43.3966C43.128 30.1235 42.9082 29.9012 42.9082 29.6296C42.9082 29.358 43.128 29.1358 43.3966 29.1358H45.2573C45.5259 29.1358 45.7457 29.358 45.7457 29.6296C45.7457 29.9012 45.5259 30.1235 45.2573 30.1235ZM40.6031 30.1235H38.7424C38.4738 30.1235 38.2541 29.9012 38.2541 29.6296C38.2541 29.358 38.4738 29.1358 38.7424 29.1358H40.6031C40.8717 29.1358 41.0915 29.358 41.0915 29.6296C41.0915 29.9012 40.8717 30.1235 40.6031 30.1235ZM35.9441 30.1235H34.0834C33.8148 30.1235 33.595 29.9012 33.595 29.6296C33.595 29.358 33.8148 29.1358 34.0834 29.1358H35.9441C36.2127 29.1358 36.4324 29.358 36.4324 29.6296C36.4324 29.9012 36.2127 30.1235 35.9441 30.1235ZM31.2899 30.1235H29.4292C29.1606 30.1235 28.9408 29.9012 28.9408 29.6296C28.9408 29.358 29.1606 29.1358 29.4292 29.1358H31.2899C31.5585 29.1358 31.7782 29.358 31.7782 29.6296C31.7782 29.9012 31.5585 30.1235 31.2899 30.1235ZM26.6357 30.1235H24.775C24.5064 30.1235 24.2866 29.9012 24.2866 29.6296C24.2866 29.358 24.5064 29.1358 24.775 29.1358H26.6357C26.9043 29.1358 27.1241 29.358 27.1241 29.6296C27.1241 29.9012 26.9043 30.1235 26.6357 30.1235Z" fill="#B8B5C6"/>
<path d="M21.9768 30.1235H21.0001C20.7315 30.1235 20.5117 29.9012 20.5117 29.6296C20.5117 29.358 20.7315 29.1358 21.0001 29.1358H21.9768C22.2454 29.1358 22.4652 29.358 22.4652 29.6296C22.4652 29.9012 22.2454 30.1235 21.9768 30.1235Z" fill="#B8B5C6"/>
<path d="M10.256 35.5556C9.98735 35.5556 9.76758 35.3333 9.76758 35.0617C9.76758 34.7901 9.98735 34.5679 10.256 34.5679C14.832 34.5679 18.5583 30.8 18.5583 26.1728C18.5583 25.9012 18.778 25.679 19.0466 25.679C19.3153 25.679 19.535 25.9012 19.535 26.1728C19.535 31.3482 15.3741 35.5556 10.256 35.5556Z" fill="#34234D"/>
<path d="M73.7444 35.5556C68.6263 35.5556 64.4653 31.3482 64.4653 26.1728C64.4653 25.9012 64.6851 25.679 64.9537 25.679C65.2223 25.679 65.4421 25.9012 65.4421 26.1728C65.4421 30.8 69.1684 34.5679 73.7444 34.5679C74.013 34.5679 74.2328 34.7901 74.2328 35.0617C74.2328 35.3333 74.013 35.5556 73.7444 35.5556Z" fill="#34234D"/>
<path d="M64.9537 80C64.6851 80 64.4653 79.7778 64.4653 79.5062C64.4653 74.3309 68.6263 70.1235 73.7444 70.1235C74.013 70.1235 74.2328 70.3457 74.2328 70.6173C74.2328 70.8889 74.013 71.1111 73.7444 71.1111C69.1684 71.1111 65.4421 74.879 65.4421 79.5062C65.4421 79.7778 65.2223 80 64.9537 80Z" fill="#34234D"/>
<path d="M19.0466 80C18.778 80 18.5583 79.7778 18.5583 79.5062C18.5583 74.879 14.832 71.1111 10.256 71.1111C9.98735 71.1111 9.76758 70.8889 9.76758 70.6173C9.76758 70.3457 9.98735 70.1235 10.256 70.1235C15.3741 70.1235 19.535 74.3309 19.535 79.5062C19.535 79.7778 19.3153 80 19.0466 80Z" fill="#34234D"/>
<path d="M53.7209 19.2592H50.3022V26.1728H53.7209V19.2592Z" fill="#00B5F4"/>
<path d="M33.6979 19.2592H30.2793V26.1728H33.6979V19.2592Z" fill="#00B5F4"/>
<path d="M53.7209 26.6667H50.3023C50.0337 26.6667 49.814 26.4445 49.814 26.1728V19.2593C49.814 18.9877 50.0337 18.7654 50.3023 18.7654H53.7209C53.9895 18.7654 54.2093 18.9877 54.2093 19.2593V26.1728C54.2093 26.4445 53.9895 26.6667 53.7209 26.6667ZM50.7907 25.679H53.2326V19.7531H50.7907V25.679Z" fill="#34234D"/>
<path d="M33.6975 26.6667H30.2789C30.0103 26.6667 29.7905 26.4445 29.7905 26.1728V19.2593C29.7905 18.9877 30.0103 18.7654 30.2789 18.7654H33.6975C33.9661 18.7654 34.1859 18.9877 34.1859 19.2593V26.1728C34.1859 26.4445 33.9661 26.6667 33.6975 26.6667ZM30.7673 25.679H33.2091V19.7531H30.7673V25.679Z" fill="#34234D"/>
<path d="M60.5582 26.1729H54.6978V79.5062H60.5582V26.1729Z" fill="#FF5067"/>
<path d="M60.5583 80H54.6978C54.4292 80 54.2095 79.7778 54.2095 79.5062V26.1728C54.2095 25.9012 54.4292 25.679 54.6978 25.679H60.5583C60.8269 25.679 61.0467 25.9012 61.0467 26.1728V79.5062C61.0467 79.7778 60.8269 80 60.5583 80ZM55.1862 79.0123H60.0699V26.6667H55.1862V79.0123Z" fill="#34234D"/>
<path d="M60.5582 26.1729H54.6978V64.6914C54.6978 66.3259 56.0115 67.6543 57.628 67.6543C59.2445 67.6543 60.5582 66.3259 60.5582 64.6914V26.1729Z" fill="#FF6E86"/>
<path d="M29.3024 26.1729H23.4419V79.5062H29.3024V26.1729Z" fill="#FF5067"/>
<path d="M29.3024 26.1729H23.4419V64.6914C23.4419 66.3259 24.7556 67.6543 26.3721 67.6543C27.9886 67.6543 29.3024 66.3259 29.3024 64.6914V26.1729Z" fill="#FF6E86"/>
<path d="M57.6281 68.1482C55.743 68.1482 54.2095 66.5975 54.2095 64.6914V26.1728C54.2095 25.9012 54.4292 25.679 54.6978 25.679H60.5583C60.8269 25.679 61.0467 25.9012 61.0467 26.1728V64.6914C61.0467 66.5975 59.5132 68.1482 57.6281 68.1482ZM55.1862 26.6667V64.6914C55.1862 66.0543 56.2802 67.1605 57.6281 67.1605C58.976 67.1605 60.0699 66.0543 60.0699 64.6914V26.6667H55.1862Z" fill="#34234D"/>
<path d="M57.6281 63.9506C58.0326 63.9506 58.3606 63.619 58.3606 63.2099C58.3606 62.8008 58.0326 62.4691 57.6281 62.4691C57.2235 62.4691 56.8955 62.8008 56.8955 63.2099C56.8955 63.619 57.2235 63.9506 57.6281 63.9506Z" fill="white"/>
<path d="M57.6281 60.4938C58.0326 60.4938 58.3606 60.1622 58.3606 59.7531C58.3606 59.344 58.0326 59.0123 57.6281 59.0123C57.2235 59.0123 56.8955 59.344 56.8955 59.7531C56.8955 60.1622 57.2235 60.4938 57.6281 60.4938Z" fill="white"/>
<path d="M57.6281 50.6173C58.0326 50.6173 58.3606 50.2856 58.3606 49.8765C58.3606 49.4674 58.0326 49.1358 57.6281 49.1358C57.2235 49.1358 56.8955 49.4674 56.8955 49.8765C56.8955 50.2856 57.2235 50.6173 57.6281 50.6173Z" fill="white"/>
<path d="M57.6281 47.1605C58.0326 47.1605 58.3606 46.8289 58.3606 46.4198C58.3606 46.0107 58.0326 45.679 57.6281 45.679C57.2235 45.679 56.8955 46.0107 56.8955 46.4198C56.8955 46.8289 57.2235 47.1605 57.6281 47.1605Z" fill="white"/>
<path d="M57.6281 43.7037C58.0326 43.7037 58.3606 43.3721 58.3606 42.963C58.3606 42.5539 58.0326 42.2222 57.6281 42.2222C57.2235 42.2222 56.8955 42.5539 56.8955 42.963C56.8955 43.3721 57.2235 43.7037 57.6281 43.7037Z" fill="white"/>
<path d="M26.3722 68.1482C24.4871 68.1482 22.9536 66.5975 22.9536 64.6914V26.1728C22.9536 25.9012 23.1734 25.679 23.442 25.679H29.3025C29.5711 25.679 29.7908 25.9012 29.7908 26.1728V64.6914C29.7908 66.5975 28.2573 68.1482 26.3722 68.1482ZM23.9304 26.6667V64.6914C23.9304 66.0543 25.0243 67.1605 26.3722 67.1605C27.7201 67.1605 28.8141 66.0543 28.8141 64.6914V26.6667H23.9304Z" fill="#34234D"/>
<path d="M29.3025 80H23.442C23.1734 80 22.9536 79.7778 22.9536 79.5062V26.1728C22.9536 25.9012 23.1734 25.679 23.442 25.679H29.3025C29.5711 25.679 29.7908 25.9012 29.7908 26.1728V79.5062C29.7908 79.7778 29.5711 80 29.3025 80ZM23.9304 79.0123H28.8141V26.6667H23.9304V79.0123Z" fill="#34234D"/>
<path d="M26.3722 63.9506C26.7768 63.9506 27.1048 63.619 27.1048 63.2099C27.1048 62.8008 26.7768 62.4691 26.3722 62.4691C25.9676 62.4691 25.6396 62.8008 25.6396 63.2099C25.6396 63.619 25.9676 63.9506 26.3722 63.9506Z" fill="white"/>
<path d="M26.3722 60.4938C26.7768 60.4938 27.1048 60.1622 27.1048 59.7531C27.1048 59.344 26.7768 59.0123 26.3722 59.0123C25.9676 59.0123 25.6396 59.344 25.6396 59.7531C25.6396 60.1622 25.9676 60.4938 26.3722 60.4938Z" fill="white"/>
<path d="M26.3722 50.6173C26.7768 50.6173 27.1048 50.2856 27.1048 49.8765C27.1048 49.4674 26.7768 49.1358 26.3722 49.1358C25.9676 49.1358 25.6396 49.4674 25.6396 49.8765C25.6396 50.2856 25.9676 50.6173 26.3722 50.6173Z" fill="white"/>
<path d="M26.3722 47.1605C26.7768 47.1605 27.1048 46.8289 27.1048 46.4198C27.1048 46.0107 26.7768 45.679 26.3722 45.679C25.9676 45.679 25.6396 46.0107 25.6396 46.4198C25.6396 46.8289 25.9676 47.1605 26.3722 47.1605Z" fill="white"/>
<path d="M26.3722 43.7037C26.7768 43.7037 27.1048 43.3721 27.1048 42.963C27.1048 42.5539 26.7768 42.2222 26.3722 42.2222C25.9676 42.2222 25.6396 42.5539 25.6396 42.963C25.6396 43.3721 25.9676 43.7037 26.3722 43.7037Z" fill="white"/>
<path d="M61.0463 52.8395H54.2091C53.9394 52.8395 53.7207 53.0606 53.7207 53.3333V56.2963C53.7207 56.569 53.9394 56.7901 54.2091 56.7901H61.0463C61.316 56.7901 61.5347 56.569 61.5347 56.2963V53.3333C61.5347 53.0606 61.316 52.8395 61.0463 52.8395Z" fill="#A09CAD"/>
<path d="M29.7909 52.8395H22.9537C22.684 52.8395 22.4653 53.0606 22.4653 53.3333V56.2963C22.4653 56.569 22.684 56.7901 22.9537 56.7901H29.7909C30.0606 56.7901 30.2793 56.569 30.2793 56.2963V53.3333C30.2793 53.0606 30.0606 52.8395 29.7909 52.8395Z" fill="#A09CAD"/>
<path d="M61.0463 52.8395H54.2091C53.9394 52.8395 53.7207 53.0606 53.7207 53.3333V54.321C53.7207 54.5937 53.9394 54.8148 54.2091 54.8148H61.0463C61.316 54.8148 61.5347 54.5937 61.5347 54.321V53.3333C61.5347 53.0606 61.316 52.8395 61.0463 52.8395Z" fill="#B8B5C6"/>
<path d="M29.7909 52.8395H22.9537C22.684 52.8395 22.4653 53.0606 22.4653 53.3333V54.321C22.4653 54.5937 22.684 54.8148 22.9537 54.8148H29.7909C30.0606 54.8148 30.2793 54.5937 30.2793 54.321V53.3333C30.2793 53.0606 30.0606 52.8395 29.7909 52.8395Z" fill="#B8B5C6"/>
<path d="M29.7905 57.2839H22.9533C22.4161 57.2839 21.9766 56.8395 21.9766 56.2963V53.3333C21.9766 52.7901 22.4161 52.3457 22.9533 52.3457H29.7905C30.3277 52.3457 30.7673 52.7901 30.7673 53.3333V56.2963C30.7673 56.8395 30.3277 57.2839 29.7905 57.2839ZM22.9533 53.3333V56.2963H29.7905V53.3333H22.9533Z" fill="#34234D"/>
<path d="M61.0464 57.2839H54.2092C53.672 57.2839 53.2324 56.8395 53.2324 56.2963V53.3333C53.2324 52.7901 53.672 52.3457 54.2092 52.3457H61.0464C61.5836 52.3457 62.0231 52.7901 62.0231 53.3333V56.2963C62.0231 56.8395 61.5836 57.2839 61.0464 57.2839ZM54.2092 53.3333V56.2963H61.0464V53.3333H54.2092Z" fill="#34234D"/>
</g>
<defs>
<clipPath id="clip0_22_1649">
<rect width="84" height="80" fill="white"/>
</clipPath>
</defs>
</svg>
