<svg width="84" height="78" viewBox="0 0 84 78" fill="none" xmlns="http://www.w3.org/2000/svg">
<g clip-path="url(#clip0_22_1887)">
<path d="M71.434 22.957C68.2645 17.2226 69.1728 7.1211 63.5468 3.72184C58.0966 0.42851 49.5696 5.80184 42.7324 5.65258C35.8952 5.50332 27.6173 -0.235934 22.0254 2.81666C16.2577 5.96555 16.7217 16.1055 13.2982 21.6907C9.98702 27.1122 0.63958 31.3011 0.488184 38.0996C0.336789 44.8933 9.48888 49.4867 12.5656 55.043C15.7352 60.7774 14.8268 70.8789 20.4528 74.2781C25.9031 77.5715 34.43 72.1981 41.2673 72.3474C48.1045 72.4967 56.3824 78.2359 61.9742 75.1833C67.7419 72.0296 67.278 61.8944 70.7014 56.3092C74.0175 50.8926 83.36 46.7037 83.5114 39.9052C83.6628 33.1115 74.5107 28.5181 71.434 22.9618V22.957Z" fill="#E6E6E6"/>
<path d="M8.79077 59.7037C10.9485 59.7037 12.6977 57.9792 12.6977 55.8519C12.6977 53.7245 10.9485 52 8.79077 52C6.633 52 4.88379 53.7245 4.88379 55.8519C4.88379 57.9792 6.633 59.7037 8.79077 59.7037Z" fill="white"/>
<path d="M8.79086 60.1852C6.36853 60.1852 4.39551 58.24 4.39551 55.8519C4.39551 53.4637 6.36853 51.5185 8.79086 51.5185C11.2132 51.5185 13.1862 53.4637 13.1862 55.8519C13.1862 58.24 11.2132 60.1852 8.79086 60.1852ZM8.79086 52.4815C6.90574 52.4815 5.37225 53.9933 5.37225 55.8519C5.37225 57.7104 6.90574 59.2222 8.79086 59.2222C10.676 59.2222 12.2095 57.7104 12.2095 55.8519C12.2095 53.9933 10.676 52.4815 8.79086 52.4815Z" fill="#A09CAD"/>
<path d="M10.5048 56.1307C10.6586 55.1963 10.015 54.3158 9.06723 54.1641C8.11943 54.0124 7.22636 54.647 7.07251 55.5814C6.91867 56.5158 7.56229 57.3963 8.51009 57.548C9.45789 57.6997 10.3509 57.0651 10.5048 56.1307Z" fill="#A09CAD"/>
<path d="M4.39526 34.6667C6.55302 34.6667 8.30223 32.9421 8.30223 30.8148C8.30223 28.6875 6.55302 26.963 4.39526 26.963C2.23749 26.963 0.488281 28.6875 0.488281 30.8148C0.488281 32.9421 2.23749 34.6667 4.39526 34.6667Z" fill="white"/>
<path d="M4.39535 35.1481C1.97302 35.1481 0 33.203 0 30.8148C0 28.4267 1.97302 26.4815 4.39535 26.4815C6.81767 26.4815 8.7907 28.4267 8.7907 30.8148C8.7907 33.203 6.81767 35.1481 4.39535 35.1481ZM4.39535 27.4444C2.51023 27.4444 0.976744 28.9563 0.976744 30.8148C0.976744 32.6733 2.51023 34.1852 4.39535 34.1852C6.28047 34.1852 7.81395 32.6733 7.81395 30.8148C7.81395 28.9563 6.28047 27.4444 4.39535 27.4444Z" fill="#A09CAD"/>
<path d="M4.39534 32.5289C5.35555 32.5289 6.13395 31.7615 6.13395 30.8148C6.13395 29.8682 5.35555 29.1007 4.39534 29.1007C3.43514 29.1007 2.65674 29.8682 2.65674 30.8148C2.65674 31.7615 3.43514 32.5289 4.39534 32.5289Z" fill="#A09CAD"/>
<path d="M75.2092 26.4815C77.367 26.4815 79.1162 24.7569 79.1162 22.6296C79.1162 20.5023 77.367 18.7778 75.2092 18.7778C73.0515 18.7778 71.3022 20.5023 71.3022 22.6296C71.3022 24.7569 73.0515 26.4815 75.2092 26.4815Z" fill="white"/>
<path d="M75.2093 26.963C72.787 26.963 70.814 25.0178 70.814 22.6296C70.814 20.2415 72.787 18.2963 75.2093 18.2963C77.6316 18.2963 79.6047 20.2415 79.6047 22.6296C79.6047 25.0178 77.6316 26.963 75.2093 26.963ZM75.2093 19.2593C73.3242 19.2593 71.7907 20.7711 71.7907 22.6296C71.7907 24.4881 73.3242 26 75.2093 26C77.0944 26 78.6279 24.4881 78.6279 22.6296C78.6279 20.7711 77.0944 19.2593 75.2093 19.2593Z" fill="#A09CAD"/>
<path d="M75.2093 24.3437C76.1695 24.3437 76.9479 23.5763 76.9479 22.6296C76.9479 21.683 76.1695 20.9156 75.2093 20.9156C74.2491 20.9156 73.4707 21.683 73.4707 22.6296C73.4707 23.5763 74.2491 24.3437 75.2093 24.3437Z" fill="#A09CAD"/>
<path d="M79.6047 52.963C81.7625 52.963 83.5117 51.2384 83.5117 49.1111C83.5117 46.9838 81.7625 45.2592 79.6047 45.2592C77.447 45.2592 75.6978 46.9838 75.6978 49.1111C75.6978 51.2384 77.447 52.963 79.6047 52.963Z" fill="white"/>
<path d="M79.6048 53.4444C77.1825 53.4444 75.2095 51.4993 75.2095 49.1111C75.2095 46.723 77.1825 44.7778 79.6048 44.7778C82.0271 44.7778 84.0002 46.723 84.0002 49.1111C84.0002 51.4993 82.0271 53.4444 79.6048 53.4444ZM79.6048 45.7407C77.7197 45.7407 76.1862 47.2526 76.1862 49.1111C76.1862 50.9696 77.7197 52.4815 79.6048 52.4815C81.4899 52.4815 83.0234 50.9696 83.0234 49.1111C83.0234 47.2526 81.4899 45.7407 79.6048 45.7407Z" fill="#A09CAD"/>
<path d="M79.6048 50.8252C80.565 50.8252 81.3434 50.0578 81.3434 49.1111C81.3434 48.1644 80.565 47.397 79.6048 47.397C78.6446 47.397 77.8662 48.1644 77.8662 49.1111C77.8662 50.0578 78.6446 50.8252 79.6048 50.8252Z" fill="#A09CAD"/>
<path d="M60.0696 76.0741C62.2273 76.0741 63.9766 74.3495 63.9766 72.2222C63.9766 70.0949 62.2273 68.3704 60.0696 68.3704C57.9118 68.3704 56.1626 70.0949 56.1626 72.2222C56.1626 74.3495 57.9118 76.0741 60.0696 76.0741Z" fill="white"/>
<path d="M60.0697 76.5556C57.6473 76.5556 55.6743 74.6104 55.6743 72.2222C55.6743 69.8341 57.6473 67.8889 60.0697 67.8889C62.492 67.8889 64.465 69.8341 64.465 72.2222C64.465 74.6104 62.492 76.5556 60.0697 76.5556ZM60.0697 68.8518C58.1845 68.8518 56.6511 70.3637 56.6511 72.2222C56.6511 74.0807 58.1845 75.5926 60.0697 75.5926C61.9548 75.5926 63.4883 74.0807 63.4883 72.2222C63.4883 70.3637 61.9548 68.8518 60.0697 68.8518Z" fill="#A09CAD"/>
<path d="M60.0697 73.9363C61.0299 73.9363 61.8083 73.1689 61.8083 72.2222C61.8083 71.2756 61.0299 70.5081 60.0697 70.5081C59.1095 70.5081 58.3311 71.2756 58.3311 72.2222C58.3311 73.1689 59.1095 73.9363 60.0697 73.9363Z" fill="#A09CAD"/>
<path d="M28.3254 77.5185C30.4832 77.5185 32.2324 75.794 32.2324 73.6667C32.2324 71.5394 30.4832 69.8148 28.3254 69.8148C26.1677 69.8148 24.4185 71.5394 24.4185 73.6667C24.4185 75.794 26.1677 77.5185 28.3254 77.5185Z" fill="white"/>
<path d="M28.3255 78C25.9032 78 23.9302 76.0548 23.9302 73.6666C23.9302 71.2785 25.9032 69.3333 28.3255 69.3333C30.7479 69.3333 32.7209 71.2785 32.7209 73.6666C32.7209 76.0548 30.7479 78 28.3255 78ZM28.3255 70.2963C26.4404 70.2963 24.9069 71.8081 24.9069 73.6666C24.9069 75.5252 26.4404 77.037 28.3255 77.037C30.2106 77.037 31.7441 75.5252 31.7441 73.6666C31.7441 71.8081 30.2106 70.2963 28.3255 70.2963Z" fill="#A09CAD"/>
<path d="M28.3255 75.3807C29.2857 75.3807 30.0641 74.6133 30.0641 73.6666C30.0641 72.72 29.2857 71.9526 28.3255 71.9526C27.3653 71.9526 26.5869 72.72 26.5869 73.6666C26.5869 74.6133 27.3653 75.3807 28.3255 75.3807Z" fill="#A09CAD"/>
<path d="M51.279 8.18518C53.4368 8.18518 55.186 6.46065 55.186 4.33333C55.186 2.20601 53.4368 0.481476 51.279 0.481476C49.1213 0.481476 47.3721 2.20601 47.3721 4.33333C47.3721 6.46065 49.1213 8.18518 51.279 8.18518Z" fill="white"/>
<path d="M51.2791 8.66667C48.8568 8.66667 46.8838 6.72148 46.8838 4.33333C46.8838 1.94518 48.8568 0 51.2791 0C53.7015 0 55.6745 1.94518 55.6745 4.33333C55.6745 6.72148 53.7015 8.66667 51.2791 8.66667ZM51.2791 0.962963C49.394 0.962963 47.8605 2.47481 47.8605 4.33333C47.8605 6.19185 49.394 7.7037 51.2791 7.7037C53.1643 7.7037 54.6977 6.19185 54.6977 4.33333C54.6977 2.47481 53.1643 0.962963 51.2791 0.962963Z" fill="#A09CAD"/>
<path d="M51.2791 6.04741C52.2393 6.04741 53.0177 5.27999 53.0177 4.33334C53.0177 3.38668 52.2393 2.61926 51.2791 2.61926C50.3189 2.61926 49.5405 3.38668 49.5405 4.33334C49.5405 5.27999 50.3189 6.04741 51.2791 6.04741Z" fill="#A09CAD"/>
<path d="M31.7444 11.0741C33.9021 11.0741 35.6514 9.34953 35.6514 7.22221C35.6514 5.09489 33.9021 3.37036 31.7444 3.37036C29.5866 3.37036 27.8374 5.09489 27.8374 7.22221C27.8374 9.34953 29.5866 11.0741 31.7444 11.0741Z" fill="white"/>
<path d="M31.744 11.5556C29.3217 11.5556 27.3486 9.61037 27.3486 7.22222C27.3486 4.83407 29.3217 2.88889 31.744 2.88889C34.1663 2.88889 36.1393 4.83407 36.1393 7.22222C36.1393 9.61037 34.1663 11.5556 31.744 11.5556ZM31.744 3.85185C29.8589 3.85185 28.3254 5.3637 28.3254 7.22222C28.3254 9.08074 29.8589 10.5926 31.744 10.5926C33.6291 10.5926 35.1626 9.08074 35.1626 7.22222C35.1626 5.3637 33.6291 3.85185 31.744 3.85185Z" fill="#A09CAD"/>
<path d="M31.744 8.9363C32.7042 8.9363 33.4826 8.16888 33.4826 7.22222C33.4826 6.27557 32.7042 5.50815 31.744 5.50815C30.7838 5.50815 30.0054 6.27557 30.0054 7.22222C30.0054 8.16888 30.7838 8.9363 31.744 8.9363Z" fill="#A09CAD"/>
<path d="M71.3024 7.7037H12.6977C11.3491 7.7037 10.2559 8.78154 10.2559 10.1111V67.8889C10.2559 69.2185 11.3491 70.2963 12.6977 70.2963H71.3024C72.651 70.2963 73.7442 69.2185 73.7442 67.8889V10.1111C73.7442 8.78154 72.651 7.7037 71.3024 7.7037Z" fill="#FF6E86"/>
<path d="M68.3722 10.1111H15.628C14.0097 10.1111 12.6978 11.4045 12.6978 13V65C12.6978 66.5955 14.0097 67.8889 15.628 67.8889H68.3722C69.9905 67.8889 71.3024 66.5955 71.3024 65V13C71.3024 11.4045 69.9905 10.1111 68.3722 10.1111Z" fill="#FF5067"/>
<path d="M72.7675 35.1482H11.2326C10.6932 35.1482 10.2559 35.5793 10.2559 36.1111V41.8889C10.2559 42.4207 10.6932 42.8519 11.2326 42.8519H72.7675C73.3069 42.8519 73.7442 42.4207 73.7442 41.8889V36.1111C73.7442 35.5793 73.3069 35.1482 72.7675 35.1482Z" fill="#FF5067"/>
<path d="M67.8839 12.037H16.1165C15.3073 12.037 14.6514 12.6837 14.6514 13.4815V37.5556C14.6514 38.3533 15.3073 39 16.1165 39H67.8839C68.6931 39 69.349 38.3533 69.349 37.5556V13.4815C69.349 12.6837 68.6931 12.037 67.8839 12.037Z" fill="#EDEDED"/>
<path d="M67.8839 39H16.1165C15.3073 39 14.6514 39.6467 14.6514 40.4444V64.5185C14.6514 65.3163 15.3073 65.963 16.1165 65.963H67.8839C68.6931 65.963 69.349 65.3163 69.349 64.5185V40.4444C69.349 39.6467 68.6931 39 67.8839 39Z" fill="#EDEDED"/>
<path d="M67.8839 12.037H16.1165C15.3073 12.037 14.6514 12.6837 14.6514 13.4815V34.6667C14.6514 35.4644 15.3073 36.1111 16.1165 36.1111H67.8839C68.6931 36.1111 69.349 35.4644 69.349 34.6667V13.4815C69.349 12.6837 68.6931 12.037 67.8839 12.037Z" fill="white"/>
<path d="M71.3025 70.7778H12.6978C11.0813 70.7778 9.76758 69.4826 9.76758 67.8889V48.1482C9.76758 47.8834 9.98735 47.6667 10.256 47.6667C10.5246 47.6667 10.7443 47.8834 10.7443 48.1482V67.8889C10.7443 68.953 11.6185 69.8148 12.6978 69.8148H71.3025C72.3818 69.8148 73.256 68.953 73.256 67.8889V32.5289C73.256 32.2641 73.4757 32.0474 73.7443 32.0474C74.0129 32.0474 74.2327 32.2641 74.2327 32.5289V67.8889C74.2327 69.4826 72.919 70.7778 71.3025 70.7778Z" fill="#34234D"/>
<path d="M10.256 45.7407C9.98735 45.7407 9.76758 45.5241 9.76758 45.2593V10.1111C9.76758 8.51741 11.0813 7.22223 12.6978 7.22223H71.3025C72.919 7.22223 74.2327 8.51741 74.2327 10.1111V29.64C74.2327 29.9048 74.0129 30.1215 73.7443 30.1215C73.4757 30.1215 73.256 29.9048 73.256 29.64V10.1111C73.256 9.04704 72.3818 8.18519 71.3025 8.18519H12.6978C11.6185 8.18519 10.7443 9.04704 10.7443 10.1111V45.2593C10.7443 45.5241 10.5246 45.7407 10.256 45.7407Z" fill="#34234D"/>
<path d="M62.5116 17.8148H43.9535C42.8746 17.8148 42 18.6771 42 19.7407V31.2963C42 32.36 42.8746 33.2222 43.9535 33.2222H62.5116C63.5905 33.2222 64.4651 32.36 64.4651 31.2963V19.7407C64.4651 18.6771 63.5905 17.8148 62.5116 17.8148Z" fill="#B8B5C6"/>
<path d="M62.5117 33.7037H43.9536C42.6057 33.7037 41.5117 32.6252 41.5117 31.2963V19.7408C41.5117 18.4119 42.6057 17.3333 43.9536 17.3333H62.5117C63.8596 17.3333 64.9536 18.4119 64.9536 19.7408V31.2963C64.9536 32.6252 63.8596 33.7037 62.5117 33.7037ZM43.9536 18.2963C43.1478 18.2963 42.4885 18.9463 42.4885 19.7408V31.2963C42.4885 32.0908 43.1478 32.7408 43.9536 32.7408H62.5117C63.3175 32.7408 63.9768 32.0908 63.9768 31.2963V19.7408C63.9768 18.9463 63.3175 18.2963 62.5117 18.2963H43.9536Z" fill="#A09CAD"/>
<path d="M67.8839 41.8889H16.1165C15.3073 41.8889 14.6514 42.5356 14.6514 43.3333V64.5185C14.6514 65.3163 15.3073 65.963 16.1165 65.963H67.8839C68.6931 65.963 69.349 65.3163 69.349 64.5185V43.3333C69.349 42.5356 68.6931 41.8889 67.8839 41.8889Z" fill="white"/>
<path d="M67.8835 66.4445H16.1161C15.0368 66.4445 14.1626 65.5826 14.1626 64.5185V40.4445C14.1626 39.3804 15.0368 38.5185 16.1161 38.5185H67.8835C68.9628 38.5185 69.837 39.3804 69.837 40.4445V64.5185C69.837 65.5826 68.9628 66.4445 67.8835 66.4445ZM16.1161 39.4815C15.5789 39.4815 15.1393 39.9148 15.1393 40.4445V64.5185C15.1393 65.0482 15.5789 65.4815 16.1161 65.4815H67.8835C68.4207 65.4815 68.8603 65.0482 68.8603 64.5185V40.4445C68.8603 39.9148 68.4207 39.4815 67.8835 39.4815H16.1161Z" fill="#34234D"/>
<path d="M28.3255 35.1481C33.72 35.1481 38.093 30.8368 38.093 25.5185C38.093 20.2002 33.72 15.8889 28.3255 15.8889C22.9311 15.8889 18.5581 20.2002 18.5581 25.5185C18.5581 30.8368 22.9311 35.1481 28.3255 35.1481Z" fill="#00B5F4"/>
<path d="M67.8835 39.4815H16.1161C15.0368 39.4815 14.1626 38.6196 14.1626 37.5555V13.4815C14.1626 12.4174 15.0368 11.5555 16.1161 11.5555H45.4184C45.687 11.5555 45.9068 11.7722 45.9068 12.037C45.9068 12.3018 45.687 12.5185 45.4184 12.5185H16.1161C15.5789 12.5185 15.1393 12.9518 15.1393 13.4815V37.5555C15.1393 38.0852 15.5789 38.5185 16.1161 38.5185H67.8835C68.4207 38.5185 68.8603 38.0852 68.8603 37.5555V13.4815C68.8603 12.9518 68.4207 12.5185 67.8835 12.5185H48.3486C48.08 12.5185 47.8603 12.3018 47.8603 12.037C47.8603 11.7722 48.08 11.5555 48.3486 11.5555H67.8835C68.9628 11.5555 69.837 12.4174 69.837 13.4815V37.5555C69.837 38.6196 68.9628 39.4815 67.8835 39.4815Z" fill="#34234D"/>
<path d="M28.3255 18.7778C33.219 18.7778 37.2628 22.3311 37.9709 26.963C38.0442 26.4911 38.093 26.0096 38.093 25.5185C38.093 20.1981 33.7221 15.8889 28.3255 15.8889C22.929 15.8889 18.5581 20.1981 18.5581 25.5185C18.5581 26.0096 18.6069 26.4911 18.6802 26.963C19.3883 22.3311 23.4321 18.7778 28.3255 18.7778Z" fill="#2FC8F2"/>
<path d="M28.3256 35.6296C22.6703 35.6296 18.0698 31.0941 18.0698 25.5185C18.0698 19.943 22.6703 15.4074 28.3256 15.4074C33.981 15.4074 38.5815 19.943 38.5815 25.5185C38.5815 31.0941 33.981 35.6296 28.3256 35.6296ZM28.3256 16.3704C23.2075 16.3704 19.0466 20.4726 19.0466 25.5185C19.0466 30.5644 23.2075 34.6667 28.3256 34.6667C33.4438 34.6667 37.6047 30.5644 37.6047 25.5185C37.6047 20.4726 33.4438 16.3704 28.3256 16.3704Z" fill="#34234D"/>
<path d="M28.3258 35.6296C25.0391 35.6296 22.4653 31.1904 22.4653 25.5185C22.4653 19.8467 25.0391 15.4074 28.3258 15.4074C31.6125 15.4074 34.1863 19.8467 34.1863 25.5185C34.1863 31.1904 31.6125 35.6296 28.3258 35.6296ZM28.3258 16.3704C25.6788 16.3704 23.4421 20.5593 23.4421 25.5185C23.4421 30.4778 25.6788 34.6667 28.3258 34.6667C30.9728 34.6667 33.2095 30.4778 33.2095 25.5185C33.2095 20.5593 30.9728 16.3704 28.3258 16.3704Z" fill="#34234D"/>
<path d="M28.3258 35.6296C28.0572 35.6296 27.8374 35.413 27.8374 35.1482V15.8889C27.8374 15.6241 28.0572 15.4074 28.3258 15.4074C28.5944 15.4074 28.8141 15.6241 28.8141 15.8889V35.1482C28.8141 35.413 28.5944 35.6296 28.3258 35.6296Z" fill="#34234D"/>
<path d="M38.0931 26H18.5582C18.2896 26 18.0698 25.7833 18.0698 25.5185C18.0698 25.2537 18.2896 25.037 18.5582 25.037H38.0931C38.3617 25.037 38.5815 25.2537 38.5815 25.5185C38.5815 25.7833 38.3617 26 38.0931 26Z" fill="#34234D"/>
<path d="M36.6277 30.8148H20.023C19.7544 30.8148 19.5347 30.5981 19.5347 30.3333C19.5347 30.0685 19.7544 29.8518 20.023 29.8518H36.6277C36.8963 29.8518 37.1161 30.0685 37.1161 30.3333C37.1161 30.5981 36.8963 30.8148 36.6277 30.8148Z" fill="#34234D"/>
<path d="M36.6277 21.1852H20.023C19.7544 21.1852 19.5347 20.9685 19.5347 20.7037C19.5347 20.4389 19.7544 20.2222 20.023 20.2222H36.6277C36.8963 20.2222 37.1161 20.4389 37.1161 20.7037C37.1161 20.9685 36.8963 21.1852 36.6277 21.1852Z" fill="#34234D"/>
<path d="M60.558 26.2407H56.651C56.2457 26.2407 55.9185 25.9181 55.9185 25.5185C55.9185 25.1189 56.2457 24.7963 56.651 24.7963H60.558C60.9633 24.7963 61.2906 25.1189 61.2906 25.5185C61.2906 25.9181 60.9633 26.2407 60.558 26.2407Z" fill="white"/>
<path d="M53.2325 26.2407H45.9069C45.5015 26.2407 45.1743 25.9181 45.1743 25.5185C45.1743 25.1189 45.5015 24.7963 45.9069 24.7963H53.2325C53.6378 24.7963 53.965 25.1189 53.965 25.5185C53.965 25.9181 53.6378 26.2407 53.2325 26.2407Z" fill="white"/>
<path d="M56.8955 22.3889H49.57C49.1646 22.3889 48.8374 22.0663 48.8374 21.6667C48.8374 21.2671 49.1646 20.9445 49.57 20.9445H56.8955C57.3009 20.9445 57.6281 21.2671 57.6281 21.6667C57.6281 22.0663 57.3009 22.3889 56.8955 22.3889Z" fill="white"/>
<path d="M58.6047 30.0926H47.8605C47.4551 30.0926 47.1279 29.77 47.1279 29.3704C47.1279 28.9708 47.4551 28.6482 47.8605 28.6482H58.6047C59.01 28.6482 59.3372 28.9708 59.3372 29.3704C59.3372 29.77 59.01 30.0926 58.6047 30.0926Z" fill="white"/>
<path d="M36.0467 42.8518H19.4421C18.9026 42.8518 18.4653 43.283 18.4653 43.8148V61.1481C18.4653 61.68 18.9026 62.1111 19.4421 62.1111H36.0467C36.5862 62.1111 37.0235 61.68 37.0235 61.1481V43.8148C37.0235 43.283 36.5862 42.8518 36.0467 42.8518Z" fill="#B8B5C6"/>
<path d="M36.0468 62.5926H19.4422C18.6364 62.5926 17.9771 61.9426 17.9771 61.1481V43.8148C17.9771 43.0204 18.6364 42.3704 19.4422 42.3704H36.0468C36.8526 42.3704 37.5119 43.0204 37.5119 43.8148V61.1481C37.5119 61.9426 36.8526 62.5926 36.0468 62.5926ZM19.4422 43.3333C19.1736 43.3333 18.9538 43.55 18.9538 43.8148V61.1481C18.9538 61.413 19.1736 61.6296 19.4422 61.6296H36.0468C36.3154 61.6296 36.5352 61.413 36.5352 61.1481V43.8148C36.5352 43.55 36.3154 43.3333 36.0468 43.3333H19.4422Z" fill="#A09CAD"/>
<path d="M34.8942 56.0781L31.5879 55.2211H23.9058L20.5995 56.0781C19.3444 56.4007 18.4702 57.5226 18.4702 58.7985V62.1063H37.0284V58.7985C37.0284 57.5178 36.1542 56.4007 34.8991 56.0781H34.8942Z" fill="#00B5F4"/>
<path d="M34.8942 56.0781L31.5879 55.2211H23.9058L20.5995 56.0781C19.3444 56.4007 18.4702 57.5226 18.4702 58.7985V59.6989H37.0284V58.7985C37.0284 57.5178 36.1542 56.4007 34.8991 56.0781H34.8942Z" fill="#2FC8F2"/>
<path d="M33.214 62.5926C32.9454 62.5926 32.7256 62.3759 32.7256 62.1111V59.6122C32.7256 59.3474 32.9454 59.1307 33.214 59.1307C33.4826 59.1307 33.7023 59.3474 33.7023 59.6122V62.1111C33.7023 62.3759 33.4826 62.5926 33.214 62.5926Z" fill="#34234D"/>
<path d="M22.2696 62.5926C22.001 62.5926 21.7812 62.3759 21.7812 62.1111V59.6122C21.7812 59.3474 22.001 59.1307 22.2696 59.1307C22.5382 59.1307 22.758 59.3474 22.758 59.6122V62.1111C22.758 62.3759 22.5382 62.5926 22.2696 62.5926Z" fill="#34234D"/>
<path d="M37.0236 62.5926H18.4654C18.1968 62.5926 17.9771 62.3759 17.9771 62.1111V58.8033C17.9771 57.3059 19.0026 55.9963 20.4726 55.6159L23.7789 54.7589C23.818 54.7493 23.8619 54.7444 23.901 54.7444H31.5831C31.627 54.7444 31.6661 54.7493 31.7052 54.7589L35.0115 55.6159C36.4815 55.9963 37.5071 57.3059 37.5071 58.8033V62.1111C37.5071 62.3759 37.2873 62.5926 37.0187 62.5926H37.0236ZM18.9538 61.6296H36.5352V58.8033C36.5352 57.7441 35.8075 56.8148 34.7673 56.5452L31.5196 55.7026H23.9596L20.7119 56.5452C19.6717 56.8148 18.944 57.7441 18.944 58.8033V61.6296H18.9538Z" fill="#34234D"/>
<path d="M30.743 56.4633C31.2265 56.1022 31.5781 55.6833 31.583 55.2259C30.7723 54.8167 30.1667 54.0704 29.9958 53.1748C29.9713 53.0448 29.9518 52.2119 29.9372 52.0867H25.5418C25.5272 52.2359 25.5027 53.0882 25.4734 53.2422C25.3025 54.1233 24.7018 54.8359 23.9058 55.2259C23.9155 55.6833 24.2672 56.1022 24.7555 56.4633C26.5137 57.7681 28.9946 57.7681 30.7527 56.4633H30.743Z" fill="#E6E6E6"/>
<path d="M27.7493 57.9222C26.587 57.9222 25.4247 57.5611 24.4577 56.8437C23.7789 56.3381 23.4272 55.7989 23.4126 55.2307C23.4126 55.043 23.5152 54.8696 23.6861 54.7878C24.3747 54.4507 24.8533 53.8537 24.99 53.1459C24.9998 53.0689 25.0193 52.6885 25.0291 52.4863C25.0389 52.2744 25.0486 52.0915 25.0535 52.0289C25.0828 51.7881 25.2879 51.6052 25.537 51.6004H29.9372C30.1863 51.6004 30.3963 51.7785 30.4207 52.0241C30.4256 52.0819 30.4354 52.2696 30.4452 52.4767C30.4549 52.6789 30.4647 53.0159 30.4745 53.0882C30.6112 53.8007 31.1093 54.4411 31.8028 54.7926C31.9689 54.8744 32.0714 55.0478 32.0666 55.2307C32.0568 55.7989 31.71 56.343 31.0312 56.8437C30.0642 57.5611 28.9019 57.9222 27.7396 57.9222H27.7493ZM24.4626 55.4667C24.5603 55.6593 24.7556 55.8663 25.0438 56.0782C26.6407 57.2626 28.8628 57.2578 30.45 56.0782C30.6649 55.9144 30.914 55.6978 31.0312 55.4619C30.2449 54.9515 29.6882 54.1522 29.5172 53.2615C29.4977 53.17 29.4879 53.0015 29.4733 52.5633H26.0059C25.9863 53.0015 25.9717 53.2182 25.9521 53.3289C25.7763 54.2148 25.244 54.9707 24.4626 55.4619V55.4667Z" fill="#34234D"/>
<path d="M31.881 48.0278C31.4659 47.9411 30.9092 48.4804 30.7675 49.1159C30.6259 49.7515 30.8506 50.3341 31.2657 50.4207C31.6808 50.5074 32.1936 50.0789 32.3352 49.4481C32.4768 48.8126 32.2961 48.1144 31.881 48.0278Z" fill="white"/>
<path d="M23.6078 48.0278C24.0229 47.9411 24.5797 48.4804 24.7213 49.1159C24.8629 49.7515 24.6383 50.3341 24.2231 50.4207C23.808 50.5074 23.2952 50.0789 23.1536 49.4481C23.012 48.8126 23.1927 48.1144 23.6078 48.0278Z" fill="white"/>
<path d="M27.7444 44.383C25.5809 44.383 23.8276 46.5496 23.8276 49.2219C23.8276 51.8941 25.5809 54.0607 27.7444 54.0607C29.9079 54.0607 31.6611 51.8941 31.6611 49.2219C31.6611 46.5496 29.9079 44.383 27.7444 44.383Z" fill="white"/>
<path d="M31.8809 48.5093C31.8027 48.5093 31.7246 48.49 31.6562 48.4563C31.5243 48.3889 31.4316 48.2637 31.4022 48.1193C31.3534 47.8593 31.5146 47.5848 31.7783 47.5319C32.0225 47.4837 32.3057 47.6233 32.3839 47.8593C32.462 48.0952 32.3106 48.3696 32.086 48.4707C32.0225 48.4996 31.9541 48.5141 31.8857 48.5141L31.8809 48.5093Z" fill="#34234D"/>
<path d="M27.7444 54.5471C25.786 54.5471 24.0816 52.9967 23.5297 50.753C23.1195 50.5267 22.7972 50.0789 22.68 49.5541C22.553 48.9859 22.6311 48.3937 22.8851 48.0085C22.9681 47.8785 23.0707 47.7726 23.1879 47.6956C23.7397 45.553 25.6932 43.9063 27.7493 43.9063C29.8053 43.9063 31.7588 45.553 32.3107 47.6956C32.4279 47.7726 32.5304 47.8785 32.6135 48.0085C32.8674 48.3937 32.9455 48.9859 32.8186 49.5541C32.7014 50.0789 32.3742 50.5267 31.9639 50.753C31.4121 53.0015 29.7076 54.5471 27.7493 54.5471H27.7444ZM27.7444 44.8645C26.0937 44.8645 24.4528 46.3233 24.0865 48.1193C24.0474 48.3071 23.9009 48.4563 23.7104 48.4948C23.6567 48.543 23.5297 48.8945 23.6323 49.3374C23.7104 49.6889 23.94 49.8959 24.0816 49.9345C24.2623 49.9826 24.399 50.1271 24.4332 50.3052C24.8239 52.2311 26.1865 53.5793 27.7493 53.5793C29.3121 53.5793 30.6746 52.2359 31.0653 50.3052C31.0995 50.1271 31.2362 49.9826 31.4169 49.9345C31.5537 49.8959 31.7881 49.6889 31.8662 49.3374C31.9639 48.8945 31.8418 48.5382 31.7637 48.4852C31.5732 48.4467 31.4462 48.3071 31.4072 48.1193C31.0409 46.3233 29.4 44.8645 27.7493 44.8645H27.7444Z" fill="#34234D"/>
<path d="M23.608 48.0278C23.608 48.0278 21.7375 42.8518 27.7445 42.8518C33.7515 42.8518 31.9396 48.047 31.9396 48.047C31.9396 48.047 29.9226 47.6378 29.2194 45.9429C27.0608 48.0904 23.608 48.0278 23.608 48.0278Z" fill="#FF5067"/>
<path d="M31.9398 48.5285C31.9056 48.5285 31.8763 48.5285 31.8421 48.5189C31.7591 48.5044 30.0254 48.1337 29.0828 46.7182C26.8216 48.5478 23.74 48.5141 23.5984 48.5141C23.3933 48.5141 23.2174 48.3841 23.1491 48.1963C23.1149 48.0952 22.2895 45.7552 23.5154 44.0411C24.3065 42.9385 25.7277 42.38 27.7447 42.38C29.7616 42.38 31.1877 42.9385 31.9886 44.0459C33.234 45.7648 32.4379 48.1096 32.3988 48.2107C32.3305 48.4082 32.14 48.5382 31.9349 48.5382L31.9398 48.5285ZM27.7447 43.3333C26.0647 43.3333 24.9121 43.757 24.3163 44.5852C23.613 45.5674 23.823 46.9156 23.9744 47.5319C24.8779 47.4789 27.2856 47.1852 28.8728 45.6011C28.99 45.4856 29.156 45.4374 29.3172 45.4663C29.4784 45.5 29.6102 45.6059 29.6737 45.7552C30.0791 46.7326 31.0314 47.2189 31.5979 47.4307C31.7347 46.7663 31.8665 45.5145 31.1926 44.5852C30.587 43.7474 29.4247 43.3237 27.7447 43.3237V43.3333Z" fill="#34234D"/>
<path d="M61.0467 44.7778H49.8141C49.2769 44.7778 48.8374 44.3444 48.8374 43.8148C48.8374 43.2852 49.2769 42.8518 49.8141 42.8518H61.0467C61.5839 42.8518 62.0234 43.2852 62.0234 43.8148C62.0234 44.3444 61.5839 44.7778 61.0467 44.7778Z" fill="#00B5F4"/>
<path d="M45.9068 44.7778H41.5114C40.9742 44.7778 40.5347 44.3444 40.5347 43.8148C40.5347 43.2852 40.9742 42.8518 41.5114 42.8518H45.9068C46.444 42.8518 46.8835 43.2852 46.8835 43.8148C46.8835 44.3444 46.444 44.7778 45.9068 44.7778Z" fill="#2FC8F2"/>
<path d="M65.4417 52H57.1393C56.6021 52 56.1626 51.5667 56.1626 51.037C56.1626 50.5074 56.6021 50.0741 57.1393 50.0741H65.4417C65.9789 50.0741 66.4184 50.5074 66.4184 51.037C66.4184 51.5667 65.9789 52 65.4417 52Z" fill="#00B5F4"/>
<path d="M53.2323 52H41.5114C40.9742 52 40.5347 51.5667 40.5347 51.037C40.5347 50.5074 40.9742 50.0741 41.5114 50.0741H53.2323C53.7696 50.0741 54.2091 50.5074 54.2091 51.037C54.2091 51.5667 53.7696 52 53.2323 52Z" fill="#2FC8F2"/>
<path d="M59.0931 59.2222H53.2326C52.6954 59.2222 52.2559 58.7889 52.2559 58.2593C52.2559 57.7296 52.6954 57.2963 53.2326 57.2963H59.0931C59.6303 57.2963 60.0698 57.7296 60.0698 58.2593C60.0698 58.7889 59.6303 59.2222 59.0931 59.2222Z" fill="#00B5F4"/>
<path d="M49.3254 59.2222H41.5114C40.9742 59.2222 40.5347 58.7889 40.5347 58.2593C40.5347 57.7296 40.9742 57.2963 41.5114 57.2963H49.3254C49.8626 57.2963 50.3021 57.7296 50.3021 58.2593C50.3021 58.7889 49.8626 59.2222 49.3254 59.2222Z" fill="#2FC8F2"/>
<path d="M56.6514 47.1852H51.7677C51.4991 47.1852 51.2793 46.9685 51.2793 46.7037C51.2793 46.4389 51.4991 46.2222 51.7677 46.2222H56.6514C56.92 46.2222 57.1398 46.4389 57.1398 46.7037C57.1398 46.9685 56.92 47.1852 56.6514 47.1852Z" fill="#34234D"/>
<path d="M48.837 47.1852H41.023C40.7544 47.1852 40.5347 46.9685 40.5347 46.7037C40.5347 46.4389 40.7544 46.2222 41.023 46.2222H48.837C49.1056 46.2222 49.3254 46.4389 49.3254 46.7037C49.3254 46.9685 49.1056 47.1852 48.837 47.1852Z" fill="#34234D"/>
<path d="M50.7905 54.4074H41.023C40.7544 54.4074 40.5347 54.1908 40.5347 53.9259C40.5347 53.6611 40.7544 53.4445 41.023 53.4445H50.7905C51.0591 53.4445 51.2789 53.6611 51.2789 53.9259C51.2789 54.1908 51.0591 54.4074 50.7905 54.4074Z" fill="#34234D"/>
<path d="M56.6514 61.6296H49.3258C49.0572 61.6296 48.8374 61.413 48.8374 61.1481C48.8374 60.8833 49.0572 60.6667 49.3258 60.6667H56.6514C56.92 60.6667 57.1397 60.8833 57.1397 61.1481C57.1397 61.413 56.92 61.6296 56.6514 61.6296Z" fill="#34234D"/>
<path d="M46.3951 61.6296H41.023C40.7544 61.6296 40.5347 61.413 40.5347 61.1481C40.5347 60.8833 40.7544 60.6667 41.023 60.6667H46.3951C46.6637 60.6667 46.8835 60.8833 46.8835 61.1481C46.8835 61.413 46.6637 61.6296 46.3951 61.6296Z" fill="#34234D"/>
</g>
<defs>
<clipPath id="clip0_22_1887">
<rect width="84" height="78" fill="white"/>
</clipPath>
</defs>
</svg>
