<svg width="84" height="80" viewBox="0 0 84 80" fill="none" xmlns="http://www.w3.org/2000/svg">
<g clip-path="url(#clip0_22_1329)">
<path d="M73.6075 28.6272C71.3658 22.4346 73.8419 12.5235 68.8116 8.27161C63.9377 4.14815 54.6342 7.64939 47.8947 6.44445C41.1551 5.23457 33.8979 -1.23456 27.8958 0.933339C21.6984 3.17038 20.5751 13.3235 16.3214 18.3506C12.1995 23.2247 2.30024 25.9407 1.09396 32.6765C-0.117205 39.4123 8.21931 45.3975 10.3877 51.3975C12.6293 57.5901 10.1533 67.5012 15.1835 71.7531C20.0574 75.8765 29.3267 71.8519 36.0663 73.0617C42.8058 74.2716 50.0923 81.2642 56.0993 79.0914C62.2968 76.8543 63.42 66.7012 67.6737 61.6741C71.7956 56.8 81.6949 54.084 82.9012 47.3482C84.1123 40.6124 75.7758 34.6272 73.6075 28.6272Z" fill="#E6E6E6"/>
<path d="M68.8604 72.0988L15.1395 72.0988C12.4437 72.0988 10.2558 69.8864 10.2558 67.1605L10.2558 24.6913L73.7441 24.6913V67.1605C73.7441 69.8864 71.5562 72.0988 68.8604 72.0988Z" fill="#EDEDED"/>
<path d="M63.9766 72.0988H20.0231C17.3273 72.0988 15.1394 69.8864 15.1394 67.1605L15.1394 24.6913L68.8604 24.6913V67.1605C68.8604 69.8864 66.6724 72.0988 63.9766 72.0988Z" fill="white"/>
<path d="M68.8606 62.2222H15.1396V64.1975H68.8606V62.2222Z" fill="#EDEDED"/>
<path d="M68.8606 54.321H15.1396V56.2963H68.8606V54.321Z" fill="#EDEDED"/>
<path d="M61.5349 46.4197H22.4651V48.395H61.5349V46.4197Z" fill="#EDEDED"/>
<path d="M68.8606 38.5185H15.1396V40.4938H68.8606V38.5185Z" fill="#EDEDED"/>
<path d="M61.535 30.6173H15.1396V32.5926H61.535V30.6173Z" fill="#EDEDED"/>
<path d="M62.7557 24.6913H60.8022V63.2099H62.7557V24.6913Z" fill="#EDEDED"/>
<path d="M52.8663 55.8025H50.9128V72.0988H52.8663V55.8025Z" fill="#EDEDED"/>
<path d="M42.9767 24.6913H41.0232V72.0988H42.9767V24.6913Z" fill="#EDEDED"/>
<path d="M33.0873 47.4074H31.1338V63.2099H33.0873V47.4074Z" fill="#EDEDED"/>
<path d="M23.1976 24.6913H21.2441V72.0988H23.1976V24.6913Z" fill="#EDEDED"/>
<path d="M68.8604 72.5926H33.6976C33.429 72.5926 33.2092 72.3704 33.2092 72.0988C33.2092 71.8272 33.429 71.6049 33.6976 71.6049H68.8604C71.2827 71.6049 73.2557 69.6099 73.2557 67.1605V25.1852H68.8604C68.5918 25.1852 68.372 24.963 68.372 24.6914C68.372 24.4198 68.5918 24.1975 68.8604 24.1975H73.7441C74.0127 24.1975 74.2325 24.4198 74.2325 24.6914V67.1605C74.2325 70.158 71.8248 72.5926 68.8604 72.5926Z" fill="#34234D"/>
<path d="M30.7673 72.5926H15.1394C12.175 72.5926 9.76733 70.158 9.76733 67.1605V24.6914C9.76733 24.4198 9.9871 24.1975 10.2557 24.1975H65.9301C66.1987 24.1975 66.4185 24.4198 66.4185 24.6914C66.4185 24.963 66.1987 25.1852 65.9301 25.1852H10.7441V67.1605C10.7441 69.6099 12.7171 71.6049 15.1394 71.6049H30.7673C31.0359 71.6049 31.2557 71.8272 31.2557 72.0988C31.2557 72.3704 31.0359 72.5926 30.7673 72.5926Z" fill="#34234D"/>
<path d="M73.7441 67.1605V24.6913C73.7441 22.8642 72.7625 21.2741 71.3022 20.4197V62.8889C72.7625 63.7432 73.7441 65.3333 73.7441 67.1605Z" fill="#FF5067"/>
<path d="M71.3022 20.4197C70.5843 20 69.7492 19.7531 68.8604 19.7531V62.2222C69.7492 62.2222 70.5843 62.4691 71.3022 62.8889V20.4197Z" fill="#FF6E86"/>
<path d="M12.6977 62.8889V20.4197C11.2375 21.2741 10.2559 22.8642 10.2559 24.6913V67.1605C10.2559 65.3333 11.2375 63.7432 12.6977 62.8889Z" fill="#FF5067"/>
<path d="M15.1396 62.2222V19.7531C14.2508 19.7531 13.4157 20 12.6978 20.4197V62.8889C13.4157 62.4691 14.2508 62.2222 15.1396 62.2222Z" fill="#FF6E86"/>
<path d="M73.7442 67.6543C73.4756 67.6543 73.2558 67.4321 73.2558 67.1605C73.2558 64.7111 71.2828 62.716 68.8604 62.716C68.5918 62.716 68.3721 62.4938 68.3721 62.2222V19.7531C68.3721 19.4815 68.5918 19.2592 68.8604 19.2592C71.8249 19.2592 74.2325 21.6938 74.2325 24.6913V67.1605C74.2325 67.4321 74.0128 67.6543 73.7442 67.6543ZM69.3488 61.7481C70.9604 61.8963 72.3718 62.7654 73.2558 64.0395V24.6913C73.2558 22.4099 71.5416 20.5185 69.3488 20.2765V61.7531V61.7481Z" fill="#34234D"/>
<path d="M10.2557 67.6543C9.9871 67.6543 9.76733 67.4321 9.76733 67.1605V24.6913C9.76733 21.6938 12.175 19.2592 15.1394 19.2592C15.408 19.2592 15.6278 19.4815 15.6278 19.7531V45.4321C15.6278 45.7037 15.408 45.9259 15.1394 45.9259C14.8708 45.9259 14.6511 45.7037 14.6511 45.4321V20.2765C12.4583 20.5234 10.7441 22.4099 10.7441 24.6913V64.0395C11.628 62.7704 13.0394 61.8963 14.6511 61.7481V48.3951C14.6511 48.1234 14.8708 47.9012 15.1394 47.9012C15.408 47.9012 15.6278 48.1234 15.6278 48.3951V62.2222C15.6278 62.4938 15.408 62.716 15.1394 62.716C12.7171 62.716 10.7441 64.7111 10.7441 67.1605C10.7441 67.4321 10.5243 67.6543 10.2557 67.6543Z" fill="#34234D"/>
<path d="M42.0001 50.3704C43.6184 50.3704 44.9303 49.0438 44.9303 47.4074C44.9303 45.771 43.6184 44.4445 42.0001 44.4445C40.3817 44.4445 39.0698 45.771 39.0698 47.4074C39.0698 49.0438 40.3817 50.3704 42.0001 50.3704Z" fill="#A09CAD"/>
<path d="M51.7674 66.1728C53.3857 66.1728 54.6976 64.8463 54.6976 63.2099C54.6976 61.5735 53.3857 60.2469 51.7674 60.2469C50.1491 60.2469 48.8372 61.5735 48.8372 63.2099C48.8372 64.8463 50.1491 66.1728 51.7674 66.1728Z" fill="#A09CAD"/>
<path d="M52.2558 64.1975H25.8837C23.1928 64.1975 21 61.9802 21 59.2592C21 56.5383 23.1928 54.321 25.8837 54.321H58.1163C59.7328 54.321 61.0465 52.9926 61.0465 51.358C61.0465 49.7234 59.7328 48.395 58.1163 48.395H42C41.4628 48.395 41.0233 47.9506 41.0233 47.4074C41.0233 46.8642 41.4628 46.4197 42 46.4197H58.1163C60.8072 46.4197 63 48.637 63 51.358C63 54.079 60.8072 56.2963 58.1163 56.2963H25.8837C24.2672 56.2963 22.9535 57.6247 22.9535 59.2592C22.9535 60.8938 24.2672 62.2222 25.8837 62.2222H52.2558C52.793 62.2222 53.2326 62.6667 53.2326 63.2099C53.2326 63.7531 52.793 64.1975 52.2558 64.1975Z" fill="#A09CAD"/>
<path d="M53.4426 12.6963C47.1231 6.30619 36.8771 6.30619 30.5575 12.6963C24.238 19.0864 24.238 29.4469 30.5575 35.837L42.0001 47.4074L53.4426 35.837C59.7622 29.4469 59.7622 19.0864 53.4426 12.6963Z" fill="#00B5F4"/>
<path d="M32.2913 14.8889C38.6108 8.49877 48.8568 8.49877 55.1764 14.8889C55.2789 14.9926 55.3766 15.1012 55.4792 15.2099C54.8931 14.321 54.2143 13.4766 53.4426 12.6914C47.1231 6.30124 36.8771 6.30124 30.5575 12.6914C24.3406 18.9778 24.2429 29.1012 30.2547 35.5111C26.0694 29.1556 26.7482 20.4938 32.2913 14.884V14.8889Z" fill="#2FC8F2"/>
<path d="M41.9999 47.9012C41.873 47.9012 41.7509 47.8518 41.6532 47.758L30.2106 36.1877C23.7104 29.6148 23.7104 18.9185 30.2106 12.3457C36.7109 5.77284 47.289 5.77284 53.7892 12.3457C60.2895 18.9185 60.2895 29.6148 53.7892 36.1877L42.3467 47.758C42.249 47.8568 42.1269 47.9012 41.9999 47.9012ZM41.9999 8.40494C37.9806 8.40494 33.9613 9.95061 30.9041 13.0469C24.7848 19.2346 24.7848 29.3037 30.9041 35.4914L41.9999 46.7111L53.0957 35.4914C59.215 29.3037 59.215 19.2346 53.0957 13.0469C50.0336 9.95555 46.0143 8.40494 41.9999 8.40494Z" fill="#34234D"/>
<path d="M46.8251 17.758C47.836 19.121 48.4416 20.8049 48.4416 22.637C48.4416 27.1358 44.8374 30.7802 40.3883 30.7802C38.5765 30.7802 36.9111 30.1679 35.5632 29.1457C37.0332 31.121 39.3628 32.4099 42 32.4099C46.449 32.4099 50.0532 28.7654 50.0532 24.2667C50.0532 21.6049 48.7835 19.2444 46.8251 17.758Z" fill="#EDEDED"/>
<path d="M48.4417 22.637C48.4417 20.8049 47.8361 19.121 46.8251 17.758C45.4821 16.7358 43.8119 16.1234 42 16.1234C37.551 16.1234 33.9468 19.7679 33.9468 24.2667C33.9468 26.0988 34.5524 27.7827 35.5633 29.1457C36.9063 30.1679 38.5765 30.7802 40.3884 30.7802C44.8375 30.7802 48.4417 27.1358 48.4417 22.637Z" fill="white"/>
<path d="M42.0001 32.8988C37.2922 32.8988 33.4585 29.0272 33.4585 24.2617C33.4585 19.4963 37.2873 15.6247 42.0001 15.6247C46.7129 15.6247 50.5417 19.4963 50.5417 24.2617C50.5417 29.0272 46.7129 32.8988 42.0001 32.8988ZM42.0001 16.6173C37.8294 16.6173 34.4352 20.0494 34.4352 24.2667C34.4352 28.484 37.8294 31.9161 42.0001 31.9161C46.1708 31.9161 49.565 28.484 49.565 24.2667C49.565 20.0494 46.1708 16.6173 42.0001 16.6173Z" fill="#34234D"/>
<path d="M32.721 3.4568H27.8372C27.5686 3.4568 27.3489 3.23458 27.3489 2.96297C27.3489 2.69137 27.5686 2.46915 27.8372 2.46915H32.721C32.9896 2.46915 33.2093 2.69137 33.2093 2.96297C33.2093 3.23458 32.9896 3.4568 32.721 3.4568Z" fill="#A09CAD"/>
<path d="M30.2791 5.92593C30.0105 5.92593 29.7908 5.7037 29.7908 5.4321V0.493827C29.7908 0.222222 30.0105 0 30.2791 0C30.5477 0 30.7675 0.222222 30.7675 0.493827V5.4321C30.7675 5.7037 30.5477 5.92593 30.2791 5.92593Z" fill="#A09CAD"/>
<path d="M64.9535 17.2839H61.0465C60.7779 17.2839 60.5581 17.0617 60.5581 16.7901C60.5581 16.5185 60.7779 16.2963 61.0465 16.2963H64.9535C65.2221 16.2963 65.4418 16.5185 65.4418 16.7901C65.4418 17.0617 65.2221 17.2839 64.9535 17.2839Z" fill="#A09CAD"/>
<path d="M63.0001 19.2593C62.7315 19.2593 62.5117 19.037 62.5117 18.7654V14.8148C62.5117 14.5432 62.7315 14.321 63.0001 14.321C63.2687 14.321 63.4885 14.5432 63.4885 14.8148V18.7654C63.4885 19.037 63.2687 19.2593 63.0001 19.2593Z" fill="#A09CAD"/>
<path d="M16.1163 13.3333H12.2093C11.9407 13.3333 11.7209 13.1111 11.7209 12.8395C11.7209 12.5679 11.9407 12.3457 12.2093 12.3457H16.1163C16.3849 12.3457 16.6047 12.5679 16.6047 12.8395C16.6047 13.1111 16.3849 13.3333 16.1163 13.3333Z" fill="#A09CAD"/>
<path d="M14.1627 15.3086C13.8941 15.3086 13.6743 15.0864 13.6743 14.8148V10.8642C13.6743 10.5926 13.8941 10.3704 14.1627 10.3704C14.4313 10.3704 14.6511 10.5926 14.6511 10.8642V14.8148C14.6511 15.0864 14.4313 15.3086 14.1627 15.3086Z" fill="#A09CAD"/>
<path d="M55.6743 77.5309H50.7906C50.522 77.5309 50.3022 77.3086 50.3022 77.037C50.3022 76.7654 50.522 76.5432 50.7906 76.5432H55.6743C55.9429 76.5432 56.1627 76.7654 56.1627 77.037C56.1627 77.3086 55.9429 77.5309 55.6743 77.5309Z" fill="#A09CAD"/>
<path d="M53.2325 80C52.9639 80 52.7441 79.7778 52.7441 79.5062V74.5679C52.7441 74.2963 52.9639 74.0741 53.2325 74.0741C53.5011 74.0741 53.7209 74.2963 53.7209 74.5679V79.5062C53.7209 79.7778 53.5011 80 53.2325 80Z" fill="#A09CAD"/>
<path d="M5.37209 38.0247H0.488372C0.219767 38.0247 0 37.8025 0 37.5309C0 37.2593 0.219767 37.037 0.488372 37.037H5.37209C5.6407 37.037 5.86047 37.2593 5.86047 37.5309C5.86047 37.8025 5.6407 38.0247 5.37209 38.0247Z" fill="#A09CAD"/>
<path d="M2.93027 40.4938C2.66166 40.4938 2.44189 40.2716 2.44189 40V35.0617C2.44189 34.7901 2.66166 34.5679 2.93027 34.5679C3.19887 34.5679 3.41864 34.7901 3.41864 35.0617V40C3.41864 40.2716 3.19887 40.4938 2.93027 40.4938Z" fill="#A09CAD"/>
<path d="M83.5117 30.1235H78.628C78.3594 30.1235 78.1396 29.9012 78.1396 29.6296C78.1396 29.358 78.3594 29.1358 78.628 29.1358H83.5117C83.7803 29.1358 84.0001 29.358 84.0001 29.6296C84.0001 29.9012 83.7803 30.1235 83.5117 30.1235Z" fill="#A09CAD"/>
<path d="M81.0697 32.5926C80.8011 32.5926 80.5813 32.3704 80.5813 32.0988V27.1605C80.5813 26.8889 80.8011 26.6667 81.0697 26.6667C81.3383 26.6667 81.558 26.8889 81.558 27.1605V32.0988C81.558 32.3704 81.3383 32.5926 81.0697 32.5926Z" fill="#A09CAD"/>
<path d="M80.0931 65.1852H76.1861C75.9175 65.1852 75.6978 64.963 75.6978 64.6914C75.6978 64.4198 75.9175 64.1975 76.1861 64.1975H80.0931C80.3617 64.1975 80.5815 64.4198 80.5815 64.6914C80.5815 64.963 80.3617 65.1852 80.0931 65.1852Z" fill="#A09CAD"/>
<path d="M78.1395 67.1605C77.8709 67.1605 77.6511 66.9383 77.6511 66.6667V62.7161C77.6511 62.4445 77.8709 62.2222 78.1395 62.2222C78.4081 62.2222 78.6279 62.4445 78.6279 62.7161V66.6667C78.6279 66.9383 78.4081 67.1605 78.1395 67.1605Z" fill="#A09CAD"/>
<path d="M8.79061 73.0864H4.88364C4.61503 73.0864 4.39526 72.8642 4.39526 72.5926C4.39526 72.321 4.61503 72.0988 4.88364 72.0988H8.79061C9.05922 72.0988 9.27898 72.321 9.27898 72.5926C9.27898 72.8642 9.05922 73.0864 8.79061 73.0864Z" fill="#A09CAD"/>
<path d="M6.83725 75.0617C6.56864 75.0617 6.34888 74.8395 6.34888 74.5679V70.6173C6.34888 70.3457 6.56864 70.1235 6.83725 70.1235C7.10585 70.1235 7.32562 70.3457 7.32562 70.6173V74.5679C7.32562 74.8395 7.10585 75.0617 6.83725 75.0617Z" fill="#A09CAD"/>
</g>
<defs>
<clipPath id="clip0_22_1329">
<rect width="84" height="80" fill="white"/>
</clipPath>
</defs>
</svg>
