<svg width="84" height="80" viewBox="0 0 84 80" fill="none" xmlns="http://www.w3.org/2000/svg">
<g clip-path="url(#clip0_22_1583)">
<path d="M73.0506 26.563C70.4476 20.3951 72.3571 10.1679 67.0632 6.13828C61.9353 2.23211 52.8711 6.86915 46.0387 6.03458C39.2113 5.20001 31.4901 -1.48641 25.5955 1.07162C19.5104 3.71359 18.9683 14.1037 14.9929 19.4667C11.1397 24.6667 1.36735 28.0099 0.546884 34.9284C-0.278464 41.8469 8.42921 47.4519 10.9541 53.4272C13.5571 59.5951 11.6476 69.8222 16.9415 73.8519C22.0694 77.758 31.1336 73.121 37.966 73.9556C44.7934 74.7901 52.5146 81.4766 58.4092 78.9185C64.4943 76.2766 65.0364 65.8864 69.0118 60.5235C72.865 55.3235 82.6373 51.9803 83.4578 45.0617C84.2832 38.1432 75.5755 32.5383 73.0506 26.563Z" fill="#E6E6E6"/>
<path d="M83.5115 56.6222H77.1627C76.8941 56.6222 76.6743 56.4 76.6743 56.1284C76.6743 55.8568 76.8941 55.6346 77.1627 55.6346H83.5115C83.7801 55.6346 83.9999 55.8568 83.9999 56.1284C83.9999 56.4 83.7801 56.6222 83.5115 56.6222Z" fill="#A09CAD"/>
<path d="M80.093 53.6593H70.3255C70.0569 53.6593 69.8372 53.437 69.8372 53.1654C69.8372 52.8938 70.0569 52.6716 70.3255 52.6716H80.093C80.3616 52.6716 80.5813 52.8938 80.5813 53.1654C80.5813 53.437 80.3616 53.6593 80.093 53.6593Z" fill="#A09CAD"/>
<path d="M77.6511 50.6963H70.3255C70.0569 50.6963 69.8372 50.4741 69.8372 50.2025C69.8372 49.9309 70.0569 49.7086 70.3255 49.7086H77.6511C77.9197 49.7086 78.1395 49.9309 78.1395 50.2025C78.1395 50.4741 77.9197 50.6963 77.6511 50.6963Z" fill="#A09CAD"/>
<path d="M53.9651 6.91359H43.7093C43.4407 6.91359 43.2209 6.69137 43.2209 6.41976C43.2209 6.14816 43.4407 5.92593 43.7093 5.92593H53.9651C54.2337 5.92593 54.4535 6.14816 54.4535 6.41976C54.4535 6.69137 54.2337 6.91359 53.9651 6.91359Z" fill="#A09CAD"/>
<path d="M50.5464 3.95061H36.3836C36.115 3.95061 35.8953 3.72838 35.8953 3.45678C35.8953 3.18517 36.115 2.96295 36.3836 2.96295H50.5464C50.815 2.96295 51.0348 3.18517 51.0348 3.45678C51.0348 3.72838 50.815 3.95061 50.5464 3.95061Z" fill="#A09CAD"/>
<path d="M48.1047 0.987654H40.7791C40.5105 0.987654 40.2908 0.765432 40.2908 0.493827C40.2908 0.222222 40.5105 0 40.7791 0H48.1047C48.3733 0 48.5931 0.222222 48.5931 0.493827C48.5931 0.765432 48.3733 0.987654 48.1047 0.987654Z" fill="#A09CAD"/>
<path d="M80.0931 30.9432H72.2791C72.0105 30.9432 71.7908 30.721 71.7908 30.4494C71.7908 30.1778 72.0105 29.9556 72.2791 29.9556H80.0931C80.3617 29.9556 80.5815 30.1778 80.5815 30.4494C80.5815 30.721 80.3617 30.9432 80.0931 30.9432Z" fill="#A09CAD"/>
<path d="M75.6976 27.9802H67.8836C67.615 27.9802 67.3953 27.758 67.3953 27.4864C67.3953 27.2148 67.615 26.9926 67.8836 26.9926H75.6976C75.9662 26.9926 76.186 27.2148 76.186 27.4864C76.186 27.758 75.9662 27.9802 75.6976 27.9802Z" fill="#A09CAD"/>
<path d="M21.4884 11.1901H13.6744C13.4058 11.1901 13.186 10.9679 13.186 10.6963C13.186 10.4247 13.4058 10.2025 13.6744 10.2025H21.4884C21.757 10.2025 21.9767 10.4247 21.9767 10.6963C21.9767 10.9679 21.757 11.1901 21.4884 11.1901Z" fill="#A09CAD"/>
<path d="M17.0931 8.22716H9.27914C9.01054 8.22716 8.79077 8.00493 8.79077 7.73333C8.79077 7.46172 9.01054 7.2395 9.27914 7.2395H17.0931C17.3617 7.2395 17.5815 7.46172 17.5815 7.73333C17.5815 8.00493 17.3617 8.22716 17.0931 8.22716Z" fill="#A09CAD"/>
<path d="M10.2558 48.721H3.41855C3.14994 48.721 2.93018 48.4988 2.93018 48.2272C2.93018 47.9556 3.14994 47.7333 3.41855 47.7333H10.2558C10.5244 47.7333 10.7441 47.9556 10.7441 48.2272C10.7441 48.4988 10.5244 48.721 10.2558 48.721Z" fill="#A09CAD"/>
<path d="M10.2558 45.758H0.488372C0.219767 45.758 0 45.5358 0 45.2642C0 44.9926 0.219767 44.7704 0.488372 44.7704H10.2558C10.5244 44.7704 10.7442 44.9926 10.7442 45.2642C10.7442 45.5358 10.5244 45.758 10.2558 45.758Z" fill="#A09CAD"/>
<path d="M7.32552 42.7951H3.41855C3.14994 42.7951 2.93018 42.5728 2.93018 42.3012C2.93018 42.0296 3.14994 41.8074 3.41855 41.8074H7.32552C7.59413 41.8074 7.8139 42.0296 7.8139 42.3012C7.8139 42.5728 7.59413 42.7951 7.32552 42.7951Z" fill="#A09CAD"/>
<path d="M83.5116 80H0.488372C0.219767 80 0 79.7778 0 79.5062C0 79.2346 0.219767 79.0123 0.488372 79.0123H83.5116C83.7802 79.0123 84 79.2346 84 79.5062C84 79.7778 83.7802 80 83.5116 80Z" fill="#A09CAD"/>
<path d="M58.6047 15.3087H16.1163C12.8784 15.3087 10.2559 17.9605 10.2559 21.2346V73.5803C10.2559 74.4 10.9103 75.0617 11.721 75.0617H72.2791C73.0898 75.0617 73.7442 74.4 73.7442 73.5803V44.5926C73.7442 41.8124 72.0935 39.2988 69.5589 38.2222L64.4652 36.0543V21.2395C64.4652 17.9654 61.8426 15.3136 58.6047 15.3136V15.3087Z" fill="#EDEDED"/>
<path d="M58.6047 15.3087H16.1163C12.8784 15.3087 10.2559 17.9605 10.2559 21.2346V57.284C10.2559 58.1037 10.9103 58.7654 11.721 58.7654H72.2791C73.0898 58.7654 73.7442 58.1037 73.7442 57.284V44.5926C73.7442 41.8124 72.0935 39.2988 69.5589 38.2222L64.4652 36.0543V21.2395C64.4652 17.9654 61.8426 15.3136 58.6047 15.3136V15.3087Z" fill="white"/>
<path d="M69.2121 71.6049C68.8068 71.6049 68.4454 71.3531 68.3038 70.9679C67.0584 67.5901 63.8449 65.1852 60.0747 65.1852C56.3045 65.1852 53.091 67.5901 51.8456 70.9679C51.704 71.3531 51.3426 71.6049 50.9373 71.6049H32.594C32.1886 71.6049 31.8272 71.3531 31.6856 70.9679C30.4403 67.5901 27.2268 65.1852 23.4566 65.1852C19.6863 65.1852 16.4728 67.5901 15.2275 70.9679C15.0859 71.3531 14.7245 71.6049 14.3191 71.6049H10.2754V73.5802C10.2754 74.4 10.9298 75.0617 11.7405 75.0617H72.2986C73.1093 75.0617 73.7638 74.4 73.7638 73.5802V71.6049H69.2317H69.2121Z" fill="#B8B5C6"/>
<path d="M10.2557 33.0864C9.9871 33.0864 9.76733 32.8642 9.76733 32.5926V21.2346C9.76733 17.6938 12.6145 14.8148 16.1162 14.8148H29.3022C29.5708 14.8148 29.7906 15.037 29.7906 15.3086C29.7906 15.5803 29.5708 15.8025 29.3022 15.8025H16.1162C13.1518 15.8025 10.7441 18.237 10.7441 21.2346V32.5926C10.7441 32.8642 10.5243 33.0864 10.2557 33.0864Z" fill="#34234D"/>
<path d="M72.279 75.5556H50.7907C50.522 75.5556 50.3023 75.3333 50.3023 75.0617C50.3023 74.7901 50.522 74.5679 50.7907 74.5679H72.279C72.8162 74.5679 73.2558 74.1235 73.2558 73.5803V44.5926C73.2558 42.0049 71.732 39.679 69.3683 38.6766L64.2746 36.5087C64.0939 36.4296 63.9767 36.2519 63.9767 36.0543V21.2395C63.9767 18.242 61.569 15.8074 58.6046 15.8074H32.2325C31.9639 15.8074 31.7441 15.5852 31.7441 15.3136C31.7441 15.042 31.9639 14.8198 32.2325 14.8198H58.6046C62.1062 14.8198 64.9534 17.6988 64.9534 21.2395V35.7284L69.7493 37.7679C72.4744 38.9284 74.2325 41.6099 74.2325 44.5975V73.5852C74.2325 74.6766 73.3583 75.5605 72.279 75.5605V75.5556Z" fill="#34234D"/>
<path d="M47.8604 75.5556H11.7208C10.6415 75.5556 9.76733 74.6716 9.76733 73.5803V35.5556C9.76733 35.284 9.9871 35.0617 10.2557 35.0617C10.5243 35.0617 10.7441 35.284 10.7441 35.5556V73.5803C10.7441 74.1235 11.1836 74.5679 11.7208 74.5679H47.8604C48.129 74.5679 48.3487 74.7901 48.3487 75.0617C48.3487 75.3333 48.129 75.5556 47.8604 75.5556Z" fill="#34234D"/>
<path d="M65.9302 63.7037L68.1474 67.442C68.5869 68.1877 69.383 68.642 70.2425 68.642H73.7441V63.7037H65.9302Z" fill="#FF6E86"/>
<path d="M67.1023 65.679L68.2011 67.5259C68.6114 68.2173 69.3488 68.642 70.1497 68.642H73.749V65.679H67.1072H67.1023Z" fill="#FF5067"/>
<path d="M10.2559 63.7037H14.1628C14.7 63.7037 15.1396 64.1481 15.1396 64.6914V67.6543C15.1396 68.1975 14.7 68.642 14.1628 68.642H10.2559V63.7037Z" fill="#FF6E86"/>
<path d="M10.2559 65.679H14.1628C14.7 65.679 15.1396 66.1235 15.1396 66.6667V67.6543C15.1396 68.1975 14.7 68.642 14.1628 68.642H10.2559V65.679Z" fill="#FF5067"/>
<path d="M73.7441 69.1358H70.2425C69.2169 69.1358 68.2548 68.5827 67.7323 67.6988L65.515 63.9605C65.4222 63.8074 65.4223 63.6197 65.5102 63.4617C65.5981 63.3086 65.7592 63.2099 65.935 63.2099H73.749C74.0176 63.2099 74.2374 63.4321 74.2374 63.7037V68.642C74.2374 68.9136 74.0176 69.1358 73.749 69.1358H73.7441ZM66.7946 64.1975L68.5674 67.1901C68.919 67.7827 69.5588 68.1481 70.2425 68.1481H73.2557V64.1975H66.7946Z" fill="#34234D"/>
<path d="M14.1627 69.1358H10.2557C9.9871 69.1358 9.76733 68.9136 9.76733 68.642V63.7037C9.76733 63.4321 9.9871 63.2099 10.2557 63.2099H14.1627C14.9685 63.2099 15.6278 63.8765 15.6278 64.6914V67.6543C15.6278 68.4691 14.9685 69.1358 14.1627 69.1358ZM10.7441 68.1481H14.1627C14.4313 68.1481 14.6511 67.9259 14.6511 67.6543V64.6914C14.6511 64.4197 14.4313 64.1975 14.1627 64.1975H10.7441V68.1481Z" fill="#34234D"/>
<path d="M60.0698 79.5062C63.0368 79.5062 65.4419 77.0741 65.4419 74.0741C65.4419 71.074 63.0368 68.642 60.0698 68.642C57.1029 68.642 54.6978 71.074 54.6978 74.0741C54.6978 77.0741 57.1029 79.5062 60.0698 79.5062Z" fill="#A09CAD"/>
<path d="M23.4419 79.5062C26.4088 79.5062 28.814 77.0741 28.814 74.0741C28.814 71.074 26.4088 68.642 23.4419 68.642C20.475 68.642 18.0698 71.074 18.0698 74.0741C18.0698 77.0741 20.475 79.5062 23.4419 79.5062Z" fill="#A09CAD"/>
<path d="M60.0697 80C56.8367 80 54.2092 77.3432 54.2092 74.0741C54.2092 70.8049 56.8367 68.1481 60.0697 68.1481C63.3027 68.1481 65.9302 70.8049 65.9302 74.0741C65.9302 77.3432 63.3027 80 60.0697 80ZM60.0697 69.1358C57.3788 69.1358 55.186 71.3531 55.186 74.0741C55.186 76.795 57.3788 79.0123 60.0697 79.0123C62.7606 79.0123 64.9534 76.795 64.9534 74.0741C64.9534 71.3531 62.7606 69.1358 60.0697 69.1358Z" fill="#34234D"/>
<path d="M60.0697 76.0494C61.1486 76.0494 62.0232 75.165 62.0232 74.0741C62.0232 72.9831 61.1486 72.0988 60.0697 72.0988C58.9908 72.0988 58.1162 72.9831 58.1162 74.0741C58.1162 75.165 58.9908 76.0494 60.0697 76.0494Z" fill="white"/>
<path d="M23.4418 76.0494C24.5207 76.0494 25.3953 75.165 25.3953 74.0741C25.3953 72.9831 24.5207 72.0988 23.4418 72.0988C22.3629 72.0988 21.4883 72.9831 21.4883 74.0741C21.4883 75.165 22.3629 76.0494 23.4418 76.0494Z" fill="white"/>
<path d="M60.0698 76.5432C58.7219 76.5432 57.6279 75.437 57.6279 74.0741C57.6279 72.7111 58.7219 71.6049 60.0698 71.6049C61.4177 71.6049 62.5117 72.7111 62.5117 74.0741C62.5117 75.437 61.4177 76.5432 60.0698 76.5432ZM60.0698 72.5926C59.264 72.5926 58.6047 73.2592 58.6047 74.0741C58.6047 74.8889 59.264 75.5555 60.0698 75.5555C60.8756 75.5555 61.5349 74.8889 61.5349 74.0741C61.5349 73.2592 60.8756 72.5926 60.0698 72.5926Z" fill="#34234D"/>
<path d="M23.4418 80C20.2087 80 17.5813 77.3432 17.5813 74.0741C17.5813 70.8049 20.2087 68.1481 23.4418 68.1481C26.6748 68.1481 29.3022 70.8049 29.3022 74.0741C29.3022 77.3432 26.6748 80 23.4418 80ZM23.4418 69.1358C20.7508 69.1358 18.558 71.3531 18.558 74.0741C18.558 76.795 20.7508 79.0123 23.4418 79.0123C26.1327 79.0123 28.3255 76.795 28.3255 74.0741C28.3255 71.3531 26.1327 69.1358 23.4418 69.1358Z" fill="#34234D"/>
<path d="M23.4419 76.5432C22.094 76.5432 21 75.437 21 74.0741C21 72.7111 22.094 71.6049 23.4419 71.6049C24.7898 71.6049 25.8837 72.7111 25.8837 74.0741C25.8837 75.437 24.7898 76.5432 23.4419 76.5432ZM23.4419 72.5926C22.636 72.5926 21.9767 73.2592 21.9767 74.0741C21.9767 74.8889 22.636 75.5555 23.4419 75.5555C24.2477 75.5555 24.907 74.8889 24.907 74.0741C24.907 73.2592 24.2477 72.5926 23.4419 72.5926Z" fill="#34234D"/>
<path d="M45.907 44.9383H36.6279V58.7654H45.907V44.9383Z" fill="#2FC8F2"/>
<path d="M45.907 44.9383H53.2326C54.3119 44.9383 55.1861 45.8222 55.1861 46.9136V56.7901C55.1861 57.8815 54.3119 58.7654 53.2326 58.7654H45.907V44.9383Z" fill="#2FC8F2"/>
<path d="M20.0233 44.9383H27.3489V58.7654H20.0233C18.944 58.7654 18.0698 57.8815 18.0698 56.7901V46.9136C18.0698 45.8222 18.944 44.9383 20.0233 44.9383Z" fill="#2FC8F2"/>
<path d="M36.6279 44.9383H27.3489V58.7654H36.6279V44.9383Z" fill="#2FC8F2"/>
<path d="M45.907 48.8889H36.6279V58.7654H45.907V48.8889Z" fill="#00B5F4"/>
<path d="M45.907 48.8889H53.2326C54.3119 48.8889 55.1861 49.7728 55.1861 50.8642V56.7901C55.1861 57.8815 54.3119 58.7654 53.2326 58.7654H45.907V48.8889Z" fill="#00B5F4"/>
<path d="M20.0233 48.8889H27.3489V58.7654H20.0233C18.944 58.7654 18.0698 57.8815 18.0698 56.7901V50.8642C18.0698 49.7728 18.944 48.8889 20.0233 48.8889Z" fill="#00B5F4"/>
<path d="M36.6279 48.8889H27.3489V58.7654H36.6279V48.8889Z" fill="#00B5F4"/>
<path d="M73.7443 44.9383H63.0001C61.9208 44.9383 61.0466 45.8222 61.0466 46.9136V51.6543C61.0466 53.5802 62.1552 55.3333 63.8841 56.1383L73.7443 60.7407V44.9383Z" fill="#2FC8F2"/>
<path d="M73.7443 48.8889H63.0001C61.9208 48.8889 61.0466 49.7728 61.0466 50.8642V51.6543C61.0466 53.5802 62.1552 55.3333 63.8841 56.1383L73.7443 60.7407V48.8889Z" fill="#00B5F4"/>
<path d="M73.7442 61.2346C73.6758 61.2346 73.6025 61.2198 73.539 61.1901L63.6788 56.5877C61.7839 55.7037 60.5581 53.7679 60.5581 51.6543V46.9136C60.5581 45.5506 61.6521 44.4445 63 44.4445H73.7442C74.0128 44.4445 74.2325 44.6667 74.2325 44.9383V60.7408C74.2325 60.9087 74.1495 61.0667 74.0079 61.1556C73.9297 61.2049 73.8369 61.2346 73.7442 61.2346ZM63 45.4321C62.1942 45.4321 61.5348 46.0988 61.5348 46.9136V51.6543C61.5348 53.3827 62.536 54.9679 64.089 55.6889L73.2558 59.9654V45.4272H63V45.4321Z" fill="#34234D"/>
<path d="M45.9071 59.2593H36.628C36.3594 59.2593 36.1396 59.0371 36.1396 58.7654V44.9383C36.1396 44.6667 36.3594 44.4445 36.628 44.4445H45.9071C46.1757 44.4445 46.3955 44.6667 46.3955 44.9383V58.7654C46.3955 59.0371 46.1757 59.2593 45.9071 59.2593ZM37.1164 58.2716H45.4187V45.4321H37.1164V58.2716Z" fill="#34234D"/>
<path d="M53.2327 59.2593H45.9071C45.6385 59.2593 45.4187 59.0371 45.4187 58.7654V44.9383C45.4187 44.6667 45.6385 44.4445 45.9071 44.4445C46.1757 44.4445 46.3954 44.6667 46.3954 44.9383V58.2716H53.2327C54.0385 58.2716 54.6978 57.605 54.6978 56.7901V46.9136C54.6978 46.0988 54.0385 45.4321 53.2327 45.4321H48.8373C48.5687 45.4321 48.3489 45.2099 48.3489 44.9383C48.3489 44.6667 48.5687 44.4445 48.8373 44.4445H53.2327C54.5806 44.4445 55.6745 45.5506 55.6745 46.9136V56.7901C55.6745 58.1531 54.5806 59.2593 53.2327 59.2593Z" fill="#34234D"/>
<path d="M27.3487 59.2593H20.0232C18.6753 59.2593 17.5813 58.1531 17.5813 56.7901V46.9136C17.5813 45.5506 18.6753 44.4445 20.0232 44.4445H27.3487C27.6173 44.4445 27.8371 44.6667 27.8371 44.9383V58.7654C27.8371 59.0371 27.6173 59.2593 27.3487 59.2593ZM20.0232 45.4321C19.2173 45.4321 18.558 46.0988 18.558 46.9136V56.7901C18.558 57.605 19.2173 58.2716 20.0232 58.2716H26.8604V45.4321H20.0232Z" fill="#34234D"/>
<path d="M36.872 59.2593H36.6278C36.3592 59.2593 36.1394 59.0371 36.1394 58.7654V45.4321H27.8371V58.2716H33.9417C34.2104 58.2716 34.4301 58.4938 34.4301 58.7654C34.4301 59.0371 34.2104 59.2593 33.9417 59.2593H27.3487C27.0801 59.2593 26.8604 59.0371 26.8604 58.7654V44.9383C26.8604 44.6667 27.0801 44.4445 27.3487 44.4445H36.6278C36.8964 44.4445 37.1162 44.6667 37.1162 44.9383V58.3358C37.2627 58.4198 37.3604 58.5827 37.3604 58.7654C37.3604 59.0371 37.1406 59.2593 36.872 59.2593Z" fill="#34234D"/>
<path d="M45.907 22.2222H36.6279V36.0494H45.907V22.2222Z" fill="#2FC8F2"/>
<path d="M55.1861 22.2222H45.907V36.0494H55.1861V22.2222Z" fill="#2FC8F2"/>
<path d="M64.4651 22.2222H55.186V36.0494H64.4651V22.2222Z" fill="#2FC8F2"/>
<path d="M20.0233 22.2222H27.3489V36.0494H20.0233C18.944 36.0494 18.0698 35.1654 18.0698 34.0741V24.1975C18.0698 23.1062 18.944 22.2222 20.0233 22.2222Z" fill="#2FC8F2"/>
<path d="M36.6279 22.2222H27.3489V36.0494H36.6279V22.2222Z" fill="#2FC8F2"/>
<path d="M45.907 26.1729H36.6279V36.0494H45.907V26.1729Z" fill="#00B5F4"/>
<path d="M55.1861 26.1729H45.907V36.0494H55.1861V26.1729Z" fill="#00B5F4"/>
<path d="M64.4651 26.1729H55.186V36.0494H64.4651V26.1729Z" fill="#00B5F4"/>
<path d="M20.0233 26.1729H27.3489V36.0494H20.0233C18.944 36.0494 18.0698 35.1654 18.0698 34.0741V28.1482C18.0698 27.0568 18.944 26.1729 20.0233 26.1729Z" fill="#00B5F4"/>
<path d="M36.6279 26.1729H27.3489V36.0494H36.6279V26.1729Z" fill="#00B5F4"/>
<path d="M45.9071 36.5432H36.628C36.3594 36.5432 36.1396 36.321 36.1396 36.0494V22.2222C36.1396 21.9506 36.3594 21.7284 36.628 21.7284H45.9071C46.1757 21.7284 46.3955 21.9506 46.3955 22.2222V36.0494C46.3955 36.321 46.1757 36.5432 45.9071 36.5432ZM37.1164 35.5556H45.4187V22.716H37.1164V35.5556Z" fill="#34234D"/>
<path d="M55.1861 36.5432H45.9071C45.6385 36.5432 45.4187 36.321 45.4187 36.0494V22.2222C45.4187 21.9506 45.6385 21.7284 45.9071 21.7284H55.1861C55.4547 21.7284 55.6745 21.9506 55.6745 22.2222V36.0494C55.6745 36.321 55.4547 36.5432 55.1861 36.5432ZM46.3954 35.5556H54.6978V22.716H46.3954V35.5556Z" fill="#34234D"/>
<path d="M64.4652 36.5432H55.1861C54.9175 36.5432 54.6978 36.321 54.6978 36.0494V22.2222C54.6978 21.9506 54.9175 21.7284 55.1861 21.7284H64.4652C64.7338 21.7284 64.9536 21.9506 64.9536 22.2222V36.0494C64.9536 36.321 64.7338 36.5432 64.4652 36.5432ZM55.6745 35.5556H63.9768V22.716H55.6745V35.5556Z" fill="#34234D"/>
<path d="M27.3487 36.5432H20.0232C18.6753 36.5432 17.5813 35.437 17.5813 34.0741V24.1975C17.5813 22.8346 18.6753 21.7284 20.0232 21.7284H27.3487C27.6173 21.7284 27.8371 21.9506 27.8371 22.2222V36.0494C27.8371 36.321 27.6173 36.5432 27.3487 36.5432ZM20.0232 22.716C19.2173 22.716 18.558 23.3827 18.558 24.1975V34.0741C18.558 34.8889 19.2173 35.5556 20.0232 35.5556H26.8604V22.716H20.0232Z" fill="#34234D"/>
<path d="M36.6278 36.5432H27.3487C27.0801 36.5432 26.8604 36.321 26.8604 36.0494V22.2222C26.8604 21.9506 27.0801 21.7284 27.3487 21.7284H36.6278C36.8964 21.7284 37.1162 21.9506 37.1162 22.2222V36.0494C37.1162 36.321 36.8964 36.5432 36.6278 36.5432ZM27.8371 35.5556H36.1394V22.716H27.8371V35.5556Z" fill="#34234D"/>
</g>
<defs>
<clipPath id="clip0_22_1583">
<rect width="84" height="80" fill="white"/>
</clipPath>
</defs>
</svg>
